SplineFontDB: 3.2
FontName: GGF_Devanagari
FullName: GGF_Devanagari
FamilyName: GGF_Devanagari
Weight: Book
Copyright: GeftGames (c) 2019
Version: 001.000
ItalicAngle: 0
UnderlinePosition: -100
UnderlineWidth: 50
Ascent: 800
Descent: 200
InvalidEm: 0
sfntRevision: 0x00010000
LayerCount: 2
Layer: 0 1 "Back" 1
Layer: 1 1 "Fore" 0
XUID: [1021 67 -1579941666 20137]
StyleMap: 0x0040
FSType: 0
OS2Version: 4
OS2_WeightWidthSlopeOnly: 0
OS2_UseTypoMetrics: 1
CreationTime: 1577040872
ModificationTime: 1625583607
PfmFamily: 17
TTFWeight: 400
TTFWidth: 5
LineGap: 90
VLineGap: 0
Panose: 2 0 5 3 0 0 0 0 0 0
OS2TypoAscent: 800
OS2TypoAOffset: 0
OS2TypoDescent: -200
OS2TypoDOffset: 0
OS2TypoLinegap: 90
OS2WinAscent: 1034
OS2WinAOffset: 0
OS2WinDescent: 375
OS2WinDOffset: 0
HheadAscent: 1034
HheadAOffset: 0
HheadDescent: -375
HheadDOffset: 0
OS2SubXSize: 650
OS2SubYSize: 699
OS2SubXOff: 0
OS2SubYOff: 140
OS2SupXSize: 650
OS2SupYSize: 699
OS2SupXOff: 0
OS2SupYOff: 479
OS2StrikeYSize: 49
OS2StrikeYPos: 258
OS2CapHeight: 780
OS2XHeight: 394
OS2Vendor: 'PfEd'
OS2CodePages: 001a0057.00000000
OS2UnicodeRanges: a00022bf.f917e062.00000028.00000000
Lookup: 1 0 0 "Jaldi-Regular-'aalt' Access All Alternates lookup 0" { "Jaldi-Regular-'aalt' Access All Alternates lookup 0 subtable"  } ['aalt' ('DFLT' <'dflt' > 'dev2' <'MAR ' 'NEP ' 'dflt' > 'deva' <'MAR ' 'NEP ' 'dflt' > 'latn' <'AZE ' 'CAT ' 'CRT ' 'GUA ' 'KAZ ' 'MOL ' 'NLD ' 'PLK ' 'ROM ' 'TAT ' 'TRK ' 'dflt' > ) ]
Lookup: 3 0 0 "Jaldi-Regular-'aalt' Access All Alternates lookup 1" { "Jaldi-Regular-'aalt' Access All Alternates lookup 1 subtable"  } ['aalt' ('DFLT' <'dflt' > 'dev2' <'MAR ' 'NEP ' 'dflt' > 'deva' <'MAR ' 'NEP ' 'dflt' > 'latn' <'AZE ' 'CAT ' 'CRT ' 'GUA ' 'KAZ ' 'MOL ' 'NLD ' 'PLK ' 'ROM ' 'TAT ' 'TRK ' 'dflt' > ) ]
Lookup: 4 0 0 "Jaldi-Regular-Ligature Substitution lookup 2" { "Jaldi-Regular-Ligature Substitution lookup 2 subtable"  } []

StartChar: exclam
Encoding: 33 33 4
Width: 215
Flags: W
LayerCount: 2
Fore
SplineSet
102 110 m 1,0,1
 79 325 79 325 72 437 c 128,-1,2
 65 549 65 549 65 686 c 0,3,4
 65 710 65 710 107 710 c 128,-1,5
 149 710 149 710 149 686 c 0,6,7
 149 476 149 476 102 110 c 1,0,1
104 0 m 4,8,9
 79 0 79 0 69.5 19 c 128,-1,10
 60 38 60 38 70 57 c 128,-1,11
 80 76 80 76 105 76 c 0,12,13
 129 76 129 76 138.5 57 c 128,-1,14
 148 38 148 38 138 19 c 128,-1,15
 128 0 128 0 104 0 c 4,8,9
EndSplineSet
EndChar

StartChar: numbersign
Encoding: 35 35 6
Width: 707
Flags: W
LayerCount: 2
Fore
SplineSet
88 250 m 1,0,-1
 559 250 l 1,1,-1
 548 208 l 1,2,-1
 77 208 l 1,3,-1
 88 250 l 1,0,-1
204 566 m 1,4,-1
 675 566 l 1,5,-1
 664 525 l 1,6,-1
 193 525 l 1,7,-1
 204 566 l 1,4,-1
630 778 m 2,8,9
 631 780 631 780 638 777.5 c 128,-1,10
 645 775 645 775 650 771 c 128,-1,11
 655 767 655 767 654 765 c 2,12,-1
 331 0 l 2,13,14
 330 -2 330 -2 322 1.5 c 128,-1,15
 314 5 314 5 307.5 10.5 c 128,-1,16
 301 16 301 16 302 18 c 2,17,-1
 630 778 l 2,8,9
429 779 m 2,18,19
 430 781 430 781 437 778.5 c 128,-1,20
 444 776 444 776 449 772 c 128,-1,21
 454 768 454 768 453 766 c 2,22,-1
 130 1 l 2,23,24
 129 -1 129 -1 121 2.5 c 128,-1,25
 113 6 113 6 106.5 11.5 c 128,-1,26
 100 17 100 17 101 19 c 2,27,-1
 429 779 l 2,18,19
EndSplineSet
EndChar

StartChar: dollar
Encoding: 36 36 7
Width: 539
Flags: W
LayerCount: 2
Fore
SplineSet
412 637 m 0,0,1
 401 684 401 684 363 715.5 c 128,-1,2
 325 747 325 747 272 747 c 1,3,-1
 272 418.796229471 l 1,4,5
 286.28473594 414.050325789 286.28473594 414.050325789 302 410 c 0,6,7
 380 390 380 390 424 309 c 128,-1,8
 468 228 468 228 427 136 c 0,9,10
 402 79 402 79 357 39.5 c 0,11,12
 320.686391409 7.62472134833 320.686391409 7.62472134833 272 1.47180697822 c 1,13,-1
 272 -56 l 1,14,-1
 235 -56 l 1,15,-1
 235 0.438345034863 l 1,16,17
 180.805164229 4.13466520527 180.805164229 4.13466520527 137 39 c 0,18,19
 88 78 88 78 70 122 c 0,20,21
 67 130 67 130 83.5 139 c 128,-1,22
 100 148 100 148 104 141 c 0,23,24
 123 96 123 96 161 67 c 0,25,26
 192.502053371 42.9589592697 192.502053371 42.9589592697 235 38.8479750703 c 1,27,-1
 235 384.885601438 l 1,28,29
 198.654658358 397.887521194 198.654658358 397.887521194 171 418 c 0,30,31
 127 450 127 450 111.5 490 c 128,-1,32
 96 530 96 530 93 577 c 128,-1,33
 90 624 90 624 104 666 c 0,34,35
 118 720 118 720 162.5 750 c 0,36,37
 193.708588944 771.039498164 193.708588944 771.039498164 235 777.323646895 c 1,38,-1
 235 816 l 1,39,-1
 272 816 l 1,40,-1
 272 780 l 1,41,42
 338 780 338 780 383.5 744.5 c 128,-1,43
 429 709 429 709 447 643 c 0,44,45
 447 642 447 642 444 640 c 128,-1,46
 441 638 441 638 436 636.5 c 128,-1,47
 431 635 431 635 425.5 634 c 128,-1,48
 420 633 420 633 416.5 633.5 c 128,-1,49
 413 634 413 634 412 637 c 0,0,1
272 40.0199372057 m 1,50,51
 327.558257107 51.9252997003 327.558257107 51.9252997003 378 134 c 0,52,53
 412 191 412 191 403.5 241 c 128,-1,54
 395 291 395 291 360.5 326.5 c 128,-1,55
 326 362 326 362 281 372 c 0,56,57
 276.447667342 372.965646321 276.447667342 372.965646321 272 374.016927902 c 1,58,-1
 272 40.0199372057 l 1,50,51
235 742.937472119 m 1,59,60
 204.243722535 735.777773647 204.243722535 735.777773647 180 716 c 0,61,62
 142 685 142 685 134 634 c 0,63,64
 120 538 120 538 162.5 486.5 c 0,65,66
 188.528865212 454.959139802 188.528865212 454.959139802 235 433.358098755 c 1,67,-1
 235 742.937472119 l 1,59,60
EndSplineSet
EndChar

StartChar: percent
Encoding: 37 37 8
Width: 619
Flags: W
LayerCount: 2
Fore
SplineSet
388 0 m 128,-1,1
 348 0 348 0 321 28 c 128,-1,2
 294 56 294 56 288.5 96 c 128,-1,3
 283 136 283 136 290.5 176 c 128,-1,4
 298 216 298 216 325 244 c 128,-1,5
 352 272 352 272 390 272 c 0,6,7
 427 272 427 272 453 244 c 128,-1,8
 479 216 479 216 486 176 c 128,-1,9
 493 136 493 136 487.5 96 c 128,-1,10
 482 56 482 56 455 28 c 128,-1,0
 428 0 428 0 388 0 c 128,-1,1
390 230 m 128,-1,12
 366 230 366 230 349.5 210.5 c 128,-1,13
 333 191 333 191 329.5 163 c 128,-1,14
 326 135 326 135 329.5 107 c 128,-1,15
 333 79 333 79 349 59.5 c 128,-1,16
 365 40 365 40 388 40 c 0,17,18
 410 40 410 40 426 59.5 c 128,-1,19
 442 79 442 79 446.5 107 c 128,-1,20
 451 135 451 135 448.5 163 c 128,-1,21
 446 191 446 191 430 210.5 c 128,-1,11
 414 230 414 230 390 230 c 128,-1,12
198 780 m 0,22,23
 246 780 246 780 274 737.5 c 128,-1,24
 302 695 302 695 303 644 c 128,-1,25
 304 593 304 593 276.5 550.5 c 128,-1,26
 249 508 249 508 198 508 c 0,27,28
 164 508 164 508 139.5 528 c 128,-1,29
 115 548 115 548 104 578.5 c 128,-1,30
 93 609 93 609 93 644 c 128,-1,31
 93 679 93 679 104.5 709.5 c 128,-1,32
 116 740 116 740 140.5 760 c 128,-1,33
 165 780 165 780 198 780 c 0,22,23
198 547 m 2,34,35
 225 547 225 547 241 576.5 c 128,-1,36
 257 606 257 606 257.5 642 c 128,-1,37
 258 678 258 678 242.5 707.5 c 128,-1,38
 227 737 227 737 198 737 c 0,39,40
 158 737 158 737 142 689.5 c 128,-1,41
 126 642 126 642 142 594.5 c 128,-1,42
 158 547 158 547 196 547 c 2,43,-1
 198 547 l 2,34,35
430 779 m 2,44,45
 431 781 431 781 438 778.5 c 128,-1,46
 445 776 445 776 450 772 c 128,-1,47
 455 768 455 768 454 766 c 2,48,-1
 131 1 l 2,49,50
 130 -1 130 -1 122 2.5 c 128,-1,51
 114 6 114 6 107.5 11.5 c 128,-1,52
 101 17 101 17 102 19 c 2,53,-1
 430 779 l 2,44,45
EndSplineSet
EndChar

StartChar: ampersand
Encoding: 38 38 9
Width: 497
Flags: W
LayerCount: 2
Fore
SplineSet
270 402 m 0,0,1
 270 361 270 361 192 277 c 1,2,-1
 294 182 l 1,3,4
 332 232 332 232 346 246 c 0,5,6
 348 248 348 248 355.5 244 c 128,-1,7
 363 240 363 240 369 234 c 0,8,9
 375.245762712 227.754237288 375.245762712 227.754237288 373 225 c 2,10,-1
 320 160 l 1,11,-1
 469 26 l 1,12,-1
 441 0 l 1,13,-1
 301 131 l 1,14,15
 297 126 297 126 279 103.5 c 128,-1,16
 261 81 261 81 247.5 65.5 c 128,-1,17
 234 50 234 50 211 31.5 c 128,-1,18
 188 13 188 13 169 6 c 128,-1,19
 150 -1 150 -1 126 3 c 0,20,21
 99 7 99 7 81 25 c 0,22,23
 49 57 49 57 43 92 c 128,-1,24
 37 127 37 127 56.5 163 c 128,-1,25
 76 199 76 199 93.5 221 c 128,-1,26
 111 243 111 243 141 274 c 1,27,28
 101 314 101 314 87 339.5 c 128,-1,29
 73 365 73 365 73 412 c 0,30,31
 73 469 73 469 122.5 492 c 128,-1,32
 172 515 172 515 221 489.5 c 128,-1,33
 270 464 270 464 270 402 c 0,0,1
107 401 m 0,34,35
 107 391 107 391 108.5 382 c 128,-1,36
 110 373 110 373 114.5 364 c 128,-1,37
 119 355 119 355 122 348.5 c 128,-1,38
 125 342 125 342 132 333.5 c 128,-1,39
 139 325 139 325 142 321.5 c 128,-1,40
 145 318 145 318 153 309.5 c 128,-1,41
 161 301 161 301 162 300 c 1,42,43
 166 305 166 305 181 321 c 128,-1,44
 196 337 196 337 205 348 c 128,-1,45
 214 359 214 359 222.5 375 c 128,-1,46
 231 391 231 391 231 404 c 0,47,48
 231 443 231 443 200 457 c 128,-1,49
 169 471 169 471 138 454.5 c 128,-1,50
 107 438 107 438 107 401 c 0,34,35
139 39 m 0,51,52
 160 39 160 39 181 53 c 128,-1,53
 202 67 202 67 214.5 81.5 c 128,-1,54
 227 96 227 96 245 120.5 c 128,-1,55
 263 145 263 145 269 152 c 1,56,-1
 166 252 l 1,57,58
 113 196 113 196 89 148 c 0,59,60
 71 116 71 116 86 77.5 c 128,-1,61
 101 39 101 39 139 39 c 0,51,52
EndSplineSet
EndChar

StartChar: quotesingle
Encoding: 39 39 10
Width: 209
Flags: W
LayerCount: 2
Fore
SplineSet
89 682 m 2,0,-1
 89 832 l 2,1,2
 89 834 89 834 106.5 834 c 128,-1,3
 124 834 124 834 124 832 c 2,4,-1
 124 682 l 2,5,6
 124 680 124 680 106.5 680 c 128,-1,7
 89 680 89 680 89 682 c 2,0,-1
EndSplineSet
EndChar

StartChar: parenright
Encoding: 41 41 12
Width: 207
Flags: W
LayerCount: 2
Fore
SplineSet
113 381 m 132,-1,1
 113 245 113 245 101.5 167.5 c 132,-1,2
 90 90 90 90 50 24 c 4,3,4
 47 19 47 19 52 11.5 c 132,-1,5
 57 4 57 4 63.5 1.5 c 132,-1,6
 70 -1 70 -1 75 3 c 4,7,8
 102 37 102 37 118 74.5 c 132,-1,9
 134 112 134 112 140.5 163.5 c 132,-1,10
 147 215 147 215 148 249.5 c 132,-1,11
 149 284 149 284 149 355 c 4,12,13
 149 372 149 372 149 381 c 4,14,15
 149 522 149 522 135 611.5 c 132,-1,16
 121 701 121 701 72 777 c 4,17,18
 68 781 68 781 61 778.5 c 132,-1,19
 54 776 54 776 49 768.5 c 132,-1,20
 44 761 44 761 47 756 c 4,21,22
 89 682 89 682 101 599.5 c 132,-1,0
 113 517 113 517 113 381 c 132,-1,1
EndSplineSet
EndChar

StartChar: asterisk
Encoding: 42 42 13
Width: 441
Flags: W
LayerCount: 2
Fore
SplineSet
144 616 m 2,0,1
 126 589 126 589 98 611 c 0,2,3
 73 632 73 632 75 658 c 0,4,5
 77 676 77 676 97 683 c 2,6,-1
 193 715 l 1,7,-1
 86 764 l 2,8,9
 50 781 50 781 65 814 c 0,10,11
 76 840 76 840 102 844 c 0,12,13
 121 847 121 847 133 829 c 2,14,-1
 202 729 l 1,15,-1
 202 845 l 2,16,17
 202 880 202 880 237 879 c 0,18,19
 271 878 271 878 292 854 c 0,20,21
 310 833 310 833 293 813 c 2,22,-1
 220 725 l 1,23,-1
 322 758 l 2,24,25
 357 769 357 769 371 734 c 0,26,27
 383 703 383 703 367 680 c 0,28,29
 352 661 352 661 325 671 c 2,30,-1
 218 710 l 1,31,-1
 286 625 l 2,32,33
 312 593 312 593 281 568 c 0,34,35
 255 547 255 547 227 558 c 0,36,37
 204 567 204 567 204 598 c 2,38,-1
 203 705 l 1,39,-1
 144 616 l 2,0,1
EndSplineSet
EndChar

StartChar: hyphen
Encoding: 45 45 16
Width: 376
Flags: W
LayerCount: 2
Fore
SplineSet
309 309 m 2,0,1
 315 309 315 309 315 326.5 c 128,-1,2
 315 344 315 344 309 344 c 2,3,-1
 68 344 l 2,4,5
 64 344 64 344 64 326.5 c 128,-1,6
 64 309 64 309 68 309 c 2,7,-1
 309 309 l 2,0,1
EndSplineSet
EndChar

StartChar: period
Encoding: 46 46 17
Width: 156
Flags: W
LayerCount: 2
Fore
SplineSet
81 0 m 0,0,1
 56 0 56 0 46.5 19 c 128,-1,2
 37 38 37 38 47 57 c 128,-1,3
 57 76 57 76 82 76 c 0,4,5
 106 76 106 76 115.5 57 c 128,-1,6
 125 38 125 38 115 19 c 128,-1,7
 105 0 105 0 81 0 c 0,0,1
EndSplineSet
EndChar

StartChar: slash
Encoding: 47 47 18
Width: 458
Flags: W
LayerCount: 2
Fore
SplineSet
389 779 m 2,0,1
 390 781 390 781 397 778.5 c 128,-1,2
 404 776 404 776 409 772 c 128,-1,3
 414 768 414 768 413 766 c 2,4,-1
 90 1 l 2,5,6
 89 -1 89 -1 81 2.5 c 128,-1,7
 73 6 73 6 66.5 11.5 c 128,-1,8
 60 17 60 17 61 19 c 2,9,-1
 389 779 l 2,0,1
EndSplineSet
EndChar

StartChar: zero
Encoding: 48 48 19
Width: 511
Flags: W
LayerCount: 2
Fore
SplineSet
259 780 m 0,0,1
 327 780 327 780 373 722 c 128,-1,2
 419 664 419 664 437.5 579.5 c 128,-1,3
 456 495 456 495 456 391 c 0,4,5
 456 283 456 283 436.5 197.5 c 128,-1,6
 417 112 417 112 371.5 56 c 128,-1,7
 326 0 326 0 259 0 c 0,8,9
 204 0 204 0 165 31 c 128,-1,10
 126 62 126 62 104 118.5 c 128,-1,11
 82 175 82 175 72.5 242 c 128,-1,12
 63 309 63 309 63 391 c 0,13,14
 63 489 63 489 83.5 575 c 128,-1,15
 104 661 104 661 150 720.5 c 128,-1,16
 196 780 196 780 259 780 c 0,0,1
416 391 m 128,-1,18
 416 447 416 447 407 506.5 c 128,-1,19
 398 566 398 566 380 621.5 c 128,-1,20
 362 677 362 677 330.5 712 c 128,-1,21
 299 747 299 747 259 747 c 0,22,23
 220 747 220 747 188.5 711.5 c 128,-1,24
 157 676 157 676 140 620.5 c 128,-1,25
 123 565 123 565 114 506 c 128,-1,26
 105 447 105 447 105 391 c 0,27,28
 105 332 105 332 111.5 276 c 128,-1,29
 118 220 118 220 133.5 162 c 128,-1,30
 149 104 149 104 181.5 69 c 128,-1,31
 214 34 214 34 259 34 c 0,32,33
 299 34 299 34 331 69.5 c 128,-1,34
 363 105 363 105 380.5 160.5 c 128,-1,35
 398 216 398 216 407 275.5 c 128,-1,17
 416 335 416 335 416 391 c 128,-1,18
EndSplineSet
EndChar

StartChar: one
Encoding: 49 49 20
Width: 254
Flags: W
LayerCount: 2
Fore
SplineSet
43 616 m 2,0,-1
 194 773 l 1,1,-1
 194 0 l 1,2,-1
 165 0 l 1,3,-1
 166 704 l 1,4,-1
 63 593 l 2,5,6
 61 591 61 591 55.5 596 c 128,-1,7
 50 601 50 601 45.5 607.5 c 128,-1,8
 41 614 41 614 43 616 c 2,0,-1
EndSplineSet
EndChar

StartChar: two
Encoding: 50 50 21
Width: 605
Flags: W
LayerCount: 2
Fore
SplineSet
502 107 m 0,0,1
 503 109 503 109 512 105.5 c 128,-1,2
 521 102 521 102 528 96 c 128,-1,3
 535 90 535 90 533 87 c 0,4,5
 512 54 512 54 472 27 c 128,-1,6
 432 0 432 0 386 0 c 0,7,8
 317 0 317 0 272 62 c 0,9,10
 248 97 248 97 231 97 c 1,11,12
 207 28 207 28 181 11 c 0,13,14
 157 -7 157 -7 119.5 5 c 128,-1,15
 82 17 82 17 75 47 c 0,16,17
 61 107 61 107 99.5 131.5 c 128,-1,18
 138 156 138 156 208 139 c 1,19,20
 226 175 226 175 261 247.5 c 128,-1,21
 296 320 296 320 325 378 c 128,-1,22
 354 436 354 436 383 487 c 0,23,24
 414 543 414 543 416.5 601.5 c 128,-1,25
 419 660 419 660 387 701 c 128,-1,26
 355 742 355 742 292 742 c 0,27,28
 210 742 210 742 166 652 c 0,29,30
 163 649 163 649 155.5 651.5 c 128,-1,31
 148 654 148 654 140.5 660 c 128,-1,32
 133 666 133 666 134 669 c 0,33,34
 152 714 152 714 196 747 c 128,-1,35
 240 780 240 780 297 780 c 0,36,37
 360 780 360 780 408 737 c 128,-1,38
 456 694 456 694 456 634 c 0,39,40
 456 573 456 573 440 529.5 c 128,-1,41
 424 486 424 486 393 435 c 0,42,43
 371 399 371 399 344.5 343.5 c 128,-1,44
 318 288 318 288 287 219.5 c 128,-1,45
 256 151 256 151 246 129 c 1,46,47
 257 127 257 127 269 117 c 128,-1,48
 281 107 281 107 299.5 87 c 128,-1,49
 318 67 318 67 327 59 c 0,50,51
 351 36 351 36 379 34.5 c 128,-1,52
 407 33 407 33 432 48 c 128,-1,53
 457 63 457 63 473 77 c 128,-1,54
 489 91 489 91 502 107 c 0,0,1
157 41 m 0,55,56
 163 45 163 45 169.5 56 c 128,-1,57
 176 67 176 67 184.5 84.5 c 128,-1,58
 193 102 193 102 194 104 c 1,59,60
 133 125 133 125 113 92 c 0,61,62
 100 69 100 69 116 48 c 0,63,64
 131 30 131 30 157 41 c 0,55,56
EndSplineSet
EndChar

StartChar: three
Encoding: 51 51 22
Width: 438
Flags: W
LayerCount: 2
Fore
SplineSet
260 396 m 1,0,1
 286 412 286 412 317.5 490.5 c 128,-1,2
 349 569 349 569 349 632 c 0,3,4
 349 694 349 694 313.5 737 c 128,-1,5
 278 780 278 780 214 780 c 0,6,7
 160 780 160 780 122.5 743.5 c 128,-1,8
 85 707 85 707 85 632 c 0,9,10
 85 626 85 626 105.5 626 c 128,-1,11
 126 626 126 626 126 632 c 0,12,13
 126 737 126 737 212 737 c 0,14,15
 306 737 306 737 306 633 c 0,16,17
 306 571 306 571 271 497 c 128,-1,18
 236 423 236 423 197 397 c 1,19,20
 236 370 236 370 272 291.5 c 128,-1,21
 308 213 308 213 308 148 c 0,22,23
 308 43 308 43 214 43 c 0,24,25
 128 43 128 43 128 153 c 0,26,27
 128 156 128 156 118 157 c 128,-1,28
 108 158 108 158 97.5 156.5 c 128,-1,29
 87 155 87 155 87 152 c 0,30,31
 87 76 87 76 124.5 38.5 c 128,-1,32
 162 1 162 1 216 1 c 0,33,34
 280 1 280 1 315.5 44 c 128,-1,35
 351 87 351 87 351 149 c 0,36,37
 351 213 351 213 318 296.5 c 128,-1,38
 285 380 285 380 260 396 c 1,0,1
EndSplineSet
EndChar

StartChar: four
Encoding: 52 52 23
Width: 565
Flags: W
LayerCount: 2
Fore
SplineSet
329 778 m 2,0,1
 331 781 331 781 340.5 776.5 c 128,-1,2
 350 772 350 772 357.5 765 c 128,-1,3
 365 758 365 758 363 754 c 2,4,-1
 154 353 l 1,5,-1
 318 353 l 1,6,-1
 318 510 l 2,7,8
 318 515 318 515 337.5 515.5 c 128,-1,9
 357 516 357 516 358 511 c 2,10,-1
 358 353 l 1,11,-1
 511 353 l 2,12,13
 516 353 516 353 516 333.5 c 128,-1,14
 516 314 516 314 511 313 c 2,15,-1
 359 313 l 1,16,-1
 358 6 l 2,17,18
 358 0 358 0 338.5 0 c 128,-1,19
 319 0 319 0 318 6 c 2,20,-1
 318 313 l 1,21,-1
 81 313 l 1,22,-1
 329 778 l 2,0,1
EndSplineSet
EndChar

StartChar: five
Encoding: 53 53 24
Width: 529
Flags: W
LayerCount: 2
Fore
SplineSet
323 407 m 0,0,1
 371 389 371 389 393.5 347 c 128,-1,2
 416 305 416 305 416 230 c 0,3,4
 416 156 416 156 371.5 99 c 128,-1,5
 327 42 327 42 255 42 c 0,6,7
 213 42 213 42 177.5 74.5 c 128,-1,8
 142 107 142 107 131 141 c 0,9,10
 131 142 131 142 127 141 c 128,-1,11
 123 140 123 140 117 138 c 128,-1,12
 111 136 111 136 105.5 133.5 c 128,-1,13
 100 131 100 131 96.5 128.5 c 128,-1,14
 93 126 93 126 94 124 c 0,15,16
 111 75 111 75 154.5 37.5 c 128,-1,17
 198 0 198 0 253 0 c 0,18,19
 329 0 329 0 383 47.5 c 128,-1,20
 437 95 437 95 452.5 162.5 c 128,-1,21
 468 230 468 230 459 298 c 128,-1,22
 450 366 450 366 399.5 413.5 c 128,-1,23
 349 461 349 461 271 461 c 0,24,25
 176 461 176 461 129 414 c 1,26,-1
 129 739 l 1,27,-1
 436 739 l 2,28,29
 442 739 442 739 442.5 759.5 c 128,-1,30
 443 780 443 780 436 780 c 2,31,-1
 88 780 l 1,32,-1
 88 312 l 1,33,34
 101 343 101 343 141 372.5 c 128,-1,35
 181 402 181 402 229.5 413 c 128,-1,36
 278 424 278 424 323 407 c 0,0,1
EndSplineSet
EndChar

StartChar: six
Encoding: 54 54 25
Width: 495
Flags: W
LayerCount: 2
Fore
SplineSet
249 0 m 0,0,1
 71 0 71 0 69 242 c 0,2,3
 69 251 69 251 69 270 c 0,4,5
 69 336 69 336 69.5 371 c 128,-1,6
 70 406 70 406 73.5 468.5 c 128,-1,7
 77 531 77 531 84.5 567 c 128,-1,8
 92 603 92 603 107.5 649 c 128,-1,9
 123 695 123 695 144.5 719.5 c 128,-1,10
 166 744 166 744 200 762 c 128,-1,11
 234 780 234 780 278 780 c 0,12,13
 334 780 334 780 373.5 746 c 128,-1,14
 413 712 413 712 413 663 c 0,15,16
 413 661 413 661 404.5 659.5 c 128,-1,17
 396 658 396 658 387 658.5 c 128,-1,18
 378 659 378 659 378 661 c 0,19,20
 378 698 378 698 348 722.5 c 128,-1,21
 318 747 318 747 277 747 c 0,22,23
 108 747 108 747 108 378 c 1,24,25
 173 443 173 443 256 443 c 0,26,27
 304 443 304 443 342.5 418.5 c 128,-1,28
 381 394 381 394 401.5 355 c 128,-1,29
 422 316 422 316 431.5 269 c 128,-1,30
 441 222 441 222 431.5 174.5 c 128,-1,31
 422 127 422 127 401.5 88 c 128,-1,32
 381 49 381 49 341 24.5 c 128,-1,33
 301 0 301 0 249 0 c 0,0,1
255 402 m 0,34,35
 188 402 188 402 146 350 c 128,-1,36
 104 298 104 298 104 225 c 0,37,38
 104 147 104 147 140 92.5 c 128,-1,39
 176 38 176 38 243 38 c 0,40,41
 334 38 334 38 376 129 c 128,-1,42
 418 220 418 220 383.5 311 c 128,-1,43
 349 402 349 402 255 402 c 0,34,35
EndSplineSet
EndChar

StartChar: seven
Encoding: 55 55 26
Width: 454
Flags: W
LayerCount: 2
Fore
SplineSet
122 780 m 2,0,-1
 402 780 l 1,1,-1
 171 0 l 1,2,-1
 135 0 l 1,3,-1
 362 749 l 1,4,-1
 122 749 l 2,5,6
 118 749 118 749 117.5 764.5 c 128,-1,7
 117 780 117 780 122 780 c 2,0,-1
EndSplineSet
EndChar

StartChar: eight
Encoding: 56 56 27
Width: 332
Flags: W
LayerCount: 2
Fore
SplineSet
230 613 m 0,0,1
 230 738 230 738 173 738 c 0,2,3
 145 738 145 738 132.5 700 c 128,-1,4
 120 662 120 662 120 619 c 0,5,6
 120 536 120 536 172 468 c 1,7,8
 230 535 230 535 230 613 c 0,0,1
172 42 m 0,9,10
 208 42 208 42 227.5 97 c 128,-1,11
 247 152 247 152 247 210 c 0,12,13
 247 249 247 249 226 306.5 c 128,-1,14
 205 364 205 364 172 391 c 1,15,16
 140 367 140 367 115 316 c 128,-1,17
 90 265 90 265 90 214 c 0,18,19
 90 153 90 153 111.5 97.5 c 128,-1,20
 133 42 133 42 172 42 c 0,9,10
148 429 m 1,21,22
 81 505 81 505 81 630 c 0,23,24
 81 689 81 689 105 734.5 c 128,-1,25
 129 780 129 780 172 780 c 128,-1,26
 215 780 215 780 242.5 731 c 128,-1,27
 270 682 270 682 270 615 c 0,28,29
 270 562 270 562 246.5 509.5 c 128,-1,30
 223 457 223 457 193 429 c 1,31,32
 230 399 230 399 259 330.5 c 128,-1,33
 288 262 288 262 288 197 c 0,34,35
 288 153 288 153 276.5 110 c 128,-1,36
 265 67 265 67 237.5 33.5 c 128,-1,37
 210 0 210 0 172 0 c 0,38,39
 142 0 142 0 118 21 c 128,-1,40
 94 42 94 42 80 75 c 128,-1,41
 66 108 66 108 59 144 c 128,-1,42
 52 180 52 180 52 215 c 0,43,44
 52 278 52 278 80.5 336.5 c 128,-1,45
 109 395 109 395 148 429 c 1,21,22
EndSplineSet
EndChar

StartChar: nine
Encoding: 57 57 28
Width: 369
Flags: W
LayerCount: 2
Fore
SplineSet
193 474 m 0,0,1
 227 474 227 474 253 504 c 128,-1,2
 279 534 279 534 279 571 c 2,3,-1
 279 716 l 2,4,5
 277 727 277 727 257 733.5 c 128,-1,6
 237 740 237 740 218 740 c 0,7,8
 157 740 157 740 127.5 673.5 c 128,-1,9
 98 607 98 607 117.5 540.5 c 128,-1,10
 137 474 137 474 193 474 c 0,0,1
218 780 m 0,11,12
 248 780 248 780 280.5 766 c 128,-1,13
 313 752 313 752 313 732 c 2,14,-1
 313 7 l 2,15,16
 313 0 313 0 296.5 0 c 128,-1,17
 280 0 280 0 280 7 c 2,18,-1
 280 485 l 1,19,20
 239 439 239 439 190 439 c 0,21,22
 116 439 116 439 87 517 c 0,23,24
 60 592 60 592 90 675 c 256,25,26
 120 758 120 758 187 776 c 0,27,28
 202 780 202 780 218 780 c 0,11,12
EndSplineSet
EndChar

StartChar: greater
Encoding: 62 62 33
Width: 301
Flags: W
LayerCount: 2
Fore
SplineSet
50 444 m 2,0,-1
 267 293 l 1,1,-1
 52 152 l 2,2,3
 50 151 50 151 45 156 c 128,-1,4
 40 161 40 161 37 167.5 c 128,-1,5
 34 174 34 174 37 176 c 2,6,-1
 220 293 l 1,7,-1
 35 419 l 2,8,9
 32 421 32 421 34.5 428 c 128,-1,10
 37 435 37 435 42 440.5 c 128,-1,11
 47 446 47 446 50 444 c 2,0,-1
EndSplineSet
EndChar

StartChar: question
Encoding: 63 63 34
Width: 447
Flags: W
LayerCount: 2
Fore
SplineSet
261 711 m 0,0,1
 300 711 300 711 329.5 693.5 c 128,-1,2
 359 676 359 676 374 650 c 128,-1,3
 389 624 389 624 396.5 599.5 c 128,-1,4
 404 575 404 575 404 554 c 0,5,6
 404 520 404 520 386.5 486.5 c 128,-1,7
 369 453 369 453 349 432.5 c 128,-1,8
 329 412 329 412 302 387 c 128,-1,9
 275 362 275 362 267 352 c 0,10,11
 255 338 255 338 245.5 308.5 c 128,-1,12
 236 279 236 279 237 255 c 0,13,14
 237 253 237 253 228 252 c 128,-1,15
 219 251 219 251 209.5 252 c 128,-1,16
 200 253 200 253 200 255 c 0,17,18
 201 332 201 332 248 382 c 0,19,20
 258 393 258 393 296.5 428 c 128,-1,21
 335 463 335 463 350.5 489.5 c 128,-1,22
 366 516 366 516 366 553 c 0,23,24
 366 600 366 600 336 638 c 128,-1,25
 306 676 306 676 255 676 c 0,26,27
 201 676 201 676 163 640.5 c 128,-1,28
 125 605 125 605 120 577 c 0,29,30
 119 570 119 570 92 580 c 0,31,32
 80 586 80 586 80 590 c 0,33,34
 100 644 100 644 145.5 677.5 c 128,-1,35
 191 711 191 711 261 711 c 0,0,1
218 20 m 0,36,37
 193 20 193 20 183.5 39 c 128,-1,38
 174 58 174 58 184 77 c 128,-1,39
 194 96 194 96 219 96 c 0,40,41
 243 96 243 96 252.5 77 c 128,-1,42
 262 58 262 58 252 39 c 128,-1,43
 242 20 242 20 218 20 c 0,36,37
EndSplineSet
EndChar

StartChar: at
Encoding: 64 64 35
Width: 832
Flags: W
LayerCount: 2
Fore
SplineSet
436 0 m 0,0,1
 343 0 343 0 268 33.5 c 128,-1,2
 193 67 193 67 146.5 122 c 128,-1,3
 100 177 100 177 75 247 c 128,-1,4
 50 317 50 317 50 390 c 128,-1,5
 50 463 50 463 75 533 c 128,-1,6
 100 603 100 603 146 658 c 128,-1,7
 192 713 192 713 267.5 746.5 c 128,-1,8
 343 780 343 780 436 780 c 0,9,10
 596 780 596 780 678.5 675.5 c 128,-1,11
 761 571 761 571 761 389 c 0,12,13
 761 333 761 333 725 287 c 128,-1,14
 689 241 689 241 639 222 c 0,15,16
 560 191 560 191 477 279 c 1,17,18
 466 258 466 258 436 243 c 128,-1,19
 406 228 406 228 366 228 c 0,20,21
 330 228 330 228 303 242.5 c 128,-1,22
 276 257 276 257 263.5 279.5 c 128,-1,23
 251 302 251 302 245.5 330 c 128,-1,24
 240 358 240 358 247.5 385.5 c 128,-1,25
 255 413 255 413 269 435.5 c 128,-1,26
 283 458 283 458 308 472.5 c 128,-1,27
 333 487 333 487 363 487 c 0,28,29
 440 487 440 487 484 475 c 1,30,31
 497 361 497 361 495 322 c 0,32,33
 496 321 496 321 502 313.5 c 128,-1,34
 508 306 508 306 510 304 c 128,-1,35
 512 302 512 302 518 295 c 128,-1,36
 524 288 524 288 527 285.5 c 128,-1,37
 530 283 530 283 536.5 277 c 128,-1,38
 543 271 543 271 547.5 268.5 c 128,-1,39
 552 266 552 266 559 262 c 128,-1,40
 566 258 566 258 572 256.5 c 128,-1,41
 578 255 578 255 585.5 253.5 c 128,-1,42
 593 252 593 252 601 252 c 0,43,44
 644 252 644 252 686.5 298.5 c 128,-1,45
 729 345 729 345 729 389 c 0,46,47
 729 548 729 548 652 647 c 128,-1,48
 575 746 575 746 436 746 c 0,49,50
 341 746 341 746 266 706.5 c 128,-1,51
 191 667 191 667 152 604.5 c 128,-1,52
 113 542 113 542 94 466 c 128,-1,53
 75 390 75 390 93 314 c 128,-1,54
 111 238 111 238 150 175.5 c 128,-1,55
 189 113 189 113 264.5 73.5 c 128,-1,56
 340 34 340 34 437 34 c 0,57,58
 507 34 507 34 609 74.5 c 128,-1,59
 711 115 711 115 738 154 c 0,60,61
 744 160 744 160 754.5 150.5 c 128,-1,62
 765 141 765 141 762 135 c 0,63,64
 729 88 729 88 623 44 c 128,-1,65
 517 0 517 0 436 0 c 0,0,1
451 313 m 0,66,67
 455 337 455 337 452.5 379 c 128,-1,68
 450 421 450 421 443 445 c 1,69,70
 353 471 353 471 305 414 c 0,71,72
 270 373 270 373 283 323 c 256,73,74
 296 273 296 273 350 267 c 0,75,76
 356 266 356 266 363 266 c 0,77,78
 396 266 396 266 423.5 277.5 c 128,-1,79
 451 289 451 289 451 313 c 0,66,67
EndSplineSet
EndChar

StartChar: A
Encoding: 65 65 36
Width: 651
Flags: W
LayerCount: 2
Fore
SplineSet
321 780 m 1,0,-1
 576 8 l 2,1,2
 578 3 578 3 555 1 c 0,3,4
 540 -1 540 -1 539 2 c 2,5,-1
 423 348 l 1,6,-1
 224 348 l 1,7,-1
 120 3 l 2,8,9
 118 -4 118 -4 91 3 c 0,10,11
 79 7 79 7 79 11 c 2,12,-1
 321 780 l 1,0,-1
319 667 m 1,13,-1
 233 385 l 1,14,-1
 412 385 l 1,15,-1
 319 667 l 1,13,-1
EndSplineSet
EndChar

StartChar: B
Encoding: 66 66 37
Width: 529
Flags: W
LayerCount: 2
Fore
SplineSet
256 410 m 1,0,1
 353 408 353 408 411 343 c 128,-1,2
 469 278 469 278 469 189 c 0,3,4
 469 161 469 161 463 137.5 c 128,-1,5
 457 114 457 114 446 96.5 c 128,-1,6
 435 79 435 79 419.5 64.5 c 128,-1,7
 404 50 404 50 385 40 c 128,-1,8
 366 30 366 30 344 22.5 c 128,-1,9
 322 15 322 15 298 11.5 c 128,-1,10
 274 8 274 8 248 5 c 128,-1,11
 222 2 222 2 195.5 1.5 c 128,-1,12
 169 1 169 1 142.5 0 c 128,-1,13
 116 -1 116 -1 90 0 c 0,14,15
 72 0 72 0 63 0 c 1,16,-1
 63 780 l 1,17,-1
 144 780 l 2,18,19
 406 780 406 780 406 594 c 0,20,21
 406 414 406 414 256 410 c 1,0,1
104 743 m 1,22,-1
 104 431 l 1,23,24
 159 431 159 431 191 433 c 128,-1,25
 223 435 223 435 261 443.5 c 128,-1,26
 299 452 299 452 319 468 c 128,-1,27
 339 484 339 484 353 514.5 c 128,-1,28
 367 545 367 545 367 589 c 0,29,30
 367 628 367 628 352 656 c 128,-1,31
 337 684 337 684 313.5 700.5 c 128,-1,32
 290 717 290 717 254 727 c 128,-1,33
 218 737 218 737 183.5 740 c 128,-1,34
 149 743 149 743 104 743 c 1,22,-1
104 393 m 1,35,-1
 104 37 l 1,36,37
 109 37 109 37 118 37 c 0,38,39
 156 37 156 37 175.5 37.5 c 128,-1,40
 195 38 195 38 229.5 39.5 c 128,-1,41
 264 41 264 41 283 45 c 128,-1,42
 302 49 302 49 329 55.5 c 128,-1,43
 356 62 356 62 371 73 c 128,-1,44
 386 84 386 84 401 99.5 c 128,-1,45
 416 115 416 115 422.5 137 c 128,-1,46
 429 159 429 159 429 186 c 0,47,48
 429 237 429 237 413 274 c 128,-1,49
 397 311 397 311 369.5 333.5 c 128,-1,50
 342 356 342 356 299.5 369.5 c 128,-1,51
 257 383 257 383 211 388 c 128,-1,52
 165 393 165 393 104 393 c 1,35,-1
EndSplineSet
EndChar

StartChar: C
Encoding: 67 67 38
Width: 667
Flags: W
LayerCount: 2
Fore
SplineSet
538 664 m 1,0,1
 527 703 527 703 466.5 722 c 128,-1,2
 406 741 406 741 334 741 c 0,3,4
 260 741 260 741 202.5 686.5 c 128,-1,5
 145 632 145 632 117.5 553 c 128,-1,6
 90 474 90 474 90 390 c 0,7,8
 90 308 90 308 102.5 247.5 c 128,-1,9
 115 187 115 187 143 139.5 c 128,-1,10
 171 92 171 92 220.5 68 c 128,-1,11
 270 44 270 44 340 44 c 0,12,13
 439 44 439 44 493.5 73 c 128,-1,14
 548 102 548 102 562 175 c 0,15,16
 564 182 564 182 592 179 c 0,17,18
 606 177 606 177 605 173 c 0,19,20
 587 78 587 78 522.5 39.5 c 128,-1,21
 458 1 458 1 337 1 c 0,22,23
 191 1 191 1 121.5 106.5 c 128,-1,24
 52 212 52 212 52 389 c 0,25,26
 52 488 52 488 82.5 574.5 c 128,-1,27
 113 661 113 661 179.5 720 c 128,-1,28
 246 779 246 779 337 779 c 0,29,30
 552 779 552 779 577 670 c 0,31,32
 579 666 579 666 570 664 c 0,33,34
 548 659 548 659 538 664 c 1,0,1
EndSplineSet
EndChar

StartChar: D
Encoding: 68 68 39
Width: 606
Flags: W
LayerCount: 2
Fore
SplineSet
545 372 m 0,0,1
 545 236 545 236 498 152 c 128,-1,2
 451 68 451 68 354 30 c 0,3,4
 331 20 331 20 305 14 c 128,-1,5
 279 8 279 8 244 5 c 128,-1,6
 209 2 209 2 189 1 c 128,-1,7
 169 0 169 0 121 -1 c 128,-1,8
 73 -2 73 -2 59 -2 c 1,9,-1
 59 780 l 1,10,11
 251 780 251 780 348 740 c 0,12,13
 541 659 541 659 545 372 c 0,0,1
509 375 m 0,14,15
 509 447 509 447 493.5 514 c 128,-1,16
 478 581 478 581 450 618 c 0,17,18
 395 690 395 690 314.5 717 c 128,-1,19
 234 744 234 744 99 744 c 1,20,-1
 99 34 l 1,21,22
 247 34 247 34 321 54 c 0,23,24
 412 77 412 77 459.5 163.5 c 128,-1,25
 507 250 507 250 509 375 c 0,14,15
EndSplineSet
EndChar

StartChar: E
Encoding: 69 69 40
Width: 439
Flags: W
LayerCount: 2
Fore
SplineSet
60 780 m 1,0,-1
 373 780 l 2,1,2
 378 780 378 780 377.5 764 c 128,-1,3
 377 748 377 748 373 748 c 2,4,-1
 94 748 l 1,5,-1
 94 416 l 1,6,-1
 160 416 l 2,7,8
 162 416 162 416 162.5 407.5 c 128,-1,9
 163 399 163 399 162 390.5 c 128,-1,10
 161 382 161 382 159 382 c 2,11,-1
 95 382 l 1,12,-1
 95 35 l 1,13,-1
 373 35 l 2,14,15
 377 35 377 35 377 17.5 c 128,-1,16
 377 0 377 0 373 0 c 2,17,-1
 61 0 l 1,18,-1
 60 780 l 1,0,-1
EndSplineSet
EndChar

StartChar: F
Encoding: 70 70 41
Width: 366
Flags: W
LayerCount: 2
Fore
SplineSet
154 385 m 2,0,-1
 94 385 l 1,1,-1
 94 1 l 2,2,3
 94 -1 94 -1 85.5 -2 c 128,-1,4
 77 -3 77 -3 68.5 -2 c 128,-1,5
 60 -1 60 -1 60 0 c 2,6,-1
 60 780 l 1,7,-1
 312 780 l 2,8,9
 314 780 314 780 315 771.5 c 128,-1,10
 316 763 316 763 315.5 754.5 c 128,-1,11
 315 746 315 746 313 746 c 2,12,-1
 95 746 l 1,13,-1
 95 418 l 1,14,-1
 153 418 l 2,15,16
 155 418 155 418 156 410 c 128,-1,17
 157 402 157 402 156.5 393.5 c 128,-1,18
 156 385 156 385 154 385 c 2,0,-1
EndSplineSet
EndChar

StartChar: G
Encoding: 71 71 42
Width: 632
Flags: W
LayerCount: 2
Fore
SplineSet
591 387 m 1,0,1
 600 216 600 216 527 108.5 c 128,-1,2
 454 1 454 1 307 1 c 0,3,4
 190 1 190 1 115 105 c 128,-1,5
 40 209 40 209 40 385 c 0,6,7
 40 450 40 450 55 515.5 c 128,-1,8
 70 581 70 581 101 642 c 128,-1,9
 132 703 132 703 189.5 741.5 c 128,-1,10
 247 780 247 780 322 780 c 0,11,12
 405 780 405 780 457.5 758.5 c 128,-1,13
 510 737 510 737 543 689 c 0,14,15
 549 680 549 680 533 670 c 128,-1,16
 517 660 517 660 512 665 c 0,17,18
 478 708 478 708 438 724 c 128,-1,19
 398 740 398 740 322 740 c 0,20,21
 245 740 245 740 188 685.5 c 128,-1,22
 131 631 131 631 105 552.5 c 128,-1,23
 79 474 79 474 79 387 c 0,24,25
 79 219 79 219 146 129.5 c 128,-1,26
 213 40 213 40 308 40 c 0,27,28
 377 40 377 40 428.5 71 c 128,-1,29
 480 102 480 102 506 150.5 c 128,-1,30
 532 199 532 199 543.5 249 c 128,-1,31
 555 299 555 299 553 348 c 1,32,-1
 322 348 l 2,33,34
 320 348 320 348 319 358 c 128,-1,35
 318 368 318 368 319 377.5 c 128,-1,36
 320 387 320 387 321 387 c 2,37,-1
 591 387 l 1,0,1
EndSplineSet
EndChar

StartChar: H
Encoding: 72 72 43
Width: 477
Flags: W
LayerCount: 2
Fore
SplineSet
56 774 m 2,0,1
 56 778 56 778 66 779.5 c 128,-1,2
 76 781 76 781 86.5 779.5 c 128,-1,3
 97 778 97 778 97 775 c 2,4,-1
 97 390 l 1,5,-1
 373 390 l 1,6,-1
 373 776 l 2,7,8
 373 780 373 780 394 780 c 128,-1,9
 415 780 415 780 415 776 c 2,10,-1
 415 5 l 2,11,12
 415 0 415 0 393 0 c 128,-1,13
 371 0 371 0 371 5 c 2,14,-1
 371 350 l 1,15,-1
 97 350 l 1,16,-1
 97 4 l 2,17,18
 97 0 97 0 76.5 0 c 128,-1,19
 56 0 56 0 56 4 c 2,20,-1
 56 774 l 2,0,1
EndSplineSet
EndChar

StartChar: I
Encoding: 73 73 44
Width: 266
Flags: W
LayerCount: 2
Fore
SplineSet
194 780 m 2,0,1
 197 780 197 780 197 765 c 128,-1,2
 197 750 197 750 194 750 c 2,3,-1
 152 750 l 1,4,-1
 152 27 l 1,5,-1
 194 27 l 2,6,7
 197 27 197 27 197 13.5 c 128,-1,8
 197 0 197 0 194 0 c 2,9,-1
 74 0 l 2,10,11
 72 0 72 0 72 13.5 c 128,-1,12
 72 27 72 27 74 27 c 2,13,-1
 120 27 l 1,14,-1
 120 750 l 1,15,-1
 74 750 l 2,16,17
 72 750 72 750 71 757.5 c 128,-1,18
 70 765 70 765 71 772.5 c 128,-1,19
 72 780 72 780 73 780 c 2,20,-1
 194 780 l 2,0,1
EndSplineSet
EndChar

StartChar: J
Encoding: 74 74 45
Width: 349
Flags: W
LayerCount: 2
Fore
SplineSet
180 0 m 0,0,1
 68 0 68 0 68 119 c 0,2,3
 68 124 68 124 77 126 c 128,-1,4
 86 128 86 128 95.5 125.5 c 128,-1,5
 105 123 105 123 105 117 c 0,6,7
 105 74 105 74 122 55 c 128,-1,8
 139 36 139 36 180 36 c 0,9,10
 253 36 253 36 253 121 c 2,11,-1
 253 775 l 2,12,13
 253 780 253 780 270 780 c 128,-1,14
 287 780 287 780 287 775 c 2,15,-1
 287 107 l 2,16,17
 287 0 287 0 180 0 c 0,0,1
EndSplineSet
EndChar

StartChar: K
Encoding: 75 75 46
Width: 559
Flags: W
LayerCount: 2
Fore
SplineSet
489 748 m 2,0,-1
 196 424 l 1,1,-1
 466 23 l 2,2,3
 468 20 468 20 459.5 13 c 128,-1,4
 451 6 451 6 441 2 c 128,-1,5
 431 -2 431 -2 428 2 c 2,6,-1
 164 393 l 1,7,-1
 104 333 l 1,8,-1
 104 5 l 2,9,10
 104 0 104 0 84 0 c 128,-1,11
 64 0 64 0 64 5 c 2,12,-1
 63 774 l 2,13,14
 63 780 63 780 82.5 780 c 128,-1,15
 102 780 102 780 102 774 c 2,16,-1
 102 383 l 1,17,-1
 461 776 l 2,18,19
 468 783 468 783 482 769 c 128,-1,20
 496 755 496 755 489 748 c 2,0,-1
EndSplineSet
EndChar

StartChar: L
Encoding: 76 76 47
Width: 420
Flags: W
LayerCount: 2
Fore
SplineSet
376 39 m 2,0,1
 381 39 381 39 381 19.5 c 128,-1,2
 381 0 381 0 376 0 c 2,3,-1
 52 0 l 1,4,-1
 52 775 l 2,5,6
 52 780 52 780 70 780 c 128,-1,7
 88 780 88 780 88 775 c 2,8,-1
 88 39 l 1,9,-1
 376 39 l 2,0,1
EndSplineSet
EndChar

StartChar: M
Encoding: 77 77 48
Width: 625
Flags: W
LayerCount: 2
Fore
SplineSet
62 3 m 2,0,-1
 62 780 l 1,1,-1
 306 467 l 1,2,-1
 569 780 l 1,3,-1
 569 5 l 2,4,5
 569 2 569 2 561 1 c 128,-1,6
 553 0 553 0 545 1 c 128,-1,7
 537 2 537 2 537 5 c 2,8,-1
 538 693 l 1,9,-1
 304 417 l 1,10,-1
 95 686 l 1,11,-1
 94 3 l 2,12,13
 94 0 94 0 78 0 c 128,-1,14
 62 0 62 0 62 3 c 2,0,-1
EndSplineSet
EndChar

StartChar: N
Encoding: 78 78 49
Width: 577
Flags: W
LayerCount: 2
Fore
SplineSet
73 780 m 1,0,-1
 474 129 l 1,1,-1
 473 776 l 2,2,3
 473 778 473 778 481.5 779 c 128,-1,4
 490 780 490 780 498.5 779 c 128,-1,5
 507 778 507 778 507 776 c 2,6,-1
 508 4 l 1,7,-1
 107 665 l 1,8,-1
 107 6 l 2,9,10
 107 3 107 3 98.5 1.5 c 128,-1,11
 90 0 90 0 81.5 1 c 128,-1,12
 73 2 73 2 73 5 c 2,13,-1
 73 780 l 1,0,-1
EndSplineSet
EndChar

StartChar: O
Encoding: 79 79 50
Width: 661
Flags: W
LayerCount: 2
Fore
SplineSet
329 779 m 0,0,1
 458 779 458 779 530 668 c 128,-1,2
 602 557 602 557 602 401 c 0,3,4
 602 325 602 325 585.5 255 c 128,-1,5
 569 185 569 185 537 126.5 c 128,-1,6
 505 68 505 68 451 33.5 c 128,-1,7
 397 -1 397 -1 329 -1 c 0,8,9
 259 -1 259 -1 206.5 33.5 c 128,-1,10
 154 68 154 68 125 127.5 c 128,-1,11
 96 187 96 187 82.5 255 c 128,-1,12
 69 323 69 323 69 401 c 0,13,14
 69 503 69 503 97 587 c 128,-1,15
 125 671 125 671 185 725 c 128,-1,16
 245 779 245 779 329 779 c 0,0,1
329 747 m 0,17,18
 254 747 254 747 199.5 695 c 128,-1,19
 145 643 145 643 121 566.5 c 128,-1,20
 97 490 97 490 97 401 c 0,21,22
 97 334 97 334 110.5 270.5 c 128,-1,23
 124 207 124 207 150.5 151.5 c 128,-1,24
 177 96 177 96 223.5 62 c 128,-1,25
 270 28 270 28 329 28 c 0,26,27
 389 28 389 28 437 62 c 128,-1,28
 485 96 485 96 512.5 151.5 c 128,-1,29
 540 207 540 207 554.5 271 c 128,-1,30
 569 335 569 335 569 401 c 0,31,32
 569 490 569 490 543.5 567 c 128,-1,33
 518 644 518 644 462 695.5 c 128,-1,34
 406 747 406 747 329 747 c 0,17,18
EndSplineSet
EndChar

StartChar: P
Encoding: 80 80 51
Width: 409
Flags: W
LayerCount: 2
Fore
SplineSet
65 780 m 1,0,1
 204 780 204 780 277.5 733 c 128,-1,2
 351 686 351 686 351 573 c 0,3,4
 351 469 351 469 289 429.5 c 128,-1,5
 227 390 227 390 101 390 c 1,6,-1
 101 4 l 2,7,8
 101 0 101 0 83.5 0 c 128,-1,9
 66 0 66 0 66 4 c 2,10,-1
 65 780 l 1,0,1
101 740 m 1,11,-1
 102 426 l 1,12,13
 316 426 316 426 316 573 c 0,14,15
 316 657 316 657 251.5 698.5 c 128,-1,16
 187 740 187 740 101 740 c 1,11,-1
EndSplineSet
EndChar

StartChar: Q
Encoding: 81 81 52
Width: 669
Flags: W
LayerCount: 2
Fore
SplineSet
329 28 m 1,0,1
 270 28 270 28 223.5 62 c 128,-1,2
 177 96 177 96 150.5 151.5 c 128,-1,3
 124 207 124 207 110.5 270.5 c 128,-1,4
 97 334 97 334 97 401 c 0,5,6
 97 490 97 490 121 566.5 c 128,-1,7
 145 643 145 643 199.5 695 c 128,-1,8
 254 747 254 747 329 747 c 0,9,10
 406 747 406 747 461.5 695 c 128,-1,11
 517 643 517 643 542.5 566.5 c 128,-1,12
 568 490 568 490 568 401 c 0,13,14
 568 325 568 325 549.5 251 c 128,-1,15
 531 177 531 177 495 123 c 1,16,-1
 425 193 l 2,17,18
 423 195 423 195 416 189.5 c 128,-1,19
 409 184 409 184 404 177 c 128,-1,20
 399 170 399 170 400 169 c 2,21,-1
 472 96 l 1,22,23
 447 65 447 65 411.5 48 c 128,-1,24
 376 31 376 31 352 30 c 2,25,-1
 329 28 l 1,0,1
499 70 m 1,26,-1
 571 -2 l 2,27,28
 573 -5 573 -5 580.5 0.5 c 128,-1,29
 588 6 588 6 593 13 c 128,-1,30
 598 20 598 20 595 23 c 2,31,-1
 520 98 l 1,32,33
 602 210 602 210 602 401 c 0,34,35
 602 557 602 557 530 668 c 128,-1,36
 458 779 458 779 329 779 c 0,37,38
 245 779 245 779 185 725 c 128,-1,39
 125 671 125 671 97 587 c 128,-1,40
 69 503 69 503 69 401 c 0,41,42
 69 323 69 323 82.5 255 c 128,-1,43
 96 187 96 187 125 127.5 c 128,-1,44
 154 68 154 68 206.5 33.5 c 128,-1,45
 259 -1 259 -1 329 -1 c 0,46,47
 433 -1 433 -1 499 70 c 1,26,-1
EndSplineSet
EndChar

StartChar: R
Encoding: 82 82 53
Width: 431
Flags: W
LayerCount: 2
Fore
SplineSet
101 740 m 1,0,-1
 102 426 l 1,1,2
 316 426 316 426 316 573 c 0,3,4
 316 657 316 657 251.5 698.5 c 128,-1,5
 187 740 187 740 101 740 c 1,0,-1
65 780 m 1,6,7
 204 780 204 780 277.5 733 c 128,-1,8
 351 686 351 686 351 573 c 0,9,10
 351 469 351 469 289 429.5 c 0,11,12
 244.931843209 401.424319464 244.931843209 401.424319464 168.530659273 393.304179119 c 1,13,14
 180.675206127 384.780775175 180.675206127 384.780775175 195 373.5 c 0,15,16
 235 342 235 342 262 308 c 0,17,18
 362 183 362 183 362 7 c 0,19,20
 362 1 362 1 343 1.5 c 128,-1,21
 324 2 324 2 323 7 c 0,22,23
 321 18 321 18 317.5 45 c 128,-1,24
 314 72 314 72 312.5 81 c 128,-1,25
 311 90 311 90 307.5 110.5 c 128,-1,26
 304 131 304 131 300 141.5 c 128,-1,27
 296 152 296 152 290 169.5 c 128,-1,28
 284 187 284 187 276.5 202 c 128,-1,29
 269 217 269 217 258 235 c 0,30,31
 208 318 208 318 101 390 c 1,32,-1
 101 4 l 2,33,34
 101 0 101 0 83.5 0 c 128,-1,35
 66 0 66 0 66 4 c 2,36,-1
 65 780 l 1,6,7
EndSplineSet
EndChar

StartChar: S
Encoding: 83 83 54
Width: 539
Flags: W
LayerCount: 2
Fore
SplineSet
412 637 m 0,0,1
 401 684 401 684 363 715.5 c 128,-1,2
 325 747 325 747 272 747 c 0,3,4
 218 747 218 747 180 716 c 128,-1,5
 142 685 142 685 134 634 c 0,6,7
 120 538 120 538 162.5 486.5 c 128,-1,8
 205 435 205 435 302 410 c 0,9,10
 380 390 380 390 424 309 c 128,-1,11
 468 228 468 228 427 136 c 0,12,13
 402 79 402 79 357 39.5 c 128,-1,14
 312 0 312 0 248 0 c 0,15,16
 186 0 186 0 137 39 c 128,-1,17
 88 78 88 78 70 122 c 0,18,19
 67 130 67 130 83.5 139 c 128,-1,20
 100 148 100 148 104 141 c 0,21,22
 123 96 123 96 161 67 c 128,-1,23
 199 38 199 38 253 38 c 0,24,25
 319 38 319 38 378 134 c 0,26,27
 412 191 412 191 403.5 241 c 128,-1,28
 395 291 395 291 360.5 326.5 c 128,-1,29
 326 362 326 362 281 372 c 0,30,31
 215 386 215 386 171 418 c 128,-1,32
 127 450 127 450 111.5 490 c 128,-1,33
 96 530 96 530 93 577 c 128,-1,34
 90 624 90 624 104 666 c 0,35,36
 118 720 118 720 162.5 750 c 128,-1,37
 207 780 207 780 272 780 c 0,38,39
 338 780 338 780 383.5 744.5 c 128,-1,40
 429 709 429 709 447 643 c 0,41,42
 447 642 447 642 444 640 c 128,-1,43
 441 638 441 638 436 636.5 c 128,-1,44
 431 635 431 635 425.5 634 c 128,-1,45
 420 633 420 633 416.5 633.5 c 128,-1,46
 413 634 413 634 412 637 c 0,0,1
EndSplineSet
EndChar

StartChar: T
Encoding: 84 84 55
Width: 470
Flags: W
LayerCount: 2
Fore
SplineSet
46 780 m 2,0,-1
 408 780 l 2,1,2
 413 780 413 780 413 763 c 128,-1,3
 413 746 413 746 408 746 c 2,4,-1
 245 746 l 1,5,-1
 245 5 l 2,6,7
 245 0 245 0 228.5 0 c 128,-1,8
 212 0 212 0 212 5 c 2,9,-1
 212 746 l 1,10,-1
 46 746 l 2,11,12
 41 746 41 746 41 763 c 128,-1,13
 41 780 41 780 46 780 c 2,0,-1
EndSplineSet
EndChar

StartChar: U
Encoding: 85 85 56
Width: 471
Flags: W
LayerCount: 2
Fore
SplineSet
237 0 m 0,0,1
 156 0 156 0 107 42.5 c 128,-1,2
 58 85 58 85 58 160 c 2,3,-1
 58 775 l 2,4,5
 58 778 58 778 67.5 779 c 128,-1,6
 77 780 77 780 86.5 779 c 128,-1,7
 96 778 96 778 96 775 c 2,8,-1
 96 157 l 2,9,10
 96 99 96 99 133.5 69 c 128,-1,11
 171 39 171 39 235 39 c 0,12,13
 293 39 293 39 337 72.5 c 128,-1,14
 381 106 381 106 381 159 c 2,15,-1
 381 776 l 2,16,17
 381 780 381 780 399 780 c 128,-1,18
 417 780 417 780 417 776 c 2,19,-1
 417 160 l 2,20,21
 417 89 417 89 365 44.5 c 128,-1,22
 313 0 313 0 237 0 c 0,0,1
EndSplineSet
EndChar

StartChar: V
Encoding: 86 86 57
Width: 581
Flags: W
LayerCount: 2
Fore
SplineSet
73 778 m 2,0,-1
 290 90 l 1,1,-1
 497 778 l 2,2,3
 499 785 499 785 519 776 c 0,4,5
 527 773 527 773 527 770 c 2,6,-1
 291 1 l 1,7,-1
 46 772 l 2,8,9
 45 774 45 774 47.5 775.5 c 128,-1,10
 50 777 50 777 54 778 c 128,-1,11
 58 779 58 779 62 779.5 c 128,-1,12
 66 780 66 780 69 779.5 c 128,-1,13
 72 779 72 779 73 778 c 2,0,-1
EndSplineSet
EndChar

StartChar: W
Encoding: 87 87 58
Width: 648
Flags: W
LayerCount: 2
Fore
SplineSet
31 773 m 2,0,1
 31 775 31 775 39.5 777 c 128,-1,2
 48 779 48 779 56 779 c 128,-1,3
 64 779 64 779 66 777 c 2,4,-1
 185 108 l 1,5,-1
 324 460 l 1,6,-1
 447 96 l 1,7,-1
 574 776 l 2,8,9
 576 784 576 784 604 778 c 0,10,11
 615 776 615 776 614 773 c 2,12,-1
 451 2 l 1,13,-1
 324 388 l 1,14,-1
 175 2 l 1,15,-1
 31 773 l 2,0,1
EndSplineSet
EndChar

StartChar: X
Encoding: 88 88 59
Width: 478
Flags: W
LayerCount: 2
Fore
SplineSet
53 19 m 2,0,1
 52 17 52 17 58.5 11.5 c 128,-1,2
 65 6 65 6 73 2.5 c 128,-1,3
 81 -1 81 -1 82 1 c 2,4,-1
 235 363 l 1,5,-1
 388 1 l 2,6,7
 389 -1 389 -1 397 2.5 c 128,-1,8
 405 6 405 6 411.5 11.5 c 128,-1,9
 418 17 418 17 417 19 c 2,10,-1
 252 402 l 1,11,-1
 405 766 l 2,12,13
 406 768 406 768 401 772 c 128,-1,14
 396 776 396 776 389 778.5 c 128,-1,15
 382 781 382 781 381 779 c 2,16,-1
 233 448 l 1,17,-1
 89 779 l 2,18,19
 88 781 88 781 81 778.5 c 128,-1,20
 74 776 74 776 69 772 c 128,-1,21
 64 768 64 768 65 766 c 2,22,-1
 214 401 l 1,23,-1
 53 19 l 2,0,1
EndSplineSet
EndChar

StartChar: Y
Encoding: 89 89 60
Width: 468
Flags: W
LayerCount: 2
Fore
SplineSet
270 5 m 2,0,1
 270 0 270 0 252 0 c 128,-1,2
 234 0 234 0 234 5 c 2,3,-1
 234 508 l 1,4,-1
 50 759 l 2,5,6
 49 761 49 761 55 767 c 128,-1,7
 61 773 61 773 68.5 777 c 128,-1,8
 76 781 76 781 78 779 c 2,9,-1
 252 550 l 1,10,-1
 417 779 l 2,11,12
 418 781 418 781 426 776.5 c 128,-1,13
 434 772 434 772 440 765.5 c 128,-1,14
 446 759 446 759 445 758 c 2,15,-1
 270 507 l 1,16,-1
 270 5 l 2,0,1
EndSplineSet
EndChar

StartChar: Z
Encoding: 90 90 61
Width: 629
Flags: W
LayerCount: 2
Fore
SplineSet
579 34 m 2,0,1
 580 34 580 34 580.5 25.5 c 128,-1,2
 581 17 581 17 580.5 8.5 c 128,-1,3
 580 0 580 0 578 0 c 2,4,-1
 66 0 l 1,5,-1
 520 745 l 1,6,-1
 75 745 l 2,7,8
 72 745 72 745 72 762.5 c 128,-1,9
 72 780 72 780 75 780 c 2,10,-1
 580 780 l 1,11,-1
 126 34 l 1,12,-1
 579 34 l 2,0,1
EndSplineSet
EndChar

StartChar: bracketleft
Encoding: 91 91 62
Width: 245
Flags: W
LayerCount: 2
Fore
SplineSet
60 780 m 1,0,-1
 186 780 l 2,1,2
 192 780 192 780 192 764.5 c 128,-1,3
 192 749 192 749 186 749 c 2,4,-1
 85 749 l 1,5,-1
 85 29 l 1,6,-1
 172 29 l 2,7,8
 177 29 177 29 177 14.5 c 128,-1,9
 177 0 177 0 172 0 c 2,10,-1
 60 0 l 1,11,-1
 60 780 l 1,0,-1
EndSplineSet
EndChar

StartChar: underscore
Encoding: 95 95 65
Width: 481
Flags: W
LayerCount: 2
Fore
SplineSet
68 35 m 2,0,-1
 413 35 l 2,1,2
 418 35 418 35 418 17.5 c 128,-1,3
 418 0 418 0 413 0 c 2,4,-1
 68 0 l 2,5,6
 65 0 65 0 64.5 17.5 c 128,-1,7
 64 35 64 35 68 35 c 2,0,-1
EndSplineSet
EndChar

StartChar: a
Encoding: 97 97 67
Width: 382
Flags: W
LayerCount: 2
Fore
SplineSet
49 324 m 0,0,1
 59 351 59 351 89.5 368 c 128,-1,2
 120 385 120 385 161 385 c 0,3,4
 208 385 208 385 242.5 360.5 c 128,-1,5
 277 336 277 336 274 296 c 0,6,7
 269 217 269 217 278 149 c 0,8,9
 287 76 287 76 295 61 c 0,10,11
 312 28 312 28 326 33 c 0,12,13
 340 37 340 37 343 42 c 0,14,15
 348 51 348 51 360 37 c 0,16,17
 368 27 368 27 364 21 c 0,18,19
 352 -0 352 -0 324 0 c 0,20,21
 285 0 285 0 270 48 c 1,22,23
 245 23 245 23 218.5 11.5 c 128,-1,24
 192 0 192 0 149 0 c 0,25,26
 103 0 103 0 73 35 c 128,-1,27
 43 70 43 70 43 135 c 0,28,29
 43 182 43 182 77.5 210.5 c 128,-1,30
 112 239 112 239 161 239 c 0,31,32
 184 239 184 239 239 234 c 1,33,34
 244 257 244 257 240 297 c 0,35,36
 234 354 234 354 161 354 c 0,37,38
 111.2 354 111.2 354 80 315 c 0,39,40
 76 310 76 310 62.5 314 c 0,41,42
 47 319 47 319 49 324 c 0,0,1
241 197 m 1,43,44
 77 230 77 230 77 122 c 0,45,46
 77 76 77 76 102 54.5 c 128,-1,47
 127 33 127 33 164 33 c 0,48,49
 203 33 203 33 256 80 c 1,50,51
 244 118 244 118 241 197 c 1,43,44
EndSplineSet
EndChar

StartChar: c
Encoding: 99 99 69
Width: 349
Flags: W
LayerCount: 2
Fore
SplineSet
312 336 m 0,0,1
 313 335 313 335 306.5 329 c 128,-1,2
 300 323 300 323 292 318.5 c 128,-1,3
 284 314 284 314 283 316 c 0,4,5
 258 350 258 350 203 350 c 0,6,7
 154 350 154 350 115 304 c 128,-1,8
 76 258 76 258 76 196 c 0,9,10
 76 125 76 125 107 79 c 128,-1,11
 138 33 138 33 182 33 c 0,12,13
 210 33 210 33 229.5 41.5 c 128,-1,14
 249 50 249 50 256.5 58 c 128,-1,15
 264 66 264 66 279 87 c 0,16,17
 283 91 283 91 290.5 88 c 128,-1,18
 298 85 298 85 304.5 78 c 128,-1,19
 311 71 311 71 309 68 c 0,20,21
 292 44 292 44 280 32.5 c 128,-1,22
 268 21 268 21 243 10.5 c 128,-1,23
 218 0 218 0 183 0 c 0,24,25
 118 0 118 0 80 56 c 128,-1,26
 42 112 42 112 42 198 c 0,27,28
 42 269 42 269 85.5 327.5 c 128,-1,29
 129 386 129 386 198 386 c 0,30,31
 236 386 236 386 267.5 372 c 128,-1,32
 299 358 299 358 312 336 c 0,0,1
EndSplineSet
EndChar

StartChar: d
Encoding: 100 100 70
Width: 450
Flags: W
LayerCount: 2
Fore
SplineSet
354 777 m 2,0,1
 353.993055556 780 353.993055556 780 370 780 c 128,-1,2
 386 780 386 780 386 777 c 2,3,-1
 386 3 l 2,4,5
 386 0 386 0 370 0 c 128,-1,6
 354 0 354 0 354 3 c 2,7,-1
 354 49 l 1,8,9
 292 0 292 0 205 0 c 0,10,11
 148 0 148 0 103.5 61.5 c 128,-1,12
 59 123 59 123 59 193 c 0,13,14
 59 220 59 220 68 250 c 128,-1,15
 77 280 77 280 95.5 312.5 c 128,-1,16
 114 345 114 345 151.5 366 c 128,-1,17
 189 387 189 387 238 387 c 0,18,19
 293 387 293 387 355 345 c 1,20,-1
 354 777 l 2,0,1
206 32 m 0,21,22
 290 32 290 32 354 88 c 1,23,-1
 354 291 l 1,24,25
 340 315 340 315 304.5 335 c 128,-1,26
 269 355 269 355 238 355 c 0,27,28
 196 355 196 355 165 335.5 c 128,-1,29
 134 316 134 316 119 287 c 128,-1,30
 104 258 104 258 97 233.5 c 128,-1,31
 90 209 90 209 90 191 c 0,32,33
 90 119 90 119 130.5 75.5 c 128,-1,34
 171 32 171 32 206 32 c 0,21,22
EndSplineSet
EndChar

StartChar: e
Encoding: 101 101 71
Width: 374
Flags: W
LayerCount: 2
Fore
SplineSet
332 241 m 1,0,-1
 88 241 l 1,1,2
 73 169 73 169 103.5 101.5 c 128,-1,3
 134 34 134 34 195 34 c 0,4,5
 244 34 244 34 267 52 c 128,-1,6
 290 70 290 70 298 112 c 1,7,8
 303 114 303 114 319 111.5 c 128,-1,9
 335 109 335 109 335 105 c 0,10,11
 325 51 325 51 292 25.5 c 128,-1,12
 259 0 259 0 195 0 c 0,13,14
 77 0 77 0 54 151 c 0,15,16
 46 204 46 204 55 255.5 c 128,-1,17
 64 307 64 307 87 339 c 0,18,19
 122 386 122 386 190 387 c 0,20,21
 248 387 248 387 290 358 c 128,-1,22
 332 329 332 329 332 279 c 2,23,-1
 332 241 l 1,0,-1
294 276 m 1,24,25
 294 310 294 310 262 331.5 c 128,-1,26
 230 353 230 353 190 353 c 0,27,28
 156 353 156 353 126 328.5 c 128,-1,29
 96 304 96 304 96 276 c 1,30,-1
 294 276 l 1,24,25
EndSplineSet
EndChar

StartChar: f
Encoding: 102 102 72
Width: 279
Flags: W
LayerCount: 2
Fore
SplineSet
104 8 m 2,0,1
 104 4 104 4 87 4 c 128,-1,2
 70 4 70 4 70 8 c 2,3,-1
 70 375 l 1,4,-1
 29 375 l 2,5,6
 26 375 26 375 26.5 391.5 c 128,-1,7
 27 408 27 408 29 408 c 2,8,-1
 70 408 l 1,9,-1
 70 690 l 2,10,11
 70 725 70 725 88 754 c 128,-1,12
 106 783 106 783 140 783 c 0,13,14
 154 783 154 783 165.5 779.5 c 128,-1,15
 177 776 177 776 182.5 772.5 c 128,-1,16
 188 769 188 769 201 759 c 0,17,18
 204 756 204 756 199.5 747 c 128,-1,19
 195 738 195 738 188 731.5 c 128,-1,20
 181 725 181 725 178 728 c 0,21,22
 161 745 161 745 141 745 c 0,23,24
 104 745 104 745 104 673 c 2,25,-1
 104 408 l 1,26,-1
 175 408 l 2,27,28
 179 408 179 408 179 391.5 c 128,-1,29
 179 375 179 375 175 375 c 2,30,-1
 104 375 l 1,31,-1
 104 8 l 2,0,1
EndSplineSet
EndChar

StartChar: g
Encoding: 103 103 73
Width: 440
Flags: W
LayerCount: 2
Fore
SplineSet
374 -24 m 2,0,1
 374 -87 374 -87 326 -125 c 128,-1,2
 278 -163 278 -163 207 -163 c 0,3,4
 118 -163 118 -163 61 -89 c 0,5,6
 58 -85 58 -85 63.5 -77 c 128,-1,7
 69 -69 69 -69 75.5 -62.5 c 128,-1,8
 82 -56 82 -56 83 -57 c 0,9,10
 109 -83 109 -83 120 -92.5 c 128,-1,11
 131 -102 131 -102 155 -113 c 128,-1,12
 179 -124 179 -124 207 -124 c 0,13,14
 254 -124 254 -124 296 -99 c 128,-1,15
 338 -74 338 -74 339 -24 c 0,16,17
 339 59 339 59 340 61 c 1,18,19
 316 35 316 35 278.5 17.5 c 128,-1,20
 241 0 241 0 207 0 c 4,21,22
 168 0 168 0 136 21 c 128,-1,23
 104 42 104 42 86.5 76 c 128,-1,24
 69 110 69 110 60.5 151 c 128,-1,25
 52 192 52 192 59 233 c 128,-1,26
 66 274 66 274 82 308 c 128,-1,27
 98 342 98 342 131 363 c 128,-1,28
 164 384 164 384 207 384 c 0,29,30
 289 384 289 384 339 331 c 1,31,-1
 339 378 l 2,32,33
 339 381 339 381 347.5 382 c 128,-1,34
 356 383 356 383 365 382 c 128,-1,35
 374 381 374 381 374 379 c 2,36,-1
 374 -24 l 2,0,1
207 348 m 0,37,38
 162 348 162 348 132.5 316 c 128,-1,39
 103 284 103 284 97 238 c 128,-1,40
 91 192 91 192 99 146.5 c 128,-1,41
 107 101 107 101 136.5 69 c 128,-1,42
 166 37 166 37 207 37 c 0,43,44
 256 37 256 37 296 71 c 128,-1,45
 336 105 336 105 336 157 c 2,46,-1
 336 263 l 2,47,48
 336 291 336 291 302 319.5 c 128,-1,49
 268 348 268 348 207 348 c 0,37,38
EndSplineSet
EndChar

StartChar: h
Encoding: 104 104 74
Width: 373
Flags: W
LayerCount: 2
Fore
SplineSet
184 354 m 0,0,1
 143 354 143 354 111.5 335.5 c 128,-1,2
 80 317 80 317 80 285 c 2,3,-1
 80 3 l 1,4,-1
 80 2 l 2,5,6
 80 0 80 0 62.5 0 c 128,-1,7
 45 0 45 0 45 2 c 2,8,-1
 45 3 l 1,9,-1
 45 296 l 1,10,-1
 45 777 l 2,11,12
 45 779 45 779 62.5 779 c 128,-1,13
 80 779 80 779 80 777 c 2,14,-1
 80 357.677421846 l 1,15,16
 82.8813938498 359.636442666 82.8813938498 359.636442666 86 361.5 c 0,17,18
 127 386 127 386 184 386 c 0,19,20
 246 386 246 386 284 363.5 c 128,-1,21
 322 341 322 341 322 298 c 2,22,-1
 322 4 l 2,23,24
 322 0 322 0 304.5 0 c 128,-1,25
 287 0 287 0 287 4 c 2,26,-1
 287 288 l 2,27,28
 287 352 287 352 184 354 c 0,0,1
EndSplineSet
EndChar

StartChar: k
Encoding: 107 107 77
Width: 344
Flags: W
LayerCount: 2
Fore
SplineSet
96 4 m 2,0,1
 96 0 96 0 80.5 0 c 128,-1,2
 65 0 65 0 65 4 c 2,3,-1
 65 776 l 2,4,5
 65 780 65 780 80.5 780 c 128,-1,6
 96 780 96 780 96 776 c 2,7,-1
 96 227 l 1,8,-1
 247 389 l 2,9,10
 249 391 249 391 256 387 c 128,-1,11
 263 383 263 383 268 377 c 128,-1,12
 273 371 273 371 270 368 c 2,13,-1
 119 204 l 1,14,-1
 309 25 l 2,15,16
 311 23 311 23 306.5 16.5 c 128,-1,17
 302 10 302 10 296 5 c 128,-1,18
 290 0 290 0 288 2 c 2,19,-1
 96 181 l 1,20,-1
 96 4 l 2,0,1
EndSplineSet
EndChar

StartChar: l
Encoding: 108 108 78
Width: 228
Flags: W
LayerCount: 2
Fore
SplineSet
122 0 m 0,0,1
 87 0 87 0 69.5 26 c 128,-1,2
 52 52 52 52 52 93 c 2,3,-1
 52 775 l 2,4,5
 52 780 52 780 69 780 c 128,-1,6
 86 780 86 780 86 775 c 2,7,-1
 86 110 l 2,8,9
 86 38 86 38 123 38 c 0,10,11
 143 38 143 38 160 55 c 0,12,13
 163 58 163 58 170 51.5 c 128,-1,14
 177 45 177 45 181.5 36 c 128,-1,15
 186 27 186 27 183 24 c 0,16,17
 170 14 170 14 164.5 10.5 c 128,-1,18
 159 7 159 7 147.5 3.5 c 128,-1,19
 136 0 136 0 122 0 c 0,0,1
EndSplineSet
EndChar

StartChar: m
Encoding: 109 109 79
Width: 611
Flags: W
LayerCount: 2
Fore
SplineSet
187 354 m 0,0,1
 146 354 146 354 114.5 335.5 c 128,-1,2
 83 317 83 317 83 285 c 2,3,-1
 83 3 l 2,4,5
 83 0 83 0 65.5 0 c 128,-1,6
 48 0 48 0 48 3 c 2,7,-1
 48 296 l 2,8,9
 48 337 48 337 89 361.5 c 128,-1,10
 130 386 130 386 187 386 c 0,11,12
 249 386 249 386 287 363.5 c 0,13,14
 300.682695168 355.398404177 300.682695168 355.398404177 309.438649624 344.63896139 c 1,15,16
 318.23091629 353.869693881 318.23091629 353.869693881 331 361.5 c 0,17,18
 372 386 372 386 429 386 c 0,19,20
 491 386 491 386 529 363.5 c 128,-1,21
 567 341 567 341 567 298 c 2,22,-1
 567 4 l 2,23,24
 567 0 567 0 549.5 0 c 128,-1,25
 532 0 532 0 532 4 c 2,26,-1
 532 288 l 2,27,28
 532 352 532 352 429 354 c 0,29,30
 388 354 388 354 356.5 335.5 c 128,-1,31
 325 317 325 317 325 285 c 2,32,-1
 325 4 l 1,33,-1
 325 3 l 2,34,35
 325 0 325 0 307.5 0 c 128,-1,36
 290 0 290 0 290 3 c 2,37,-1
 290 4 l 1,38,-1
 290 288 l 2,39,40
 290 352 290 352 187 354 c 0,0,1
EndSplineSet
EndChar

StartChar: n
Encoding: 110 110 80
Width: 392
Flags: W
LayerCount: 2
Fore
SplineSet
199 354 m 0,0,1
 158 354 158 354 126.5 335.5 c 128,-1,2
 95 317 95 317 95 285 c 2,3,-1
 95 3 l 2,4,5
 95 0 95 0 77.5 0 c 128,-1,6
 60 0 60 0 60 3 c 2,7,-1
 60 296 l 2,8,9
 60 337 60 337 101 361.5 c 128,-1,10
 142 386 142 386 199 386 c 0,11,12
 261 386 261 386 299 363.5 c 128,-1,13
 337 341 337 341 337 298 c 2,14,-1
 337 4 l 2,15,16
 337 0 337 0 319.5 0 c 128,-1,17
 302 0 302 0 302 4 c 2,18,-1
 302 288 l 2,19,20
 302 352 302 352 199 354 c 0,0,1
EndSplineSet
EndChar

StartChar: o
Encoding: 111 111 81
Width: 392
Flags: W
LayerCount: 2
Fore
SplineSet
30 187 m 0,0,1
 30 276 30 276 72.5 331 c 128,-1,2
 115 386 115 386 198 386 c 0,3,4
 282 386 282 386 323.5 331.5 c 128,-1,5
 365 277 365 277 365 187 c 0,6,7
 365 96 365 96 323 48 c 128,-1,8
 281 0 281 0 198 0 c 0,9,10
 114 0 114 0 72 55 c 128,-1,11
 30 110 30 110 30 187 c 0,0,1
63 187 m 0,12,13
 63 123 63 123 103.5 78.5 c 128,-1,14
 144 34 144 34 198 34 c 0,15,16
 260 34 260 34 296 74.5 c 128,-1,17
 332 115 332 115 332 187 c 0,18,19
 332 256 332 256 299.5 304 c 128,-1,20
 267 352 267 352 199 352 c 0,21,22
 134 352 134 352 98.5 305 c 128,-1,23
 63 258 63 258 63 187 c 0,12,13
EndSplineSet
EndChar

StartChar: p
Encoding: 112 112 82
Width: 440
Flags: W
LayerCount: 2
Fore
SplineSet
101 -242 m 2,0,1
 101 -244 101 -244 92 -244.5 c 128,-1,2
 83 -245 83 -245 74.5 -244.5 c 128,-1,3
 66 -244 66 -244 66 -242 c 2,4,-1
 66 388 l 1,5,-1
 121 388 l 2,6,7
 186 388 186 388 232 380.5 c 128,-1,8
 278 373 278 373 318 353 c 128,-1,9
 358 333 358 333 378.5 293 c 128,-1,10
 399 253 399 253 399 194 c 0,11,12
 399 143 399 143 383 107 c 128,-1,13
 367 71 367 71 342.5 50.5 c 128,-1,14
 318 30 318 30 276.5 18.5 c 128,-1,15
 235 7 235 7 196 3.5 c 128,-1,16
 157 0 157 0 101 0 c 1,17,-1
 101 -242 l 2,0,1
102 353 m 1,18,-1
 102 36 l 1,19,20
 229 36 229 36 296 69.5 c 128,-1,21
 363 103 363 103 363 189 c 0,22,23
 363 284 363 284 300.5 318.5 c 128,-1,24
 238 353 238 353 102 353 c 1,18,-1
EndSplineSet
EndChar

StartChar: r
Encoding: 114 114 84
Width: 354
Flags: W
LayerCount: 2
Fore
SplineSet
44 4 m 2,0,-1
 44 382 l 2,1,2
 44 386 44 386 61.5 386 c 128,-1,3
 79 386 79 386 79 382 c 2,4,-1
 79 297 l 1,5,6
 110 342 110 342 137 364 c 128,-1,7
 164 386 164 386 207 386 c 0,8,9
 246 386 246 386 270.5 373.5 c 128,-1,10
 295 361 295 361 318 334 c 0,11,12
 327 324 327 324 313 311.5 c 128,-1,13
 299 299 299 299 290 308 c 0,14,15
 289 309 289 309 286 312 c 0,16,17
 272 326 272 326 264.5 332 c 128,-1,18
 257 338 257 338 242 343.5 c 128,-1,19
 227 349 227 349 207 349 c 0,20,21
 173 349 173 349 143.5 320 c 128,-1,22
 114 291 114 291 95 254 c 0,23,24
 79 222 79 222 79 207 c 2,25,-1
 79 4 l 2,26,27
 79 0 79 0 61.5 0 c 128,-1,28
 44 0 44 0 44 4 c 2,0,-1
EndSplineSet
EndChar

StartChar: s
Encoding: 115 115 85
Width: 306
Flags: W
LayerCount: 2
Fore
SplineSet
268 108 m 2,0,1
 268 63 268 63 237.5 31.5 c 128,-1,2
 207 0 207 0 167 0 c 4,3,4
 118 0 118 0 94 18.5 c 0,5,6
 73 35 73 35 58 79 c 0,7,8
 56 85 56 85 64 88.5 c 128,-1,9
 72 92 72 92 80 91.5 c 0,10,11
 91 91 91 91 92 89 c 0,12,13
 111 53 111 53 119.5 46.5 c 0,14,15
 133 35 133 35 165 35 c 0,16,17
 192 35 192 35 213.5 57.5 c 128,-1,18
 235 80 235 80 235 108 c 0,19,20
 235 161 235 161 135 179 c 0,21,22
 88 187 88 187 69 213 c 128,-1,23
 50 239 50 239 50 288 c 0,24,25
 50 335 50 335 75.5 361 c 128,-1,26
 101 387 101 387 150 387 c 0,27,28
 254 387 254 387 254 296 c 0,29,30
 254 291 254 291 246 288 c 128,-1,31
 238 285 238 285 229.5 286.5 c 128,-1,32
 221 288 221 288 221 293 c 0,33,34
 214 328 214 328 200 341.5 c 128,-1,35
 186 355 186 355 150 355 c 0,36,37
 119 355 119 355 101.5 336.5 c 128,-1,38
 84 318 84 318 84 288 c 0,39,40
 84 264 84 264 90 248.5 c 128,-1,41
 96 233 96 233 112 224.5 c 128,-1,42
 128 216 128 216 140.5 213 c 128,-1,43
 153 210 153 210 181 205 c 0,44,45
 215 199 215 199 241.5 172.5 c 128,-1,46
 268 146 268 146 268 110 c 2,47,-1
 268 108 l 2,0,1
EndSplineSet
EndChar

StartChar: t
Encoding: 116 116 86
Width: 374
Flags: W
LayerCount: 2
Fore
SplineSet
286 33 m 0,0,1
 259 0 259 0 222 0 c 0,2,3
 188 0 188 0 174.5 21.5 c 128,-1,4
 161 43 161 43 161 64 c 2,5,-1
 161 348 l 1,6,-1
 61 348 l 2,7,8
 58 348 58 348 57 357 c 128,-1,9
 56 366 56 366 57 375 c 128,-1,10
 58 384 58 384 62 384 c 2,11,-1
 161 384 l 1,12,-1
 161 386 l 1,13,-1
 161 519 l 2,14,15
 161 522 161 522 179 522 c 128,-1,16
 197 522 197 522 197 519 c 2,17,-1
 197 386 l 1,18,-1
 197 384 l 1,19,-1
 297 384 l 2,20,21
 303 384 303 384 302.5 366 c 128,-1,22
 302 348 302 348 297 348 c 2,23,-1
 197 348 l 1,24,-1
 197 64 l 2,25,26
 197 53 197 53 204.5 45.5 c 128,-1,27
 212 38 212 38 222 38 c 0,28,29
 230 38 230 38 236 40 c 128,-1,30
 242 42 242 42 244.5 44 c 128,-1,31
 247 46 247 46 252 51 c 128,-1,32
 257 56 257 56 260 59 c 0,33,34
 265 63 265 63 277.5 50.5 c 128,-1,35
 290 38 290 38 286 33 c 0,0,1
EndSplineSet
EndChar

StartChar: v
Encoding: 118 118 88
Width: 428
Flags: W
LayerCount: 2
Fore
SplineSet
52 377 m 2,0,1
 51 379 51 379 57 382 c 0,2,3
 79 391 79 391 86 386 c 1,4,-1
 231 86 l 1,5,-1
 354 384 l 2,6,7
 355 386 355 386 362.5 384 c 128,-1,8
 370 382 370 382 377 377.5 c 128,-1,9
 384 373 384 373 383 371 c 2,10,-1
 233 2 l 1,11,-1
 52 377 l 2,0,1
EndSplineSet
EndChar

StartChar: w
Encoding: 119 119 89
Width: 650
Flags: W
LayerCount: 2
Fore
SplineSet
28 368 m 2,0,1
 27 370 27 370 34.5 375 c 128,-1,2
 42 380 42 380 51 383 c 128,-1,3
 60 386 60 386 61 383 c 2,4,-1
 201 87 l 1,5,-1
 339 384 l 1,6,-1
 471 90 l 1,7,-1
 570 384 l 2,8,9
 571 387 571 387 587.5 381.5 c 128,-1,10
 604 376 604 376 604 373 c 2,11,-1
 474 1 l 1,12,-1
 337 303 l 1,13,-1
 201 1 l 1,14,-1
 28 368 l 2,0,1
EndSplineSet
EndChar

StartChar: x
Encoding: 120 120 90
Width: 404
Flags: W
LayerCount: 2
Fore
SplineSet
99 390 m 2,0,-1
 218 231 l 1,1,-1
 333 388 l 2,2,3
 334 390 334 390 342.5 386 c 128,-1,4
 351 382 351 382 358 375.5 c 128,-1,5
 365 369 365 369 364 367 c 2,6,-1
 245 198 l 1,7,-1
 374 28 l 2,8,9
 376 25 376 25 360 11.5 c 128,-1,10
 344 -2 344 -2 341 2 c 2,11,-1
 218 164 l 1,12,-1
 103 3 l 2,13,14
 102 1 102 1 92.5 4.5 c 128,-1,15
 83 8 83 8 75.5 13 c 128,-1,16
 68 18 68 18 69 20 c 2,17,-1
 190 196 l 1,18,-1
 66 367 l 2,19,20
 64 369 64 369 71.5 375.5 c 128,-1,21
 79 382 79 382 88 387 c 128,-1,22
 97 392 97 392 99 390 c 2,0,-1
EndSplineSet
EndChar

StartChar: y
Encoding: 121 121 91
Width: 486
Flags: W
LayerCount: 2
Fore
SplineSet
430 364 m 2,0,-1
 132 -256 l 2,1,2
 131 -258 131 -258 122.5 -255 c 128,-1,3
 114 -252 114 -252 107 -247 c 128,-1,4
 100 -242 100 -242 101 -240 c 2,5,-1
 211 -10 l 1,6,-1
 58 359 l 2,7,8
 57 362 57 362 66 367.5 c 128,-1,9
 75 373 75 373 84 375 c 128,-1,10
 93 377 93 377 95 375 c 2,11,-1
 235 32 l 1,12,-1
 397 375 l 2,13,14
 398 376 398 376 401.5 376 c 128,-1,15
 405 376 405 376 410 374 c 128,-1,16
 415 372 415 372 419.5 370 c 128,-1,17
 424 368 424 368 427 366.5 c 128,-1,18
 430 365 430 365 430 364 c 2,0,-1
EndSplineSet
EndChar

StartChar: z
Encoding: 122 122 92
Width: 468
Flags: W
LayerCount: 2
Fore
SplineSet
80 386 m 2,0,-1
 419 386 l 1,1,-1
 149 35 l 1,2,-1
 416 35 l 2,3,4
 418 35 418 35 418 17.5 c 128,-1,5
 418 0 418 0 416 0 c 2,6,-1
 77 0 l 1,7,-1
 349 352 l 1,8,-1
 80 352 l 2,9,10
 75 352 75 352 75.5 369 c 128,-1,11
 76 386 76 386 80 386 c 2,0,-1
EndSplineSet
EndChar

StartChar: braceleft
Encoding: 123 123 93
Width: 304
Flags: W
LayerCount: 2
Fore
SplineSet
262 42 m 0,0,1
 265 42 265 42 265.5 31.5 c 128,-1,2
 266 21 266 21 265 10.5 c 128,-1,3
 264 0 264 0 263 0 c 0,4,5
 133 0 133 0 110 74 c 0,6,7
 100 109 100 109 110 162.5 c 128,-1,8
 120 216 120 216 134 248 c 0,9,10
 152 292 152 292 139.5 324.5 c 128,-1,11
 127 357 127 357 91 376 c 0,12,13
 68 388 68 388 68 392 c 128,-1,14
 68 396 68 396 70 399 c 128,-1,15
 72 402 72 402 76 405 c 128,-1,16
 80 408 80 408 83.5 410 c 128,-1,17
 87 412 87 412 93 415 c 128,-1,18
 99 418 99 418 102 420 c 0,19,20
 128 435 128 435 146.5 457.5 c 128,-1,21
 165 480 165 480 165 499 c 0,22,23
 165 523 165 523 133 591.5 c 128,-1,24
 101 660 101 660 101 677 c 0,25,26
 101 738 101 738 142 759 c 128,-1,27
 183 780 183 780 262 780 c 0,28,29
 265 780 265 780 265 761.5 c 128,-1,30
 265 743 265 743 262 743 c 0,31,32
 186 743 186 743 155.5 717.5 c 128,-1,33
 125 692 125 692 159 625 c 0,34,35
 205 538 205 538 205 500 c 0,36,37
 205 447 205 447 137 391 c 1,38,39
 209 347 209 347 172 237 c 0,40,41
 124 96 124 96 167 65 c 0,42,43
 199 42 199 42 262 42 c 0,0,1
EndSplineSet
EndChar

StartChar: bar
Encoding: 124 124 94
Width: 196
Flags: W
LayerCount: 2
Fore
SplineSet
60 2 m 2,0,-1
 60 777 l 2,1,2
 60 779 60 779 77.5 779 c 128,-1,3
 95 779 95 779 95 777 c 2,4,-1
 95 2 l 2,5,6
 95 0 95 0 77.5 0 c 128,-1,7
 60 0 60 0 60 2 c 2,0,-1
EndSplineSet
EndChar

StartChar: asciitilde
Encoding: 126 126 96
Width: 478
Flags: W
LayerCount: 2
Fore
SplineSet
301 469 m 0,0,1
 275 469 275 469 236 492 c 128,-1,2
 197 515 197 515 176 515 c 0,3,4
 147 515 147 515 105 470 c 0,5,6
 103 468 103 468 96 472.5 c 128,-1,7
 89 477 89 477 83.5 483.5 c 128,-1,8
 78 490 78 490 81 493 c 0,9,10
 129 547 129 547 177 547 c 0,11,12
 202 547 202 547 242 523 c 128,-1,13
 282 499 282 499 299 499 c 0,14,15
 358 499 358 499 385 545 c 0,16,17
 388 547 388 547 395 545.5 c 128,-1,18
 402 544 402 544 408.5 539.5 c 128,-1,19
 415 535 415 535 414 532 c 0,20,21
 398 502 398 502 365.5 485.5 c 128,-1,22
 333 469 333 469 301 469 c 0,0,1
EndSplineSet
EndChar

StartChar: copyright
Encoding: 169 169 100
Width: 558
Flags: W
LayerCount: 2
Fore
SplineSet
283 733 m 0,0,1
 346 733 346 733 396.5 708 c 128,-1,2
 447 683 447 683 473 643 c 128,-1,3
 499 603 499 603 511.5 555 c 128,-1,4
 524 507 524 507 512 458.5 c 128,-1,5
 500 410 500 410 474 370 c 128,-1,6
 448 330 448 330 396.5 305 c 128,-1,7
 345 280 345 280 280 280 c 0,8,9
 232 280 232 280 192.5 295.5 c 128,-1,10
 153 311 153 311 127.5 337 c 128,-1,11
 102 363 102 363 84 397 c 128,-1,12
 66 431 66 431 62.5 468.5 c 128,-1,13
 59 506 59 506 63 544 c 128,-1,14
 67 582 67 582 85.5 616 c 128,-1,15
 104 650 104 650 129.5 676 c 128,-1,16
 155 702 155 702 195 717.5 c 128,-1,17
 235 733 235 733 283 733 c 0,0,1
281 696 m 0,18,19
 231 696 231 696 191.5 675 c 128,-1,20
 152 654 152 654 131.5 620.5 c 128,-1,21
 111 587 111 587 101 546.5 c 128,-1,22
 91 506 91 506 100.5 465.5 c 128,-1,23
 110 425 110 425 130 391.5 c 128,-1,24
 150 358 150 358 190.5 337 c 128,-1,25
 231 316 231 316 282 316 c 0,26,27
 337 316 337 316 379 337 c 128,-1,28
 421 358 421 358 442.5 391.5 c 128,-1,29
 464 425 464 425 473.5 465.5 c 128,-1,30
 483 506 483 506 472 546.5 c 128,-1,31
 461 587 461 587 439 620.5 c 128,-1,32
 417 654 417 654 375.5 675 c 128,-1,33
 334 696 334 696 281 696 c 0,18,19
282 405 m 0,34,35
 315 405 315 405 335 440 c 0,36,37
 338 443 338 443 347.5 441.5 c 128,-1,38
 357 440 357 440 366 435 c 128,-1,39
 375 430 375 430 373 427 c 0,40,41
 355 397 355 397 335.5 384.5 c 128,-1,42
 316 372 316 372 283 372 c 128,-1,43
 250 372 250 372 224 387 c 128,-1,44
 198 402 198 402 184.5 426.5 c 128,-1,45
 171 451 171 451 164.5 480 c 128,-1,46
 158 509 158 509 164.5 538 c 128,-1,47
 171 567 171 567 184.5 591.5 c 128,-1,48
 198 616 198 616 225 631 c 128,-1,49
 252 646 252 646 286 646 c 0,50,51
 334 646 334 646 361 602 c 0,52,53
 364 598 364 598 356.5 592 c 128,-1,54
 349 586 349 586 339.5 582.5 c 128,-1,55
 330 579 330 579 329 581 c 0,56,57
 320 606 320 606 283 606 c 0,58,59
 247 606 247 606 225 585.5 c 128,-1,60
 203 565 203 565 199.5 535.5 c 128,-1,61
 196 506 196 506 202.5 476 c 128,-1,62
 209 446 209 446 231 425.5 c 128,-1,63
 253 405 253 405 282 405 c 0,34,35
EndSplineSet
EndChar

StartChar: cedilla
Encoding: 184 184 104
Width: 260
Flags: W
LayerCount: 2
Fore
SplineSet
114 3 m 2,0,1
 114 3 114 3 113 0.5 c 128,-1,2
 112 -2 112 -2 111 -6.5 c 128,-1,3
 110 -11 110 -11 108.5 -16.5 c 128,-1,4
 107 -22 107 -22 105 -29 c 128,-1,5
 103 -36 103 -36 101 -42 c 0,6,7
 101 -43 101 -43 98 -51 c 128,-1,8
 95 -59 95 -59 93 -64.5 c 128,-1,9
 91 -70 91 -70 92 -76.5 c 128,-1,10
 93 -83 93 -83 99 -85.5 c 128,-1,11
 105 -88 105 -88 109 -92 c 0,12,13
 120 -102 120 -102 121.5 -117 c 128,-1,14
 123 -132 123 -132 115 -140 c 0,15,16
 98 -148 98 -148 85 -140 c 0,17,18
 81 -138 81 -138 75.5 -128.5 c 128,-1,19
 70 -119 70 -119 61 -114 c 0,20,21
 50 -108 50 -108 41.5 -117 c 128,-1,22
 33 -126 33 -126 33 -135 c 0,23,24
 35 -156 35 -156 48 -168 c 0,25,26
 90 -205 90 -205 141 -172 c 0,27,28
 148 -168 148 -168 154 -162 c 0,29,30
 172 -135 172 -135 165.5 -103.5 c 128,-1,31
 159 -72 159 -72 139 -55 c 1,32,-1
 154 -3 l 2,33,34
 158 7 158 7 147 10 c 2,35,-1
 145 10 l 1,36,-1
 124 10 l 2,37,38
 116 10 116 10 114 3 c 2,0,1
EndSplineSet
EndChar

StartChar: AE
Encoding: 198 198 112
Width: 755
Flags: W
LayerCount: 2
Fore
SplineSet
420 711 m 1,0,-1
 278 415 l 1,1,-1
 421 415 l 1,2,-1
 421 382 l 1,3,-1
 264 382 l 1,4,-1
 77 2 l 2,5,6
 76 -0 76 -0 66.5 3 c 128,-1,7
 57 6 57 6 49.5 11.5 c 128,-1,8
 42.0067472047 16.9950520499 42.0067472047 16.9950520499 43 19 c 2,9,-1
 420 780 l 1,10,-1
 420 711 l 1,0,-1
420 780 m 1,11,-1
 733 780 l 2,12,13
 738 780 738 780 737.5 764 c 128,-1,14
 737 748 737 748 733 748 c 2,15,-1
 454 748 l 1,16,-1
 454 416 l 1,17,-1
 520 416 l 2,18,19
 522 416 522 416 522.5 407.5 c 128,-1,20
 523 399 523 399 522 390.5 c 128,-1,21
 521 382 521 382 519 382 c 2,22,-1
 455 382 l 1,23,-1
 455 35 l 1,24,-1
 733 35 l 2,25,26
 737 35 737 35 737 17.5 c 128,-1,27
 737 0 737 0 733 0 c 2,28,-1
 421 0 l 1,29,-1
 420 780 l 1,11,-1
EndSplineSet
EndChar

StartChar: Eth
Encoding: 208 208 122
Width: 698
Flags: W
LayerCount: 2
Fore
SplineSet
151 397 m 1,0,-1
 38 397 l 2,1,2
 34 397 34 397 34 414.5 c 128,-1,3
 34 432 34 432 38 432 c 2,4,-1
 151 432 l 1,5,6
 153 780 153 780 151 780 c 1,7,8
 343 780 343 780 440 740 c 0,9,10
 633 659 633 659 637 372 c 0,11,12
 637 236 637 236 590 152 c 128,-1,13
 543 68 543 68 446 30 c 0,14,15
 423 20 423 20 397 14 c 128,-1,16
 371 8 371 8 336 5 c 128,-1,17
 301 2 301 2 281 1 c 128,-1,18
 261 0 261 0 213 -1 c 128,-1,19
 165 -2 165 -2 151 -2 c 1,20,-1
 151 397 l 1,0,-1
279 432 m 2,21,22
 285 432 285 432 285 414.5 c 128,-1,23
 285 397 285 397 279 397 c 2,24,-1
 191 397 l 1,25,-1
 191 34 l 1,26,27
 339 34 339 34 413 54 c 0,28,29
 504 77 504 77 551.5 163.5 c 128,-1,30
 599 250 599 250 601 375 c 0,31,32
 601 447 601 447 585.5 514 c 128,-1,33
 570 581 570 581 542 618 c 0,34,35
 487 690 487 690 406.5 717 c 128,-1,36
 326 744 326 744 191 744 c 1,37,-1
 191 432 l 1,38,-1
 279 432 l 2,21,22
EndSplineSet
EndChar

StartChar: Oslash
Encoding: 216 216 130
Width: 904
Flags: W
LayerCount: 2
Fore
SplineSet
154 129 m 1,0,1
 56 245 56 245 56 383 c 0,2,3
 56 486 56 486 107.5 574.5 c 128,-1,4
 159 663 159 663 247 714 c 128,-1,5
 335 765 335 765 439 765 c 0,6,7
 577 765 577 765 694 667 c 1,8,9
 713 687 713 687 748.5 723.5 c 128,-1,10
 784 760 784 760 794 770 c 1,11,-1
 828 733 l 1,12,13
 819 724 819 724 783 688 c 128,-1,14
 747 652 747 652 727 633 c 1,15,16
 821 518 821 518 821 383 c 0,17,18
 821 279 821 279 770 191 c 128,-1,19
 719 103 719 103 630.5 51.5 c 128,-1,20
 542 0 542 0 439 0 c 0,21,22
 303 0 303 0 188 95 c 1,23,24
 152 58 152 58 115 20 c 1,25,-1
 79 57 l 1,26,27
 116 93 116 93 154 129 c 1,0,1
219 128 m 1,28,29
 327 42 327 42 439 42 c 0,30,31
 530 42 530 42 609 88 c 128,-1,32
 688 134 688 134 734 213 c 128,-1,33
 780 292 780 292 780 383 c 0,34,35
 780 494 780 494 695 603 c 1,36,-1
 219 128 l 1,28,29
664 635 m 1,37,38
 556 723 556 723 439 723 c 0,39,40
 348 723 348 723 269.5 677 c 128,-1,41
 191 631 191 631 144.5 552.5 c 128,-1,42
 98 474 98 474 98 383 c 0,43,44
 98 267 98 267 186 159 c 1,45,-1
 664 635 l 1,37,38
EndSplineSet
EndChar

StartChar: germandbls
Encoding: 223 223 136
Width: 488
Flags: W
LayerCount: 2
Fore
SplineSet
254 343 m 0,0,1
 362 312 362 312 379 206 c 0,2,3
 384 175 384 175 375 139.5 c 128,-1,4
 366 104 366 104 345.5 76.5 c 128,-1,5
 325 49 325 49 293 38 c 128,-1,6
 261 27 261 27 220 45 c 0,7,8
 214 48 214 48 208 41.5 c 128,-1,9
 202 35 202 35 201.5 27 c 128,-1,10
 201 19 201 19 207 15 c 0,11,12
 277 -18 277 -18 331 16.5 c 128,-1,13
 385 51 385 51 408 117 c 0,14,15
 439 204 439 204 398.5 275 c 128,-1,16
 358 346 358 346 283 372 c 1,17,18
 364 391 364 391 413 463 c 128,-1,19
 462 535 462 535 440 626 c 0,20,21
 427 679 427 679 389 711 c 128,-1,22
 351 743 351 743 293 743 c 0,23,24
 245 743 245 743 206 724 c 128,-1,25
 167 705 167 705 157 668 c 0,26,27
 140 603 140 603 103.5 236 c 128,-1,28
 67 -131 67 -131 67 -176 c 0,29,30
 67 -185 67 -185 83.5 -185.5 c 128,-1,31
 100 -186 100 -186 101 -179 c 0,32,33
 102 -165 102 -165 116 -20 c 128,-1,34
 130 125 130 125 139 215 c 128,-1,35
 148 305 148 305 162 430 c 128,-1,36
 176 555 176 555 186 626 c 0,37,38
 191 661 191 661 218.5 682.5 c 128,-1,39
 246 704 246 704 284 704 c 0,40,41
 363 704 363 704 391 643 c 0,42,43
 407 609 407 609 409 577.5 c 128,-1,44
 411 546 411 546 400 521 c 128,-1,45
 389 496 389 496 371.5 474.5 c 128,-1,46
 354 453 354 453 328.5 436.5 c 128,-1,47
 303 420 303 420 279 408 c 128,-1,48
 255 396 255 396 229 387 c 0,49,50
 204 378 204 378 225 359 c 0,51,52
 236 348 236 348 254 343 c 0,0,1
EndSplineSet
EndChar

StartChar: ae
Encoding: 230 230 143
Width: 556
Flags: W
LayerCount: 2
Fore
SplineSet
502 277 m 1,0,1
 502 311 502 311 470 332.5 c 128,-1,2
 438 354 438 354 398 354 c 0,3,4
 364 354 364 354 334 329.5 c 128,-1,5
 304 305 304 305 304 277 c 1,6,-1
 502 277 l 1,0,1
540 242 m 1,7,-1
 296 242 l 1,8,9
 281 170 281 170 311.5 102.5 c 128,-1,10
 342 35 342 35 403 35 c 0,11,12
 452 35 452 35 475 53 c 128,-1,13
 498 71 498 71 506 113 c 1,14,15
 511 115 511 115 527 112.5 c 128,-1,16
 543 110 543 110 543 106 c 0,17,18
 533 52 533 52 500 26.5 c 128,-1,19
 467 1 467 1 403 1 c 0,20,21
 329.500169903 1 329.500169903 1 292.858381842 59.5848878674 c 1,22,-1
 293 55 l 1,23,24
 283 34 283 34 248.5 17 c 128,-1,25
 214 0 214 0 179 0 c 0,26,27
 119 0 119 0 85.5 29 c 128,-1,28
 52 58 52 58 49 111 c 0,29,30
 48 170 48 170 84 203 c 128,-1,31
 120 236 120 236 188 235 c 0,32,33
 221 235 221 235 256 231 c 1,34,35
 257 235 257 235 257 267 c 0,36,37
 257 312 257 312 244 332.5 c 128,-1,38
 231 353 231 353 195 353 c 0,39,40
 167 353 167 353 146.5 344 c 128,-1,41
 126 335 126 335 115 324.5 c 128,-1,42
 104 314 104 314 80 287 c 0,43,44
 76 287 76 287 65.5 297.5 c 128,-1,45
 55 308 55 308 55 312 c 0,46,47
 87 348 87 348 120 369 c 128,-1,48
 153 390 153 390 200 390 c 0,49,50
 244 390 244 390 264 364 c 0,51,52
 280.580907035 342.444820855 280.580907035 342.444820855 284.10280636 322.2642741 c 1,53,54
 289.08907134 331.776099256 289.08907134 331.776099256 295 340 c 0,55,56
 330 387 330 387 398 388 c 0,57,58
 456 388 456 388 498 359 c 128,-1,59
 540 330 540 330 540 280 c 2,60,-1
 540 242 l 1,7,-1
166 38 m 0,61,62
 199 40 199 40 227 51.5 c 128,-1,63
 255 63 255 63 259 84 c 0,64,65
 261 103 261 103 260 117 c 128,-1,66
 259 131 259 131 256 156 c 128,-1,67
 253 181 253 181 252 190 c 1,68,69
 198 197 198 197 195 197 c 128,-1,70
 192 197 192 197 152 194 c 0,71,72
 124 191 124 191 104.5 167.5 c 128,-1,73
 85 144 85 144 85 113 c 0,74,75
 85 80 85 80 108.5 59 c 128,-1,76
 132 38 132 38 166 38 c 0,61,62
EndSplineSet
EndChar

StartChar: oslash
Encoding: 248 248 160
Width: 487
Flags: W
LayerCount: 2
Fore
SplineSet
38 188 m 0,0,1
 38 268 38 268 95.5 325.5 c 128,-1,2
 153 383 153 383 233 383 c 0,3,4
 304 383 304 383 358 337 c 1,5,-1
 409 388 l 1,6,-1
 435 362 l 1,7,-1
 384 311 l 1,8,9
 428 257 428 257 428 188 c 0,10,11
 428 108 428 108 370.5 50.5 c 128,-1,12
 313 -7 313 -7 233 -7 c 0,13,14
 163 -7 163 -7 109 37 c 1,15,-1
 71 -1 l 1,16,-1
 45 25 l 1,17,-1
 83 63 l 1,18,19
 38 118 38 118 38 188 c 0,0,1
131 59 m 1,20,21
 176 23 176 23 233 23 c 0,22,23
 301 23 301 23 349.5 71.5 c 128,-1,24
 398 120 398 120 398 188 c 0,25,26
 398 245 398 245 362 290 c 1,27,-1
 131 59 l 1,20,21
105 85 m 1,28,-1
 337 316 l 1,29,30
 291 353 291 353 233 353 c 0,31,32
 165 353 165 353 116.5 304.5 c 128,-1,33
 68 256 68 256 68 188 c 0,34,35
 68 130 68 130 105 85 c 1,28,-1
EndSplineSet
EndChar

StartChar: Dcroat
Encoding: 272 272 183
Width: 697
Flags: W
LayerCount: 2
Fore
SplineSet
171 -2 m 1,0,-1
 171 441 l 1,1,-1
 62 441 l 2,2,3
 58 441 58 441 58 458.5 c 128,-1,4
 58 476 58 476 62 476 c 2,5,-1
 171 476 l 1,6,-1
 171 780 l 1,7,8
 363 780 363 780 460 740 c 0,9,10
 653 659 653 659 657 372 c 0,11,12
 657 236 657 236 610 152 c 128,-1,13
 563 68 563 68 466 30 c 0,14,15
 443 20 443 20 417 14 c 128,-1,16
 391 8 391 8 356 5 c 128,-1,17
 321 2 321 2 301 1 c 128,-1,18
 281 0 281 0 233 -1 c 128,-1,19
 185 -2 185 -2 171 -2 c 1,0,-1
211 476 m 1,20,-1
 303 476 l 2,21,22
 309 476 309 476 309 458.5 c 128,-1,23
 309 441 309 441 303 441 c 2,24,-1
 211 441 l 1,25,-1
 211 34 l 1,26,27
 359 34 359 34 433 54 c 0,28,29
 524 77 524 77 571.5 163.5 c 128,-1,30
 619 250 619 250 621 375 c 0,31,32
 621 447 621 447 605.5 514 c 128,-1,33
 590 581 590 581 562 618 c 0,34,35
 507 690 507 690 426.5 717 c 128,-1,36
 346 744 346 744 211 744 c 1,37,-1
 211 476 l 1,20,-1
EndSplineSet
EndChar

StartChar: dcroat
Encoding: 273 273 184
Width: 461
Flags: W
LayerCount: 2
Fore
SplineSet
355 345 m 1,0,-1
 354 585 l 1,1,-1
 230 585 l 2,2,3
 226 585 226 585 226 602.5 c 128,-1,4
 226 620 226 620 230 620 c 2,5,-1
 354 620 l 1,6,-1
 354 777 l 2,7,8
 354 779 354 779 362 779.5 c 128,-1,9
 370 780 370 780 378 779.5 c 128,-1,10
 386 779 386 779 386 777 c 2,11,-1
 386 620 l 1,12,-1
 471 620 l 2,13,14
 477 620 477 620 477 602.5 c 128,-1,15
 477 585 477 585 471 585 c 2,16,-1
 386 585 l 1,17,-1
 386 3 l 2,18,19
 386 0 386 0 370 0 c 128,-1,20
 354 0 354 0 354 3 c 2,21,-1
 354 49 l 1,22,23
 292 0 292 0 205 0 c 0,24,25
 148 0 148 0 103.5 61.5 c 128,-1,26
 59 123 59 123 59 193 c 0,27,28
 59 220 59 220 68 250 c 128,-1,29
 77 280 77 280 95.5 312.5 c 128,-1,30
 114 345 114 345 151.5 366 c 128,-1,31
 189 387 189 387 238 387 c 0,32,33
 293 387 293 387 355 345 c 1,0,-1
206 32 m 0,34,35
 290 32 290 32 354 88 c 1,36,-1
 354 291 l 1,37,38
 340 315 340 315 304.5 335 c 128,-1,39
 269 355 269 355 238 355 c 0,40,41
 196 355 196 355 165 335.5 c 128,-1,42
 134 316 134 316 119 287 c 128,-1,43
 104 258 104 258 97 233.5 c 128,-1,44
 90 209 90 209 90 191 c 0,45,46
 90 119 90 119 130.5 75.5 c 128,-1,47
 171 32 171 32 206 32 c 0,34,35
EndSplineSet
EndChar

StartChar: Eogonek
Encoding: 280 280 191
Width: 430
Flags: W
LayerCount: 2
Fore
SplineSet
60 780 m 1,0,-1
 373 780 l 2,1,2
 378 780 378 780 377.5 764 c 128,-1,3
 377 748 377 748 373 748 c 2,4,-1
 94 748 l 1,5,-1
 94 416 l 1,6,-1
 160 416 l 2,7,8
 162 416 162 416 162.5 407.5 c 128,-1,9
 163 399 163 399 162 390.5 c 128,-1,10
 161 382 161 382 159 382 c 2,11,-1
 95 382 l 1,12,-1
 95 35 l 1,13,-1
 373 35 l 2,14,15
 377 35 377 35 377 17.5 c 128,-1,16
 377 0 377 0 373 0 c 2,17,-1
 356.636463122 -3.81639164715e-17 l 1,18,19
 349.045535705 -7.93169644221 349.045535705 -7.93169644221 340 -21.5 c 0,20,21
 325 -44 325 -44 325 -62 c 0,22,23
 325 -95 325 -95 344 -96.5 c 128,-1,24
 363 -98 363 -98 390 -85 c 0,25,26
 394 -84 394 -84 395 -90 c 0,27,28
 397 -99 397 -99 392 -103 c 0,29,30
 330 -155 330 -155 300 -101 c 0,31,32
 286 -75 286 -75 302 -38 c 0,33,34
 306 -28 306 -28 312.5 -19 c 128,-1,35
 319 -10 319 -10 324 -5.5 c 0,36,37
 326.958315233 -2.83751629019 326.958315233 -2.83751629019 329.916630466 1.53523027624e-16 c 1,38,-1
 61 0 l 1,39,-1
 60 780 l 1,0,-1
EndSplineSet
EndChar

StartChar: eogonek
Encoding: 281 281 192
Width: 374
Flags: W
LayerCount: 2
Fore
SplineSet
294 276 m 1,0,1
 294 310 294 310 262 331.5 c 128,-1,2
 230 353 230 353 190 353 c 0,3,4
 156 353 156 353 126 328.5 c 128,-1,5
 96 304 96 304 96 276 c 1,6,-1
 294 276 l 1,0,1
332 241 m 1,7,-1
 88 241 l 1,8,9
 73 169 73 169 103.5 101.5 c 128,-1,10
 134 34 134 34 195 34 c 0,11,12
 244 34 244 34 267 52 c 128,-1,13
 290 70 290 70 298 112 c 1,14,15
 303 114 303 114 319 111.5 c 128,-1,16
 335 109 335 109 335 105 c 0,17,18
 326.701046249 60.1856497471 326.701046249 60.1856497471 302.561386828 35 c 1,19,-1
 304 35 l 1,20,21
 293 28 293 28 278 5.5 c 128,-1,22
 263 -17 263 -17 263 -35 c 0,23,24
 263 -68 263 -68 282 -69.5 c 128,-1,25
 301 -71 301 -71 328 -58 c 0,26,27
 332 -57 332 -57 333 -63 c 0,28,29
 335 -72 335 -72 330 -76 c 0,30,31
 268 -128 268 -128 238 -74 c 0,32,33
 224 -48 224 -48 240 -11 c 0,34,35
 243.512047602 -2.21988099417 243.512047602 -2.21988099417 248.951357449 5.78933311409 c 1,36,37
 225.494685127 2.78119541286e-15 225.494685127 2.78119541286e-15 195 0 c 0,38,39
 77 0 77 0 54 151 c 0,40,41
 46 204 46 204 55 255.5 c 128,-1,42
 64 307 64 307 87 339 c 0,43,44
 122 386 122 386 190 387 c 0,45,46
 248 387 248 387 290 358 c 128,-1,47
 332 329 332 329 332 279 c 2,48,-1
 332 241 l 1,7,-1
EndSplineSet
EndChar

StartChar: Hbar
Encoding: 294 294 205
Width: 487
Flags: W
LayerCount: 2
Fore
SplineSet
425 574 m 1,0,-1
 425 5 l 2,1,2
 425 0 425 0 403 0 c 128,-1,3
 381 0 381 0 381 5 c 2,4,-1
 381 350 l 1,5,-1
 107 350 l 1,6,-1
 107 4 l 2,7,8
 107 0 107 0 86.5 0 c 128,-1,9
 66 0 66 0 66 4 c 2,10,-1
 66 574 l 1,11,-1
 43 574 l 2,12,13
 36 574 36 574 36 593 c 128,-1,14
 36 612 36 612 43 612 c 2,15,-1
 66 612 l 1,16,-1
 66 774 l 2,17,18
 66 778 66 778 76 779.5 c 128,-1,19
 86 781 86 781 96.5 779.5 c 128,-1,20
 107 778 107 778 107 775 c 2,21,-1
 107 612 l 1,22,-1
 383 613 l 1,23,-1
 383 776 l 2,24,25
 383 780 383 780 404 780 c 128,-1,26
 425 780 425 780 425 776 c 2,27,-1
 425 612 l 1,28,-1
 442 612 l 2,29,30
 452 612 452 612 452 593 c 128,-1,31
 452 574 452 574 442 574 c 2,32,-1
 425 574 l 1,0,-1
383 574 m 1,33,-1
 107 574 l 1,34,-1
 107 390 l 1,35,-1
 383 390 l 1,36,-1
 383 574 l 1,33,-1
EndSplineSet
EndChar

StartChar: hbar
Encoding: 295 295 206
Width: 473
Flags: W
LayerCount: 2
Fore
SplineSet
181 571 m 1,0,-1
 283 571 l 2,1,2
 289 571 289 571 289 588.5 c 128,-1,3
 289 606 289 606 283 606 c 2,4,-1
 180 606 l 1,5,-1
 180 777 l 2,6,7
 180 779 180 779 162.5 779 c 128,-1,8
 145 779 145 779 145 777 c 2,9,-1
 144 606 l 1,10,-1
 42 606 l 2,11,12
 38 606 38 606 38 588.5 c 128,-1,13
 38 571 38 571 42 571 c 2,14,-1
 145 571 l 1,15,-1
 145 296 l 1,16,-1
 145 3 l 1,17,-1
 145 2 l 2,18,19
 145 0 145 0 162.5 0 c 128,-1,20
 180 0 180 0 180 2 c 2,21,-1
 180 3 l 1,22,-1
 180 285 l 2,23,24
 180 317 180 317 211.5 335.5 c 128,-1,25
 243 354 243 354 284 354 c 0,26,27
 387 352 387 352 387 288 c 2,28,-1
 387 4 l 2,29,30
 387 0 387 0 404.5 0 c 128,-1,31
 422 0 422 0 422 4 c 2,32,-1
 422 298 l 2,33,34
 422 341 422 341 384 363.5 c 128,-1,35
 346 386 346 386 284 386 c 0,36,37
 220 386 220 386 180 357 c 1,38,-1
 181 571 l 1,0,-1
EndSplineSet
EndChar

StartChar: dotlessi
Encoding: 305 305 214
Width: 225
Flags: W
LayerCount: 2
Fore
SplineSet
193 33 m 0,0,1
 166 0 166 0 129 0 c 0,2,3
 95 0 95 0 81.5 21.5 c 128,-1,4
 68 43 68 43 68 64 c 2,5,-1
 68 386 l 2,6,7
 68 388 68 388 86 388 c 128,-1,8
 104 388 104 388 104 386 c 2,9,-1
 104 64 l 2,10,11
 104 53 104 53 111.5 45.5 c 128,-1,12
 119 38 119 38 129 38 c 0,13,14
 137 38 137 38 143 40 c 128,-1,15
 149 42 149 42 151.5 44 c 128,-1,16
 154 46 154 46 159 51 c 128,-1,17
 164 56 164 56 167 59 c 0,18,19
 172 63 172 63 184.5 50.5 c 128,-1,20
 197 38 197 38 193 33 c 0,0,1
EndSplineSet
EndChar

StartChar: Lacute
Encoding: 313 313 219
Width: 420
Flags: W
LayerCount: 2
Fore
SplineSet
122 605 m 2,0,-1
 143 743 l 2,1,2
 143 745 143 745 147.5 746 c 128,-1,3
 152 747 152 747 158.5 746.5 c 128,-1,4
 165 746 165 746 171 745 c 128,-1,5
 177 744 177 744 181 742 c 128,-1,6
 185 740 185 740 185 738 c 2,7,-1
 163 596 l 2,8,9
 163 594 163 594 158.5 593 c 128,-1,10
 154 592 154 592 148 593 c 128,-1,11
 142 594 142 594 136 596 c 128,-1,12
 130 598 130 598 126 600.5 c 128,-1,13
 122 603 122 603 122 605 c 2,0,-1
376 39 m 2,14,15
 381 39 381 39 381 19.5 c 128,-1,16
 381 0 381 0 376 0 c 2,17,-1
 52 0 l 1,18,-1
 52 775 l 2,19,20
 52 780 52 780 70 780 c 128,-1,21
 88 780 88 780 88 775 c 2,22,-1
 88 39 l 1,23,-1
 376 39 l 2,14,15
EndSplineSet
EndChar

StartChar: Lslash
Encoding: 321 321 225
Width: 532
Flags: W
LayerCount: 2
Fore
SplineSet
153 393.728515625 m 1,0,-1
 63.0205078125 351.768554688 l 2,1,2
 59.0397485903 349.91221501 59.0397485903 349.91221501 51.8012695312 365.8984375 c 0,3,4
 45 382 45 382 48.2275390625 383.487304688 c 1,5,-1
 153 434 l 1,6,-1
 153 778 l 2,7,8
 153 783 153 783 171 783 c 128,-1,9
 189 783 189 783 189 778 c 1,10,-1
 189 449.1328125 l 1,11,-1
 266.633789062 485.3359375 l 2,12,13
 272.062171956 487.867366493 272.062171956 487.867366493 279.531085978 471.933683246 c 128,-1,14
 287 456 287 456 281.426757812 453.6171875 c 1,15,-1
 189 409.516601562 l 1,16,-1
 189 42 l 1,17,-1
 477 42 l 2,18,19
 482 42 482 42 482 22.5 c 128,-1,20
 482 3 482 3 477 3 c 2,21,-1
 153 3 l 1,22,-1
 153 393.728515625 l 1,0,-1
EndSplineSet
EndChar

StartChar: lslash
Encoding: 322 322 226
Width: 267
Flags: W
LayerCount: 2
Fore
SplineSet
136 109 m 1,0,1
 136 37 136 37 173 37 c 0,2,3
 193 37 193 37 210 54 c 0,4,5
 213 57 213 57 220 50.5 c 128,-1,6
 227 44 227 44 231.5 35 c 128,-1,7
 236 26 236 26 233 23 c 0,8,9
 228 18 228 18 214.5 9.5 c 0,10,11
 209 6 209 6 197.5 2.5 c 128,-1,12
 186 -1 186 -1 172 -1 c 0,13,14
 137 -1 137 -1 119.5 25 c 128,-1,15
 102 51 102 51 102 92 c 2,16,-1
 102 357.065429688 l 1,17,-1
 22.0205078125 321.768554688 l 1,18,19
 18 320 18 320 11.0032332346 335.99260975 c 128,-1,20
 4 352 4 352 7.2275390625 353.487304688 c 2,21,-1
 102 397.682617188 l 1,22,-1
 102 774 l 1,23,24
 102 779 102 779 119 779 c 128,-1,25
 136 779 136 779 136 774 c 2,26,-1
 136 415.537109375 l 1,27,-1
 227 456 l 1,28,29
 232 459 232 459 239.183105469 442.33203125 c 0,30,31
 245.924478321 426.180936117 245.924478321 426.180936117 240.426757812 423.6171875 c 2,32,-1
 136 374.919921875 l 1,33,-1
 136 109 l 1,0,1
EndSplineSet
EndChar

StartChar: OE
Encoding: 338 338 235
Width: 759
Flags: W
LayerCount: 2
Fore
SplineSet
370 780 m 1,0,-1
 370 749 l 1,1,2
 310 749 310 749 260 724.5 c 128,-1,3
 210 700 210 700 178 658.5 c 128,-1,4
 146 617 146 617 123.5 563.5 c 128,-1,5
 101 510 101 510 96 450.5 c 128,-1,6
 91 391 91 391 96 332 c 128,-1,7
 101 273 101 273 123.5 219.5 c 128,-1,8
 146 166 146 166 178.5 124.5 c 128,-1,9
 211 83 211 83 261 58.5 c 128,-1,10
 311 34 311 34 371 34 c 1,11,-1
 371 0 l 1,12,13
 303 0 303 0 245.5 26.5 c 128,-1,14
 188 53 188 53 151 98.5 c 128,-1,15
 114 144 114 144 88.5 202.5 c 128,-1,16
 63 261 63 261 57.5 325.5 c 128,-1,17
 52 390 52 390 57.5 454.5 c 128,-1,18
 63 519 63 519 89 577.5 c 128,-1,19
 115 636 115 636 151.5 681.5 c 128,-1,20
 188 727 188 727 245 753.5 c 128,-1,21
 302 780 302 780 370 780 c 1,0,-1
370 780 m 1,22,-1
 683 780 l 2,23,24
 688 780 688 780 687.5 764 c 128,-1,25
 687 748 687 748 683 748 c 2,26,-1
 404 748 l 1,27,-1
 404 416 l 1,28,-1
 470 416 l 2,29,30
 472 416 472 416 472.5 407.5 c 128,-1,31
 473 399 473 399 472 390.5 c 128,-1,32
 471 382 471 382 469 382 c 2,33,-1
 405 382 l 1,34,-1
 405 35 l 1,35,-1
 683 35 l 2,36,37
 687 35 687 35 687 17.5 c 128,-1,38
 687 0 687 0 683 0 c 2,39,-1
 371 0 l 1,40,-1
 370 780 l 1,22,-1
EndSplineSet
EndChar

StartChar: oe
Encoding: 339 339 236
Width: 649
Flags: W
LayerCount: 2
Fore
SplineSet
63 187 m 0,0,1
 63 123 63 123 103.5 78.5 c 128,-1,2
 144 34 144 34 198 34 c 0,3,4
 260 34 260 34 296 74.5 c 0,5,6
 330.159127157 112.929018051 330.159127157 112.929018051 331.905866114 179.71887561 c 0,7,8
 331.031978326 193.331081411 331.031978326 193.331081411 331.296939418 206.842800556 c 0,9,10
 327.219888938 263.059855884 327.219888938 263.059855884 299.5 304 c 0,11,12
 267 352 267 352 199 352 c 0,13,14
 134 352 134 352 98.5 305 c 128,-1,15
 63 258 63 258 63 187 c 0,0,1
30 187 m 0,16,17
 30 276 30 276 72.5 331 c 128,-1,18
 115 386 115 386 198 386 c 0,19,20
 282 386 282 386 323.5 331.5 c 0,21,22
 336.545227709 314.368315418 336.545227709 314.368315418 345.48978154 293.728825469 c 1,23,24
 354.239179488 319.854510592 354.239179488 319.854510592 368 339 c 0,25,26
 403 386 403 386 471 387 c 0,27,28
 529 387 529 387 571 358 c 128,-1,29
 613 329 613 329 613 279 c 2,30,-1
 613 241 l 1,31,-1
 369 241 l 1,32,33
 365.455413363 223.985984143 365.455413363 223.985984143 364.451565824 207.223250174 c 0,34,35
 364.999999998 197.34619633 364.999999998 197.34619633 365 187 c 0,36,37
 365 181.245199276 365 181.245199276 364.832031748 175.662365999 c 0,38,39
 368.040867731 137.925948567 368.040867731 137.925948567 384.5 101.5 c 0,40,41
 415 34 415 34 476 34 c 0,42,43
 525 34 525 34 548 52 c 128,-1,44
 571 70 571 70 579 112 c 1,45,46
 584 114 584 114 600 111.5 c 128,-1,47
 616 109 616 109 616 105 c 0,48,49
 606 51 606 51 573 25.5 c 128,-1,50
 540 0 540 0 476 0 c 0,51,52
 383.704941592 0 383.704941592 0 349.528663105 92.3782712433 c 1,53,54
 339.508900581 66.8673149496 339.508900581 66.8673149496 323 48 c 0,55,56
 281 0 281 0 198 0 c 0,57,58
 114 0 114 0 72 55 c 128,-1,59
 30 110 30 110 30 187 c 0,16,17
575 276 m 1,60,61
 575 310 575 310 543 331.5 c 128,-1,62
 511 353 511 353 471 353 c 0,63,64
 437 353 437 353 407 328.5 c 128,-1,65
 377 304 377 304 377 276 c 1,66,-1
 575 276 l 1,60,61
EndSplineSet
EndChar

StartChar: scedilla
Encoding: 351 351 246
Width: 305
Flags: W
LayerCount: 2
Fore
SplineSet
183 -0 m 1,0,1
 183.967741935 -5.8064516129 183.967741935 -5.8064516129 180 -23 c 2,2,-1
 171 -62 l 1,3,4
 191 -79 191 -79 197.5 -110.5 c 0,5,6
 204 -144 204 -144 186 -169 c 0,7,8
 183 -173 183 -173 173 -179 c 0,9,10
 119 -210 119 -210 80 -175 c 0,11,12
 65 -161 65 -161 65 -142 c 0,13,14
 65 -133 65 -133 73.5 -124 c 128,-1,15
 82 -115 82 -115 93 -121 c 0,16,17
 102 -126 102 -126 107.5 -135.5 c 128,-1,18
 113 -145 113 -145 117 -147 c 0,19,20
 133 -155 133 -155 147 -147 c 0,21,22
 155 -142 155 -142 153.5 -124 c 0,23,24
 152 -109 152 -109 141 -99 c 0,25,26
 137 -95 137 -95 131 -92.5 c 128,-1,27
 125 -90 125 -90 124 -83.5 c 128,-1,28
 123 -77 123 -77 125 -71.5 c 128,-1,29
 127 -66 127 -66 130 -58 c 128,-1,30
 133 -50 133 -50 133 -49 c 0,31,32
 133 -43 133 -43 137 -36 c 0,33,34
 140.5 -23.5 l 0,35,36
 142 -18 142 -18 143 -13.5 c 128,-1,37
 144 -9 144 -9 145 -6.5 c 2,38,-1
 146 -4 l 2,39,40
 147.845639986 0.614099964213 147.845639986 0.614099964213 148.724609375 0.6328125 c 24,41,42
 119 -0 119 -0 95.4041615099 17.7811262376 c 0,43,44
 72 36 72 36 57 79 c 0,45,46
 55 85 55 85 63 88.5 c 128,-1,47
 71 92 71 92 79 91.5 c 0,48,49
 90 91 90 91 91 89 c 0,50,51
 110 53 110 53 118.5 46.5 c 0,52,53
 132 35 132 35 164 35 c 0,54,55
 191 35 191 35 212.5 57.5 c 128,-1,56
 234 80 234 80 234 108 c 0,57,58
 234 161 234 161 134 179 c 0,59,60
 87 187 87 187 68 213 c 128,-1,61
 49 239 49 239 49 288 c 0,62,63
 49 335 49 335 74.5 361 c 128,-1,64
 100 387 100 387 149 387 c 0,65,66
 253 387 253 387 253 296 c 0,67,68
 253 291 253 291 245 288 c 128,-1,69
 237 285 237 285 228.5 286.5 c 128,-1,70
 220 288 220 288 220 293 c 0,71,72
 220 321 220 321 199 341.5 c 0,73,74
 185 355 185 355 149 355 c 0,75,76
 118 355 118 355 100.5 336.5 c 128,-1,77
 83 318 83 318 83 288 c 0,78,79
 83 264 83 264 89 248.5 c 128,-1,80
 95 233 95 233 111 224.5 c 128,-1,81
 127 216 127 216 139.5 213 c 128,-1,82
 152 210 152 210 180 205 c 0,83,84
 214 199 214 199 240.5 172.5 c 128,-1,85
 267 146 267 146 267 110 c 2,86,-1
 267 108 l 2,87,88
 267 59 267 59 236.5 31.5 c 0,89,90
 200 0 200 0 183 -0 c 1,0,1
EndSplineSet
EndChar

StartChar: uni018F
Encoding: 399 399 268
Width: 650
Flags: W
LayerCount: 2
Fore
SplineSet
60 268 m 1,0,-1
 535 268 l 2,1,2
 545 268 545 268 547 278 c 0,3,4
 557 322 557 322 557 371 c 0,5,6
 557 432 557 432 541.5 491.5 c 128,-1,7
 526 551 526 551 497.5 599.5 c 128,-1,8
 469 648 469 648 423 677.5 c 128,-1,9
 377 707 377 707 321 707 c 0,10,11
 234 707 234 707 177.5 668 c 128,-1,12
 121 629 121 629 104 549 c 1,13,14
 76 548 76 548 55 557 c 1,15,16
 74 653 74 653 143.5 701.5 c 128,-1,17
 213 750 213 750 321 750 c 0,18,19
 384 750 384 750 432.5 727 c 128,-1,20
 481 704 481 704 512.5 662.5 c 128,-1,21
 544 621 544 621 562.5 571 c 128,-1,22
 581 521 581 521 591 459 c 0,23,24
 607 354 607 354 589 253.5 c 128,-1,25
 571 153 571 153 527 92 c 0,26,27
 462 4 462 4 331 1 c 0,28,29
 258 1 258 1 197 24.5 c 128,-1,30
 136 48 136 48 98 95 c 128,-1,31
 60 142 60 142 60 205 c 2,32,-1
 60 268 l 1,0,-1
111 211 m 0,33,34
 111 161 111 161 144.5 122 c 128,-1,35
 178 83 178 83 227.5 63.5 c 128,-1,36
 277 44 277 44 331 44 c 0,37,38
 404 44 404 44 468 95.5 c 128,-1,39
 532 147 532 147 532 211 c 0,40,41
 532 216 532 216 528 219.5 c 128,-1,42
 524 223 524 223 519 223 c 2,43,-1
 123 223 l 2,44,45
 118 223 118 223 114.5 219 c 128,-1,46
 111 215 111 215 111 211 c 0,33,34
EndSplineSet
EndChar

StartChar: circumflex
Encoding: 710 710 274
Width: 381
Flags: W
LayerCount: 2
Fore
SplineSet
187 518 m 1,0,-1
 115 435 l 2,1,2
 113 432 113 432 105.5 437 c 128,-1,3
 98 442 98 442 92.5 448.5 c 128,-1,4
 87 455 87 455 89 458 c 2,5,-1
 166 553 l 1,6,-1
 211 553 l 1,7,-1
 285 460 l 2,8,9
 288 457 288 457 282 449.5 c 128,-1,10
 276 442 276 442 268 436.5 c 128,-1,11
 260 431 260 431 258 434 c 2,12,-1
 187 518 l 1,0,-1
EndSplineSet
EndChar

StartChar: caron
Encoding: 711 711 275
Width: 432
Flags: W
LayerCount: 2
Fore
SplineSet
141 529 m 2,0,1
 139 531 139 531 144 538 c 128,-1,2
 149 545 149 545 156 549.5 c 128,-1,3
 163 554 163 554 165 552 c 2,4,-1
 224 483 l 1,5,-1
 341 579 l 2,6,7
 344 582 344 582 350.5 575 c 128,-1,8
 357 568 357 568 360.5 559 c 128,-1,9
 364 550 364 550 361 548 c 2,10,-1
 217 436 l 1,11,-1
 141 529 l 2,0,1
EndSplineSet
EndChar

StartChar: breve
Encoding: 728 728 276
Width: 381
Flags: W
LayerCount: 2
Fore
SplineSet
187 486 m 0,0,1
 163 486 163 486 148.5 501.5 c 128,-1,2
 134 517 134 517 134 541 c 0,3,4
 134 549 134 549 111.5 549 c 128,-1,5
 89 549 89 549 89 541 c 0,6,7
 89 504 89 504 117 474.5 c 128,-1,8
 145 445 145 445 188 445 c 0,9,10
 228 445 228 445 256.5 472 c 128,-1,11
 285 499 285 499 285 541 c 0,12,13
 285 549 285 549 264.5 549 c 128,-1,14
 244 549 244 549 244 541 c 0,15,16
 244 519 244 519 228 502.5 c 128,-1,17
 212 486 212 486 187 486 c 0,0,1
EndSplineSet
EndChar

StartChar: ring
Encoding: 730 730 277
Width: 359
Flags: W
LayerCount: 2
Fore
SplineSet
196 414 m 0,0,1
 225 414 225 414 241.5 433 c 128,-1,2
 258 452 258 452 258 474.5 c 128,-1,3
 258 497 258 497 241.5 516 c 128,-1,4
 225 535 225 535 196 535 c 0,5,6
 157 535 157 535 141 504.5 c 128,-1,7
 125 474 125 474 141 444 c 128,-1,8
 157 414 157 414 196 414 c 0,0,1
196 568 m 128,-1,10
 240 568 240 568 265.5 539 c 128,-1,11
 291 510 291 510 291.5 476 c 128,-1,12
 292 442 292 442 266.5 413 c 128,-1,13
 241 384 241 384 196 384 c 0,14,15
 152 384 152 384 126.5 413 c 128,-1,16
 101 442 101 442 101 476 c 128,-1,17
 101 510 101 510 126.5 539 c 128,-1,9
 152 568 152 568 196 568 c 128,-1,10
EndSplineSet
EndChar

StartChar: ogonek
Encoding: 731 731 278
Width: 388
Flags: W
LayerCount: 2
Fore
SplineSet
320 16 m 1,0,-1
 346 16 l 1,1,2
 335 9 335 9 320 -13.5 c 128,-1,3
 305 -36 305 -36 305 -54 c 0,4,5
 305 -87 305 -87 324 -88.5 c 128,-1,6
 343 -90 343 -90 370 -77 c 0,7,8
 374 -76 374 -76 375 -82 c 0,9,10
 377 -91 377 -91 372 -95 c 0,11,12
 310 -147 310 -147 280 -93 c 0,13,14
 266 -67 266 -67 282 -30 c 0,15,16
 286 -20 286 -20 292.5 -11 c 128,-1,17
 299 -2 299 -2 304 2.5 c 128,-1,18
 309 7 309 7 314 12 c 2,19,-1
 320 16 l 1,0,-1
EndSplineSet
EndChar

StartChar: uni0402
Encoding: 1026 1026 280
Width: 570
Flags: W
LayerCount: 2
Fore
SplineSet
404 780 m 2,0,-1
 42 780 l 2,1,2
 37 780 37 780 37 763 c 128,-1,3
 37 746 37 746 42 746 c 2,4,-1
 205 746 l 1,5,-1
 205 5 l 2,6,7
 205 0 205 0 221.5 0 c 128,-1,8
 238 0 238 0 238 5 c 2,9,-1
 238 291 l 1,10,11
 241 290 241 290 242 291 c 0,12,13
 259 313 259 313 292.5 331.5 c 128,-1,14
 326 350 326 350 346 350 c 0,15,16
 395 350 395 350 434 304 c 128,-1,17
 473 258 473 258 473 196 c 0,18,19
 473 126 473 126 442.5 80.5 c 128,-1,20
 412 35 412 35 367 33 c 0,21,22
 346 32 346 32 342.5 33.5 c 128,-1,23
 339 35 339 35 321 46 c 0,24,25
 317 49 317 49 311 42.5 c 128,-1,26
 305 36 305 36 303 29 c 128,-1,27
 301 22 301 22 304 18 c 0,28,29
 326 0 326 0 366 0 c 0,30,31
 431 0 431 0 469 56 c 128,-1,32
 507 112 507 112 507 198 c 0,33,34
 507 269 507 269 463.5 327.5 c 128,-1,35
 420 386 420 386 351 386 c 0,36,37
 325 386 325 386 293.5 372 c 128,-1,38
 262 358 262 358 238 338 c 1,39,-1
 238 746 l 1,40,-1
 404 746 l 2,41,42
 409 746 409 746 409 763 c 128,-1,43
 409 780 409 780 404 780 c 2,0,-1
EndSplineSet
EndChar

StartChar: uni0404
Encoding: 1028 1028 282
Width: 667
Flags: W
LayerCount: 2
Fore
SplineSet
117.5 553 m 4,0,1
 151.75370793 628.438927091 151.75370793 628.438927091 202.5 686.5 c 0,2,3
 251.443162656 741 251.443162656 741 334 741 c 0,4,5
 406 741 406 741 466.5 722 c 128,-1,6
 527 703 527 703 538 664 c 1,7,8
 548 659 548 659 570 664 c 0,9,10
 579 666 579 666 577 670 c 0,11,12
 522 779 522 779 337 779 c 0,13,14
 246 779 246 779 179.5 720 c 128,-1,15
 113 661 113 661 82.5 574.5 c 128,-1,16
 52 488 52 488 52 389 c 0,17,18
 52 212 52 212 121.5 106.5 c 128,-1,19
 191 1 191 1 337 1 c 0,20,21
 458 1 458 1 522.5 39.5 c 128,-1,22
 587 78 587 78 605 173 c 0,23,24
 606 177 606 177 592 179 c 0,25,26
 564 182 564 182 562 175 c 0,27,28
 540 98 540 98 493.5 73 c 0,29,30
 439 44 439 44 340 44 c 0,31,32
 270 44 270 44 220.5 68 c 128,-1,33
 171 92 171 92 143 139.5 c 128,-1,34
 115 187 115 187 102.5 247.5 c 128,-1,35
 90 308 90 308 90 390 c 0,36,37
 90 392 90 392 90.008778466 393 c 1,38,-1
 329 393 l 2,39,40
 335 393 335 393 335 410.5 c 128,-1,41
 335 428 335 428 329 428 c 2,42,-1
 93.42578125 428 l 0,43,44
 99 511 99 511 117.5 553 c 4,0,1
EndSplineSet
EndChar

StartChar: uni0409
Encoding: 1033 1033 287
Width: 821
Flags: W
LayerCount: 2
Fore
SplineSet
180 0 m 0,0,1
 68 0 68 0 68 119 c 0,2,3
 68 124 68 124 77 126 c 128,-1,4
 86 128 86 128 95.5 125.5 c 128,-1,5
 105 123 105 123 105 117 c 0,6,7
 105 74 105 74 122 55 c 128,-1,8
 139 36 139 36 180 36 c 0,9,10
 253 36 253 36 253 121 c 2,11,-1
 253 777 l 1,12,-1
 469 777 l 1,13,-1
 469 345 l 1,14,-1
 653 345 l 2,15,16
 710 345 710 345 746 294.5 c 128,-1,17
 782 244 782 244 782 169 c 0,18,19
 782 0 782 0 652 0 c 2,20,-1
 437 0 l 1,21,-1
 437 749 l 1,22,-1
 287 749 l 1,23,-1
 287 107 l 2,24,25
 287 0 287 0 180 0 c 0,0,1
469 31 m 1,26,-1
 624 31 l 2,27,28
 680 31 680 31 713 66 c 128,-1,29
 746 101 746 101 746 169 c 0,30,31
 746 227 746 227 717 270 c 128,-1,32
 688 313 688 313 626 313 c 2,33,-1
 469 313 l 1,34,-1
 469 31 l 1,26,-1
EndSplineSet
EndChar

StartChar: uni040A
Encoding: 1034 1034 288
Width: 765
Flags: W
LayerCount: 2
Fore
SplineSet
415 31 m 1,0,-1
 570 31 l 2,1,2
 626 31 626 31 659 66 c 128,-1,3
 692 101 692 101 692 169 c 0,4,5
 692 207 692 207 681.5 246 c 128,-1,6
 671 285 671 285 642.5 318 c 128,-1,7
 614 351 614 351 572 351 c 2,8,-1
 415 351 l 1,9,-1
 415 31 l 1,0,-1
372 0 m 1,10,-1
 372 351 l 1,11,-1
 101 351 l 1,12,-1
 101 4 l 2,13,14
 101 0 101 0 81 0 c 128,-1,15
 61 0 61 0 61 4 c 2,16,-1
 61 774 l 2,17,18
 61 778 61 778 71 779.5 c 128,-1,19
 81 781 81 781 91 779.5 c 128,-1,20
 101 778 101 778 101 775 c 2,21,-1
 101 386 l 1,22,-1
 374 386 l 1,23,-1
 374 776 l 2,24,25
 374 778 374 778 384 779.5 c 128,-1,26
 394 781 394 781 404.5 780 c 128,-1,27
 415 779 415 779 415 777 c 2,28,-1
 415 385 l 1,29,-1
 599 385 l 2,30,31
 654 385 654 385 691 317 c 128,-1,32
 728 249 728 249 728 169 c 0,33,34
 728 82 728 82 693.5 40.5 c 128,-1,35
 659 -1 659 -1 598 0 c 2,36,-1
 372 0 l 1,10,-1
EndSplineSet
EndChar

StartChar: uni040B
Encoding: 1035 1035 289
Width: 522
Flags: W
LayerCount: 2
Fore
SplineSet
252 357 m 1,0,1
 255 361 255 361 262 365.5 c 128,-1,2
 269 370 269 370 295.5 378 c 128,-1,3
 322 386 322 386 356 386 c 0,4,5
 418 386 418 386 456 363.5 c 128,-1,6
 494 341 494 341 494 298 c 2,7,-1
 494 4 l 2,8,9
 494 0 494 0 476.5 0 c 128,-1,10
 459 0 459 0 459 4 c 2,11,-1
 459 288 l 2,12,13
 459 352 459 352 356 354 c 0,14,15
 315 354 315 354 283.5 335.5 c 128,-1,16
 252 317 252 317 252 285 c 2,17,-1
 252 3 l 1,18,-1
 252 2 l 2,19,20
 252 0 252 0 234.5 0 c 128,-1,21
 217 0 217 0 217 2 c 2,22,-1
 217 3 l 1,23,-1
 217 296 l 1,24,-1
 217 752 l 1,25,-1
 60 752 l 2,26,27
 55 752 55 752 55 769 c 128,-1,28
 55 786 55 786 60 786 c 2,29,-1
 422 786 l 2,30,31
 427 786 427 786 427 769 c 128,-1,32
 427 752 427 752 422 752 c 2,33,-1
 252 752 l 1,34,-1
 252 357 l 1,0,1
EndSplineSet
EndChar

StartChar: uni040F
Encoding: 1039 1039 291
Width: 453
Flags: W
LayerCount: 2
Fore
SplineSet
273 -148 m 1,0,-1
 229 -148 l 1,1,-1
 229 0 l 1,2,-1
 69 0 l 1,3,-1
 67 768 l 2,4,5
 67 774 67 774 85 774.5 c 128,-1,6
 103 775 103 775 103 768 c 2,7,-1
 107 37 l 1,8,-1
 392 37 l 1,9,-1
 392 771 l 2,10,11
 392 775 392 775 410 775 c 128,-1,12
 428 775 428 775 428 771 c 2,13,-1
 428 0 l 1,14,-1
 273 0 l 1,15,-1
 273 -148 l 1,0,-1
EndSplineSet
EndChar

StartChar: uni0411
Encoding: 1041 1041 293
Width: 529
Flags: W
LayerCount: 2
Fore
SplineSet
104 428 m 1,0,1
 176 428 176 428 213 426.5 c 128,-1,2
 250 425 250 425 308 412.5 c 128,-1,3
 366 400 366 400 394.5 376.5 c 128,-1,4
 423 353 423 353 446 305.5 c 128,-1,5
 469 258 469 258 469 189 c 0,6,7
 469 161 469 161 463 137.5 c 128,-1,8
 457 114 457 114 446 96.5 c 128,-1,9
 435 79 435 79 419.5 64.5 c 128,-1,10
 404 50 404 50 385 40 c 128,-1,11
 366 30 366 30 344 22.5 c 128,-1,12
 322 15 322 15 298 11.5 c 128,-1,13
 274 8 274 8 248 5 c 128,-1,14
 222 2 222 2 195.5 1.5 c 128,-1,15
 169 1 169 1 142.5 0 c 128,-1,16
 116 -1 116 -1 90 0 c 0,17,18
 72 0 72 0 63 0 c 1,19,-1
 63 776 l 1,20,-1
 357 776 l 2,21,22
 406 776 406 776 436 743.5 c 128,-1,23
 466 711 466 711 466 669 c 0,24,25
 466 662 466 662 444.5 662 c 128,-1,26
 423 662 423 662 423 669 c 0,27,28
 423 694 423 694 403.5 714 c 128,-1,29
 384 734 384 734 358 734 c 2,30,-1
 104 734 l 1,31,-1
 104 428 l 1,0,1
104 390 m 1,32,-1
 104 40 l 1,33,34
 252 40 252 40 302 50 c 0,35,36
 421 74 421 74 428 171 c 0,37,38
 429 178 429 178 429 186 c 0,39,40
 429 232 429 232 419 266.5 c 128,-1,41
 409 301 409 301 386.5 323 c 128,-1,42
 364 345 364 345 338.5 358.5 c 128,-1,43
 313 372 313 372 272 379 c 128,-1,44
 231 386 231 386 194.5 388 c 128,-1,45
 158 390 158 390 104 390 c 1,32,-1
EndSplineSet
EndChar

StartChar: uni0413
Encoding: 1043 1043 295
Width: 477
Flags: W
LayerCount: 2
Fore
SplineSet
54 777 m 1,0,-1
 329 777 l 2,1,2
 378 777 378 777 408 744.5 c 128,-1,3
 438 712 438 712 438 670 c 0,4,5
 438 663 438 663 416.5 663 c 128,-1,6
 395 663 395 663 395 670 c 0,7,8
 395 695 395 695 375.5 715 c 128,-1,9
 356 735 356 735 330 735 c 2,10,-1
 95 735 l 1,11,-1
 93 5 l 2,12,13
 93 0 93 0 73.5 0 c 128,-1,14
 54 0 54 0 54 5 c 2,15,-1
 54 777 l 1,0,-1
EndSplineSet
EndChar

StartChar: uni0414
Encoding: 1044 1044 296
Width: 563
Flags: W
LayerCount: 2
Fore
SplineSet
386 708 m 2,0,-1
 263 708 l 2,1,2
 255 708 255 708 249 702 c 128,-1,3
 243 696 243 696 243 688 c 0,4,5
 249 536 249 536 220 326.5 c 128,-1,6
 191 117 191 117 163 39 c 1,7,-1
 402 40 l 1,8,-1
 402 684 l 2,9,10
 403 694 403 694 398 701.5 c 128,-1,11
 393 709 393 709 386 708 c 2,0,-1
67 38 m 1,12,-1
 124 39 l 1,13,14
 159 133 159 133 179 282 c 128,-1,15
 199 431 199 431 201.5 508.5 c 128,-1,16
 204 586 204 586 207 722 c 0,17,18
 207 738 207 738 224.5 746 c 128,-1,19
 242 754 242 754 257 754 c 2,20,-1
 407 754 l 2,21,22
 439 754 439 754 439 707 c 2,23,-1
 438 39 l 1,24,-1
 491 39 l 1,25,-1
 491 -78 l 2,26,27
 491 -82 491 -82 473 -82 c 128,-1,28
 455 -82 455 -82 455 -78 c 2,29,-1
 455 2 l 1,30,-1
 103 2 l 1,31,-1
 103 -75 l 2,32,33
 103 -82 103 -82 85 -81.5 c 128,-1,34
 67 -81 67 -81 67 -75 c 2,35,-1
 67 38 l 1,12,-1
EndSplineSet
EndChar

StartChar: uni0416
Encoding: 1046 1046 298
Width: 910
Flags: W
LayerCount: 2
Fore
SplineSet
624 390 m 1,0,1
 646 404 646 404 669 446 c 128,-1,2
 692 488 692 488 709.5 536 c 128,-1,3
 727 584 727 584 744 629.5 c 128,-1,4
 761 675 761 675 778.5 704 c 128,-1,5
 796 733 796 733 811 730 c 0,6,7
 819 729 819 729 829.5 738.5 c 128,-1,8
 840 748 840 748 843 758.5 c 128,-1,9
 846 769 846 769 840 774 c 0,10,11
 805 790 805 790 774.5 766 c 128,-1,12
 744 742 744 742 721 693 c 128,-1,13
 698 644 698 644 678 590.5 c 128,-1,14
 658 537 658 537 634 489 c 128,-1,15
 610 441 610 441 587 425 c 0,16,17
 571 414 571 414 545.5 410.5 c 128,-1,18
 520 407 520 407 503 409 c 2,19,-1
 486 411 l 1,20,-1
 487 768 l 2,21,22
 487 773 487 773 466.5 773 c 128,-1,23
 446 773 446 773 446 768 c 2,24,-1
 446 410 l 1,25,26
 383 401 383 401 345 424 c 0,27,28
 317 441 317 441 288.5 491.5 c 128,-1,29
 260 542 260 542 237 596.5 c 128,-1,30
 214 651 214 651 189 701.5 c 128,-1,31
 164 752 164 752 132.5 775.5 c 128,-1,32
 101 799 101 799 65 781 c 0,33,34
 59 776 59 776 61 767 c 128,-1,35
 63 758 63 758 71 749.5 c 128,-1,36
 79 741 79 741 86 742 c 0,37,38
 110 746 110 746 139 699 c 128,-1,39
 168 652 168 652 191 590.5 c 128,-1,40
 214 529 214 529 245.5 467.5 c 128,-1,41
 277 406 277 406 304 389 c 1,42,43
 268 366 268 366 213 274.5 c 128,-1,44
 158 183 158 183 122 104 c 2,45,-1
 85 24 l 2,46,47
 83 21 83 21 91.5 14 c 128,-1,48
 100 7 100 7 110 3 c 128,-1,49
 120 -1 120 -1 123 3 c 0,50,51
 140 39 140 39 167.5 93.5 c 128,-1,52
 195 148 195 148 255 245.5 c 128,-1,53
 315 343 315 343 345 356 c 0,54,55
 363 364 363 364 388.5 367.5 c 128,-1,56
 414 371 414 371 430 370 c 2,57,-1
 446 370 l 1,58,-1
 446 6 l 2,59,60
 446 1 446 1 466.5 1 c 128,-1,61
 487 1 487 1 487 6 c 2,62,-1
 486 369 l 1,63,64
 546 373 546 373 587 355 c 0,65,66
 617 342 617 342 673 253.5 c 128,-1,67
 729 165 729 165 770 84 c 2,68,-1
 810 2 l 2,69,70
 813 -2 813 -2 823 2 c 128,-1,71
 833 6 833 6 841.5 13 c 128,-1,72
 850 20 850 20 848 23 c 0,73,74
 832 58 832 58 806 111.5 c 128,-1,75
 780 165 780 165 720 266 c 128,-1,76
 660 367 660 367 624 390 c 1,0,1
EndSplineSet
EndChar

StartChar: uni0417
Encoding: 1047 1047 299
Width: 438
Flags: W
LayerCount: 2
Fore
SplineSet
308 148 m 0,0,1
 306 103 306 103 281.5 73 c 128,-1,2
 257 43 257 43 211 43 c 0,3,4
 164 43 164 43 137.5 74.5 c 128,-1,5
 111 106 111 106 111 153 c 0,6,7
 111 156 111 156 100.5 157 c 128,-1,8
 90 158 90 158 80 156.5 c 128,-1,9
 70 155 70 155 70 152 c 0,10,11
 70 77 70 77 113.5 39 c 128,-1,12
 157 1 157 1 213 1 c 0,13,14
 278 1 278 1 314.5 44 c 128,-1,15
 351 87 351 87 351 149 c 0,16,17
 351 213 351 213 318 296.5 c 128,-1,18
 285 380 285 380 260 396 c 1,19,20
 286 412 286 412 317.5 490.5 c 128,-1,21
 349 569 349 569 349 632 c 0,22,23
 349 694 349 694 312 737 c 128,-1,24
 275 780 275 780 210 780 c 0,25,26
 154 780 154 780 111 743 c 128,-1,27
 68 706 68 706 68 632 c 0,28,29
 68 626 68 626 88.5 626 c 128,-1,30
 109 626 109 626 109 632 c 0,31,32
 109 678 109 678 134.5 707.5 c 128,-1,33
 160 737 160 737 208 737 c 0,34,35
 255 737 255 737 280.5 707 c 128,-1,36
 306 677 306 677 306 633 c 0,37,38
 306 571 306 571 279.5 512 c 128,-1,39
 253 453 253 453 216 416 c 0,40,41
 213 413 213 413 213.5 394.5 c 128,-1,42
 214 376 214 376 218 373 c 0,43,44
 251 347 251 347 280.5 280 c 128,-1,45
 310 213 310 213 308 148 c 0,0,1
EndSplineSet
EndChar

StartChar: uni041B
Encoding: 1051 1051 303
Width: 551
Flags: W
LayerCount: 2
Fore
SplineSet
134 775 m 1,0,-1
 493 776 l 1,1,-1
 493 0 l 2,2,3
 493 -4 493 -4 475 -4 c 128,-1,4
 457 -4 457 -4 457 0 c 2,5,-1
 457 739 l 1,6,-1
 172 739 l 1,7,-1
 168 62 l 2,8,9
 168 50 168 50 164 37 c 128,-1,10
 160 24 160 24 145.5 11 c 128,-1,11
 131 -2 131 -2 107 -2 c 0,12,13
 70 -2 70 -2 43 31 c 0,14,15
 39 36 39 36 51.5 48.5 c 128,-1,16
 64 61 64 61 69 57 c 0,17,18
 72 54 72 54 77 49 c 128,-1,19
 82 44 82 44 84.5 42 c 128,-1,20
 87 40 87 40 93 38 c 128,-1,21
 99 36 99 36 107 36 c 0,22,23
 117 36 117 36 124.5 43.5 c 128,-1,24
 132 51 132 51 132 62 c 2,25,-1
 134 775 l 1,0,-1
EndSplineSet
EndChar

StartChar: uni041F
Encoding: 1055 1055 307
Width: 486
Flags: W
LayerCount: 2
Fore
SplineSet
103 8 m 2,0,-1
 107 739 l 1,1,-1
 392 739 l 1,2,-1
 392 5 l 2,3,4
 392 1 392 1 410 1 c 128,-1,5
 428 1 428 1 428 5 c 2,6,-1
 428 776 l 1,7,-1
 69 775 l 1,8,-1
 67 8 l 2,9,10
 67 2 67 2 85 1.5 c 128,-1,11
 103 1 103 1 103 8 c 2,0,-1
EndSplineSet
EndChar

StartChar: uni0424
Encoding: 1060 1060 312
Width: 781
Flags: W
LayerCount: 2
Fore
SplineSet
404 655 m 1,0,1
 553 651 553 651 639.5 583 c 128,-1,2
 726 515 726 515 726 382 c 0,3,4
 726 313 726 313 702.5 262.5 c 128,-1,5
 679 212 679 212 635 182.5 c 128,-1,6
 591 153 591 153 534.5 138.5 c 128,-1,7
 478 124 478 124 404 123 c 1,8,-1
 404 4 l 2,9,10
 404 2 404 2 386.5 2 c 128,-1,11
 369 2 369 2 369 4 c 2,12,-1
 369 123 l 1,13,14
 222 126 222 126 137 192.5 c 128,-1,15
 52 259 52 259 52 382 c 0,16,17
 52 512 52 512 138 581.5 c 128,-1,18
 224 651 224 651 369 655 c 1,19,-1
 369 779 l 2,20,21
 369 781 369 781 386.5 781 c 128,-1,22
 404 781 404 781 404 779 c 2,23,-1
 404 655 l 1,0,1
404 151 m 1,24,25
 468 153 468 153 520 167 c 128,-1,26
 572 181 572 181 612 208 c 128,-1,27
 652 235 652 235 674 279.5 c 128,-1,28
 696 324 696 324 696 382 c 0,29,30
 696 442 696 442 674 487.5 c 128,-1,31
 652 533 652 533 612 561.5 c 128,-1,32
 572 590 572 590 519.5 605 c 128,-1,33
 467 620 467 620 404 622 c 1,34,-1
 404 151 l 1,24,25
369 151 m 1,35,-1
 369 622 l 1,36,37
 240 618 240 618 162 557 c 128,-1,38
 84 496 84 496 84 382 c 0,39,40
 84 272 84 272 162 213 c 128,-1,41
 240 154 240 154 369 151 c 1,35,-1
EndSplineSet
EndChar

StartChar: uni0426
Encoding: 1062 1062 314
Width: 486
Flags: W
LayerCount: 2
Fore
SplineSet
69 0 m 1,0,-1
 67 773 l 2,1,2
 67 779 67 779 85 779.5 c 128,-1,3
 103 780 103 780 103 773 c 2,4,-1
 107 42 l 1,5,-1
 392 42 l 1,6,-1
 392 776 l 2,7,8
 392 780 392 780 410 781 c 128,-1,9
 428 782 428 782 428 776 c 2,10,-1
 430 42 l 1,11,-1
 498 42 l 2,12,13
 514 42 514 42 514 28 c 2,14,-1
 514 -57 l 2,15,16
 514 -62 514 -62 496 -62 c 128,-1,17
 478 -62 478 -62 478 -57 c 0,18,19
 478 -14 478 -14 473.5 -7 c 128,-1,20
 469 0 469 0 438 0 c 2,21,-1
 69 0 l 1,0,-1
EndSplineSet
EndChar

StartChar: uni0428
Encoding: 1064 1064 316
Width: 712
Flags: W
LayerCount: 2
Fore
SplineSet
51 758 m 2,0,-1
 51 0 l 1,1,-1
 663 0 l 1,2,-1
 663 753 l 2,3,4
 663 757 663 757 652.5 758.5 c 128,-1,5
 642 760 642 760 632 758.5 c 128,-1,6
 622 757 622 757 622 753 c 2,7,-1
 622 41 l 1,8,-1
 383 41 l 1,9,-1
 383 748 l 2,10,11
 383 757 383 757 361.5 756.5 c 128,-1,12
 340 756 340 756 340 748 c 2,13,-1
 340 41 l 1,14,-1
 94 41 l 1,15,-1
 94 759 l 2,16,17
 94 763 94 763 83 764.5 c 128,-1,18
 72 766 72 766 61.5 764.5 c 128,-1,19
 51 763 51 763 51 758 c 2,0,-1
EndSplineSet
EndChar

StartChar: uni0429
Encoding: 1065 1065 317
Width: 805
Flags: W
LayerCount: 2
Fore
SplineSet
663 753 m 2,0,1
 663 757 663 757 652.5 758.5 c 128,-1,2
 642 760 642 760 632 758.5 c 128,-1,3
 622 757 622 757 622 753 c 2,4,-1
 622 41 l 1,5,-1
 383 41 l 1,6,-1
 383 748 l 2,7,8
 383 757 383 757 361.5 756.5 c 128,-1,9
 340 756 340 756 340 748 c 2,10,-1
 340 41 l 1,11,-1
 94 41 l 1,12,-1
 94 759 l 2,13,14
 94 763 94 763 83 764.5 c 128,-1,15
 72 766 72 766 61.5 764.5 c 128,-1,16
 51 763 51 763 51 758 c 2,17,-1
 51 0 l 1,18,-1
 673 0 l 2,19,20
 704 0 704 0 708 -6.5 c 128,-1,21
 712 -13 712 -13 712 -57 c 0,22,23
 712 -62 712 -62 730 -62 c 128,-1,24
 748 -62 748 -62 748 -57 c 2,25,-1
 748 28 l 2,26,27
 748 42 748 42 732 42 c 2,28,-1
 665 42 l 1,29,30
 665 41 665 41 664.5 219 c 128,-1,31
 664 397 664 397 664 575 c 2,32,-1
 663 753 l 2,0,1
EndSplineSet
EndChar

StartChar: uni042A
Encoding: 1066 1066 318
Width: 617
Flags: W
LayerCount: 2
Fore
SplineSet
255 777 m 1,0,-1
 255 345 l 1,1,-1
 439 345 l 2,2,3
 496 345 496 345 532 294.5 c 128,-1,4
 568 244 568 244 568 169 c 0,5,6
 568 0 568 0 438 0 c 2,7,-1
 223 0 l 1,8,-1
 223 749 l 1,9,-1
 48 749 l 2,10,11
 43 749 43 749 43 763 c 128,-1,12
 43 777 43 777 48 777 c 2,13,-1
 255 777 l 1,0,-1
255 31 m 1,14,-1
 410 31 l 2,15,16
 466 31 466 31 499 66 c 128,-1,17
 532 101 532 101 532 169 c 0,18,19
 532 227 532 227 503 270 c 128,-1,20
 474 313 474 313 412 313 c 2,21,-1
 255 313 l 1,22,-1
 255 31 l 1,14,-1
EndSplineSet
EndChar

StartChar: uni042C
Encoding: 1068 1068 319
Width: 453
Flags: W
LayerCount: 2
Fore
SplineSet
91 345 m 1,0,-1
 91 777 l 2,1,2
 91 780 91 780 75 780 c 128,-1,3
 59 780 59 780 59 777 c 2,4,-1
 59 0 l 1,5,-1
 274 0 l 2,6,7
 404 0 404 0 404 169 c 0,8,9
 404 244 404 244 368 294.5 c 128,-1,10
 332 345 332 345 275 345 c 2,11,-1
 91 345 l 1,0,-1
91 31 m 1,12,-1
 91 313 l 1,13,-1
 248 313 l 2,14,15
 310 313 310 313 339 270 c 128,-1,16
 368 227 368 227 368 169 c 0,17,18
 368 101 368 101 335 66 c 128,-1,19
 302 31 302 31 246 31 c 2,20,-1
 91 31 l 1,12,-1
EndSplineSet
EndChar

StartChar: uni042E
Encoding: 1070 1070 320
Width: 892
Flags: W
LayerCount: 2
Fore
SplineSet
554 749 m 0,0,1
 479 749 479 749 424.5 697 c 128,-1,2
 370 645 370 645 346 568.5 c 128,-1,3
 322 492 322 492 322 403 c 0,4,5
 322 336 322 336 335.5 272.5 c 128,-1,6
 349 209 349 209 375.5 153.5 c 128,-1,7
 402 98 402 98 448.5 64 c 128,-1,8
 495 30 495 30 554 30 c 0,9,10
 614 30 614 30 662 64 c 128,-1,11
 710 98 710 98 737.5 153.5 c 128,-1,12
 765 209 765 209 779.5 273 c 128,-1,13
 794 337 794 337 794 403 c 0,14,15
 794 492 794 492 768.5 569 c 128,-1,16
 743 646 743 646 687 697.5 c 128,-1,17
 631 749 631 749 554 749 c 0,0,1
294 375 m 1,18,-1
 97 375 l 1,19,-1
 97 4 l 2,20,21
 97 0 97 0 76.5 0 c 128,-1,22
 56 0 56 0 56 4 c 2,23,-1
 56 774 l 2,24,25
 56 778 56 778 66 779.5 c 128,-1,26
 76 781 76 781 86.5 779.5 c 128,-1,27
 97 778 97 778 97 775 c 2,28,-1
 97 415 l 1,29,-1
 294 415 l 1,30,31
 296 514 296 514 324.5 595.5 c 128,-1,32
 353 677 353 677 412.5 729 c 128,-1,33
 472 781 472 781 554 781 c 0,34,35
 683 781 683 781 755 670 c 128,-1,36
 827 559 827 559 827 403 c 0,37,38
 827 327 827 327 810.5 257 c 128,-1,39
 794 187 794 187 762 128.5 c 128,-1,40
 730 70 730 70 676 35.5 c 128,-1,41
 622 1 622 1 554 1 c 0,42,43
 500 1 500 1 456 22 c 128,-1,44
 412 43 412 43 383.5 78.5 c 128,-1,45
 355 114 355 114 335 163 c 128,-1,46
 315 212 315 212 305.5 264.5 c 128,-1,47
 296 317 296 317 294 375 c 1,18,-1
EndSplineSet
EndChar

StartChar: uni042F
Encoding: 1071 1071 321
Width: 431
Flags: W
LayerCount: 2
Fore
SplineSet
326 740 m 1,0,-1
 325 426 l 1,1,2
 111 426 111 426 111 573 c 0,3,4
 111 657 111 657 175.5 698.5 c 128,-1,5
 240 740 240 740 326 740 c 1,0,-1
362 780 m 1,6,7
 223 780 223 780 149.5 733 c 128,-1,8
 76 686 76 686 76 573 c 0,9,10
 76 469 76 469 138 429.5 c 0,11,12
 182.068156791 401.424319464 182.068156791 401.424319464 258.469340727 393.304179119 c 1,13,14
 246.324793873 384.780775175 246.324793873 384.780775175 232 373.5 c 0,15,16
 192 342 192 342 165 308 c 0,17,18
 65 183 65 183 65 7 c 0,19,20
 65 1 65 1 84 1.5 c 128,-1,21
 103 2 103 2 104 7 c 0,22,23
 106 18 106 18 109.5 45 c 128,-1,24
 113 72 113 72 114.5 81 c 128,-1,25
 116 90 116 90 119.5 110.5 c 128,-1,26
 123 131 123 131 127 141.5 c 128,-1,27
 131 152 131 152 137 169.5 c 128,-1,28
 143 187 143 187 150.5 202 c 128,-1,29
 158 217 158 217 169 235 c 0,30,31
 219 318 219 318 326 390 c 1,32,-1
 326 4 l 2,33,34
 326 0 326 0 343.5 0 c 128,-1,35
 361 0 361 0 361 4 c 2,36,-1
 362 780 l 1,6,7
EndSplineSet
EndChar

StartChar: uni0431
Encoding: 1073 1073 323
Width: 495
Flags: W
LayerCount: 2
Fore
SplineSet
249 0 m 0,0,1
 71 0 71 0 69 242 c 0,2,3
 69 251 69 251 69 270 c 0,4,5
 69 346 69 346 70 386.5 c 128,-1,6
 71 427 71 427 76 496 c 128,-1,7
 81 565 81 565 94.5 603.5 c 128,-1,8
 108 642 108 642 130 684.5 c 128,-1,9
 152 727 152 727 189.5 746 c 128,-1,10
 227 765 227 765 278 765 c 0,11,12
 297 765 297 765 318.5 764 c 128,-1,13
 340 763 340 763 352 762.5 c 128,-1,14
 364 762 364 762 375.5 762 c 128,-1,15
 387 762 387 762 391.5 764.5 c 128,-1,16
 396 767 396 767 396 773 c 0,17,18
 396 775 396 775 407 776.5 c 128,-1,19
 418 778 418 778 429 777.5 c 128,-1,20
 440 777 440 777 440 775 c 0,21,22
 440 761 440 761 437.5 752 c 128,-1,23
 435 743 435 743 427.5 737.5 c 128,-1,24
 420 732 420 732 412 730 c 128,-1,25
 404 728 404 728 389 728 c 128,-1,26
 374 728 374 728 360 729 c 128,-1,27
 346 730 346 730 322 731 c 128,-1,28
 298 732 298 732 277 732 c 0,29,30
 224 732 224 732 188.5 701 c 128,-1,31
 153 670 153 670 136.5 614 c 128,-1,32
 120 558 120 558 114 503 c 128,-1,33
 108 448 108 448 108 378 c 1,34,35
 173 443 173 443 256 443 c 0,36,37
 304 443 304 443 342.5 418.5 c 128,-1,38
 381 394 381 394 401.5 355 c 128,-1,39
 422 316 422 316 431.5 269 c 128,-1,40
 441 222 441 222 431.5 174.5 c 128,-1,41
 422 127 422 127 401.5 88 c 128,-1,42
 381 49 381 49 341 24.5 c 128,-1,43
 301 0 301 0 249 0 c 0,0,1
255 402 m 0,44,45
 188 402 188 402 146 350 c 128,-1,46
 104 298 104 298 104 225 c 0,47,48
 104 147 104 147 140 92.5 c 128,-1,49
 176 38 176 38 243 38 c 0,50,51
 334 38 334 38 376 129 c 128,-1,52
 418 220 418 220 383.5 311 c 128,-1,53
 349 402 349 402 255 402 c 0,44,45
EndSplineSet
EndChar

StartChar: uni0432
Encoding: 1074 1074 324
Width: 290
Flags: W
LayerCount: 2
Fore
SplineSet
140 205 m 1,0,1
 189 204 189 204 217.5 171.5 c 128,-1,2
 246 139 246 139 246 94 c 0,3,4
 246 75 246 75 240 59.5 c 128,-1,5
 234 44 234 44 225 34 c 128,-1,6
 216 24 216 24 199 17 c 128,-1,7
 182 10 182 10 168.5 7 c 128,-1,8
 155 4 155 4 131.5 2 c 128,-1,9
 108 0 108 0 95 0 c 128,-1,10
 82 0 82 0 57 0 c 0,11,12
 48 0 48 0 44 0 c 1,13,-1
 44 390 l 1,14,-1
 84 390 l 2,15,16
 215 390 215 390 215 297 c 0,17,18
 215 207 215 207 140 205 c 1,0,1
71 362 m 1,19,-1
 71 222 l 1,20,21
 132 222 132 222 161 237.5 c 128,-1,22
 190 253 190 253 190 294 c 0,23,24
 190 334 190 334 159 348 c 128,-1,25
 128 362 128 362 71 362 c 1,19,-1
71 188 m 1,26,-1
 71 30 l 1,27,28
 103 30 103 30 126.5 32 c 128,-1,29
 150 34 150 34 171.5 40.5 c 128,-1,30
 193 47 193 47 204.5 60 c 128,-1,31
 216 73 216 73 216 93 c 0,32,33
 216 188 216 188 71 188 c 1,26,-1
EndSplineSet
EndChar

StartChar: uni0433
Encoding: 1075 1075 325
Width: 335
Flags: W
LayerCount: 2
Fore
SplineSet
53 3 m 2,0,-1
 52 390 l 1,1,-1
 279 390 l 2,2,3
 284 390 284 390 283 375.5 c 128,-1,4
 282 361 282 361 279 361 c 2,5,-1
 83 361 l 1,6,-1
 83 3 l 2,7,8
 83 0 83 0 68 0 c 128,-1,9
 53 0 53 0 53 3 c 2,0,-1
EndSplineSet
EndChar

StartChar: uni0434
Encoding: 1076 1076 326
Width: 563
Flags: W
LayerCount: 2
Fore
SplineSet
386 343 m 2,0,-1
 263 343 l 2,1,2
 246 343 246 343 243 323 c 0,3,4
 224 208 224 208 207 147 c 128,-1,5
 190 86 190 86 163 37 c 1,6,-1
 402 38 l 1,7,-1
 402 319 l 2,8,9
 403 329 403 329 398 336.5 c 128,-1,10
 393 344 393 344 386 343 c 2,0,-1
67 36 m 1,11,-1
 124 37 l 1,12,13
 147 99 147 99 160.5 136 c 128,-1,14
 174 173 174 173 182 206.5 c 128,-1,15
 190 240 190 240 192.5 250.5 c 128,-1,16
 195 261 195 261 199.5 300 c 128,-1,17
 204 339 204 339 207 357 c 0,18,19
 209 373 209 373 225.5 381 c 128,-1,20
 242 389 242 389 257 389 c 2,21,-1
 407 389 l 2,22,23
 439 389 439 389 439 342 c 2,24,-1
 438 37 l 1,25,-1
 491 37 l 1,26,-1
 491 -80 l 2,27,28
 491 -84 491 -84 473 -84 c 128,-1,29
 455 -84 455 -84 455 -80 c 2,30,-1
 455 0 l 1,31,-1
 103 0 l 1,32,-1
 103 -77 l 2,33,34
 103 -84 103 -84 85 -83.5 c 128,-1,35
 67 -83 67 -83 67 -77 c 2,36,-1
 67 36 l 1,11,-1
EndSplineSet
EndChar

StartChar: uni0436
Encoding: 1078 1078 328
Width: 526
Flags: W
LayerCount: 2
Fore
SplineSet
350 188 m 1,0,1
 363 196 363 196 376 224.5 c 128,-1,2
 389 253 389 253 397.5 281 c 128,-1,3
 406 309 406 309 416.5 331 c 128,-1,4
 427 353 427 353 436 351 c 0,5,6
 439 350 439 350 444 355 c 128,-1,7
 449 360 449 360 450.5 365 c 128,-1,8
 452 370 452 370 449 372 c 0,9,10
 425 384 425 384 406 364.5 c 128,-1,11
 387 345 387 345 377 314 c 128,-1,12
 367 283 367 283 354 249.5 c 128,-1,13
 341 216 341 216 328 208 c 0,14,15
 320 202 320 202 309 200.5 c 128,-1,16
 298 199 298 199 291 200 c 2,17,-1
 285 201 l 1,18,-1
 285 373 l 2,19,20
 285 375 285 375 270.5 375.5 c 128,-1,21
 256 376 256 376 256 373 c 2,22,-1
 256 200 l 1,23,24
 230 196 230 196 212 207 c 0,25,26
 196 217 196 217 179.5 251 c 128,-1,27
 163 285 163 285 151 316.5 c 128,-1,28
 139 348 139 348 119.5 367.5 c 128,-1,29
 100 387 100 387 77 375 c 0,30,31
 73 373 73 373 76.5 358.5 c 128,-1,32
 80 344 80 344 86 345 c 0,33,34
 97 347 97 347 111 326 c 128,-1,35
 125 305 125 305 137 278 c 128,-1,36
 149 251 149 251 164 223.5 c 128,-1,37
 179 196 179 196 192 187 c 1,38,39
 175 176 175 176 147.5 132.5 c 128,-1,40
 120 89 120 89 101 52 c 2,41,-1
 82 14 l 2,42,43
 81 13 81 13 83.5 11 c 128,-1,44
 86 9 86 9 90 7 c 128,-1,45
 94 5 94 5 98 3.5 c 128,-1,46
 102 2 102 2 105 1.5 c 128,-1,47
 108 1 108 1 109 2 c 0,48,49
 117 19 117 19 130 44 c 128,-1,50
 143 69 143 69 171 114 c 128,-1,51
 199 159 199 159 214 165 c 0,52,53
 223 169 223 169 233.5 171 c 128,-1,54
 244 173 244 173 250 172 c 2,55,-1
 256 172 l 1,56,-1
 256 3 l 2,57,58
 256 1 256 1 270.5 1 c 128,-1,59
 285 1 285 1 285 3 c 2,60,-1
 285 172 l 1,61,62
 309 174 309 174 328 165 c 0,63,64
 343 159 343 159 368.5 118 c 128,-1,65
 394 77 394 77 413 39 c 2,66,-1
 431 2 l 2,67,68
 433 -1 433 -1 444.5 7 c 128,-1,69
 456 15 456 15 454 18 c 0,70,71
 447 34 447 34 435 58.5 c 128,-1,72
 423 83 423 83 395 130 c 128,-1,73
 367 177 367 177 350 188 c 1,0,1
EndSplineSet
EndChar

StartChar: uni0437
Encoding: 1079 1079 329
Width: 232
Flags: W
LayerCount: 2
Fore
SplineSet
167 75 m 0,0,1
 166 53 166 53 156 42 c 128,-1,2
 146 31 146 31 123 31 c 128,-1,3
 100 31 100 31 91 42.5 c 128,-1,4
 82 54 82 54 82 78 c 0,5,6
 82 80 82 80 66 80.5 c 128,-1,7
 50 81 50 81 50 78 c 0,8,9
 50 34 50 34 72 17 c 128,-1,10
 94 0 94 0 125 0 c 0,11,12
 158 0 158 0 176 20 c 128,-1,13
 194 40 194 40 194 76 c 0,14,15
 194 108 194 108 177.5 150 c 128,-1,16
 161 192 161 192 148 200 c 1,17,18
 161 208 161 208 176.5 247 c 128,-1,19
 192 286 192 286 192 318 c 0,20,21
 192 349 192 349 173.5 370.5 c 128,-1,22
 155 392 155 392 123 392 c 0,23,24
 95 392 95 392 73.5 373.5 c 128,-1,25
 52 355 52 355 52 318 c 0,26,27
 52 316 52 316 59 315 c 128,-1,28
 66 314 66 314 73.5 314 c 128,-1,29
 81 314 81 314 81 316 c 0,30,31
 81 338 81 338 92.5 350.5 c 128,-1,32
 104 363 104 363 123 363 c 0,33,34
 141 363 141 363 151.5 351 c 128,-1,35
 162 339 162 339 162 318 c 0,36,37
 162 264 162 264 116 218 c 0,38,39
 114 217 114 217 114.5 198.5 c 128,-1,40
 115 180 115 180 117 179 c 0,41,42
 135 164 135 164 151.5 135 c 128,-1,43
 168 106 168 106 167 75 c 0,0,1
EndSplineSet
EndChar

StartChar: uni0438
Encoding: 1080 1080 330
Width: 309
Flags: W
LayerCount: 2
Fore
SplineSet
47 390 m 1,0,-1
 234 100 l 1,1,-1
 234 388 l 2,2,3
 234 389 234 389 241.5 389.5 c 128,-1,4
 249 390 249 390 256.5 389.5 c 128,-1,5
 264 389 264 389 264 388 c 2,6,-1
 264 2 l 1,7,-1
 75 294 l 1,8,-1
 75 3 l 2,9,10
 75 1 75 1 68 0.5 c 128,-1,11
 61 0 61 0 54 0.5 c 128,-1,12
 47 1 47 1 47 2 c 2,13,-1
 47 390 l 1,0,-1
EndSplineSet
EndChar

StartChar: uni043A
Encoding: 1082 1082 332
Width: 323
Flags: W
LayerCount: 2
Fore
SplineSet
266 368 m 2,0,-1
 130 209 l 1,1,-1
 251 20 l 2,2,3
 253 17 253 17 240.5 7.5 c 128,-1,4
 228 -2 228 -2 226 1 c 2,5,-1
 108 186 l 1,6,-1
 77 152 l 1,7,-1
 77 2 l 2,8,9
 77 0 77 0 60.5 0 c 128,-1,10
 44 0 44 0 44 2 c 2,11,-1
 44 387 l 2,12,13
 44 390 44 390 60 390 c 128,-1,14
 76 390 76 390 76 387 c 2,15,-1
 76 192 l 1,16,-1
 246 388 l 2,17,18
 249 391 249 391 259 381 c 128,-1,19
 269 371 269 371 266 368 c 2,0,-1
EndSplineSet
EndChar

StartChar: uni043B
Encoding: 1083 1083 333
Width: 363
Flags: W
LayerCount: 2
Fore
SplineSet
106 406 m 2,0,-1
 286 406 l 2,1,2
 294 406 294 406 294 398 c 2,3,-1
 294 10 l 2,4,5
 294 5 294 5 289.5 2.5 c 128,-1,6
 285 0 285 0 281 1 c 2,7,-1
 277 1 l 2,8,9
 260 -2 260 -2 260 10 c 2,10,-1
 260 372 l 1,11,-1
 133 372 l 1,12,-1
 131 41 l 2,13,14
 131 34 131 34 128.5 26.5 c 128,-1,15
 126 19 126 19 117 10.5 c 128,-1,16
 108 2 108 2 93 2 c 0,17,18
 71 2 71 2 55 21 c 0,19,20
 50 28 50 28 58 38 c 0,21,22
 70 52 70 52 79 45 c 0,23,24
 81 43 81 43 83 40.5 c 128,-1,25
 85 38 85 38 86 37.5 c 128,-1,26
 87 37 87 37 88.5 36.5 c 128,-1,27
 90 36 90 36 93 36 c 0,28,29
 98 36 98 36 98 42 c 2,30,-1
 99 398 l 2,31,32
 99 406 99 406 106 406 c 2,0,-1
EndSplineSet
EndChar

StartChar: uni043C
Encoding: 1084 1084 334
Width: 625
Flags: W
LayerCount: 2
Fore
SplineSet
62 3 m 2,0,-1
 62 401 l 1,1,-1
 270 60 l 1,2,-1
 474 401 l 1,3,-1
 474 5 l 2,4,5
 474 2 474 2 466 1 c 128,-1,6
 458 0 458 0 450 1 c 128,-1,7
 442 2 442 2 442 5 c 2,8,-1
 443 299 l 1,9,-1
 268 2 l 1,10,-1
 95 289 l 1,11,-1
 94 3 l 2,12,13
 94 0 94 0 78 0 c 128,-1,14
 62 0 62 0 62 3 c 2,0,-1
EndSplineSet
EndChar

StartChar: uni043D
Encoding: 1085 1085 335
Width: 426
Flags: W
LayerCount: 2
Fore
SplineSet
56 381 m 2,0,1
 56 385 56 385 66 386.5 c 128,-1,2
 76 388 76 388 86 386.5 c 128,-1,3
 96 385 96 385 96 382 c 2,4,-1
 96 218 l 1,5,-1
 320 218 l 1,6,-1
 320 383 l 2,7,8
 320 387 320 387 340.5 387 c 128,-1,9
 361 387 361 387 361 383 c 2,10,-1
 361 5 l 2,11,12
 361 0 361 0 339.5 0 c 128,-1,13
 318 0 318 0 318 5 c 2,14,-1
 318 179 l 1,15,-1
 96 179 l 1,16,-1
 96 4 l 2,17,18
 96 0 96 0 76 0 c 128,-1,19
 56 0 56 0 56 4 c 2,20,-1
 56 381 l 2,0,1
EndSplineSet
EndChar

StartChar: uni043F
Encoding: 1087 1087 337
Width: 276
Flags: W
LayerCount: 2
Fore
SplineSet
82 14 m 2,0,-1
 84 372 l 1,1,-1
 212 372 l 1,2,-1
 212 12 l 2,3,4
 212 7 212 7 216 4.5 c 128,-1,5
 220 2 220 2 224 3 c 2,6,-1
 228 3 l 2,7,8
 245 0 245 0 245 12 c 2,9,-1
 245 398 l 2,10,11
 245 406 245 406 237 406 c 2,12,-1
 58 405 l 2,13,14
 50 405 50 405 50 398 c 2,15,-1
 49 14 l 2,16,17
 49 4 49 4 65 3 c 0,18,19
 82 3 82 3 82 14 c 2,0,-1
EndSplineSet
EndChar

StartChar: uni0442
Encoding: 1090 1090 340
Width: 456
Flags: W
LayerCount: 2
Fore
SplineSet
76 405 m 2,0,-1
 368 405 l 2,1,2
 379 405 379 405 378 390 c 0,3,4
 378 373 378 373 368 373 c 2,5,-1
 236 373 l 1,6,-1
 236 10 l 2,7,8
 236 0 236 0 220 0 c 128,-1,9
 204 0 204 0 204 10 c 2,10,-1
 204 373 l 1,11,-1
 76 373 l 2,12,13
 65 373 65 373 66 388 c 0,14,15
 66 405 66 405 76 405 c 2,0,-1
EndSplineSet
EndChar

StartChar: uni0444
Encoding: 1092 1092 342
Width: 728
Flags: W
LayerCount: 2
Fore
SplineSet
380 187 m 0,0,1
 380 123 380 123 420.5 78.5 c 128,-1,2
 461 34 461 34 515 34 c 0,3,4
 577 34 577 34 613 74.5 c 128,-1,5
 649 115 649 115 649 187 c 0,6,7
 649 256 649 256 616.5 304 c 128,-1,8
 584 352 584 352 516 352 c 0,9,10
 451 352 451 352 415.5 305 c 128,-1,11
 380 258 380 258 380 187 c 0,0,1
77 188 m 0,12,13
 77 124 77 124 117.5 79.5 c 128,-1,14
 158 35 158 35 212 35 c 0,15,16
 267 35 267 35 301.5 67 c 128,-1,17
 336 99 336 99 344 156 c 1,18,-1
 344 221 l 1,19,20
 337 279 337 279 304.5 316 c 128,-1,21
 272 353 272 353 213 353 c 0,22,23
 148 353 148 353 112.5 306 c 128,-1,24
 77 259 77 259 77 188 c 0,12,13
44 188 m 0,25,26
 44 277 44 277 86.5 332 c 128,-1,27
 129 387 129 387 212 387 c 0,28,29
 301 387 301 387 344 324 c 1,30,-1
 344 740 l 2,31,32
 344 742 344 742 361.5 742 c 128,-1,33
 379 742 379 742 379 740 c 2,34,-1
 379 316 l 1,35,36
 423 386 423 386 515 386 c 0,37,38
 599 386 599 386 640.5 331.5 c 128,-1,39
 682 277 682 277 682 187 c 0,40,41
 682 96 682 96 640 48 c 128,-1,42
 598 0 598 0 515 0 c 0,43,44
 424 0 424 0 379 69 c 1,45,-1
 379 -121 l 2,46,47
 379 -123 379 -123 361.5 -123 c 128,-1,48
 344 -123 344 -123 344 -121 c 2,49,-1
 344 58 l 1,50,51
 302 1 302 1 212 1 c 0,52,53
 128 1 128 1 86 56 c 128,-1,54
 44 111 44 111 44 188 c 0,25,26
EndSplineSet
EndChar

StartChar: uni0446
Encoding: 1094 1094 344
Width: 318
Flags: W
LayerCount: 2
Fore
SplineSet
45 8 m 2,0,-1
 44 395 l 2,1,2
 44 405 44 405 60 405 c 0,3,4
 77 406 77 406 77 395 c 2,5,-1
 79 37 l 1,6,-1
 206 37 l 1,7,-1
 206 396 l 2,8,9
 206 407 206 407 223 406 c 0,10,11
 240 406 240 406 240 396 c 2,12,-1
 240 37 l 1,13,-1
 267 37 l 2,14,15
 273 37 273 37 277.5 33 c 128,-1,16
 282 29 282 29 282 22 c 2,17,-1
 282 -20 l 2,18,19
 282 -30 282 -30 267 -31 c 0,20,21
 250 -31 250 -31 250 -20 c 0,22,23
 250 -3 250 -3 249 0 c 0,24,25
 247 1 247 1 237 1 c 2,26,-1
 52 1 l 2,27,28
 45 1 45 1 45 8 c 2,0,-1
EndSplineSet
EndChar

StartChar: uni0447
Encoding: 1095 1095 345
Width: 377
Flags: W
LayerCount: 2
Fore
SplineSet
276 392 m 2,0,-1
 276 5 l 2,1,2
 276 -6 276 -6 260 -6 c 128,-1,3
 244 -6 244 -6 244 5 c 2,4,-1
 244 392 l 2,5,6
 244 403 244 403 260 403 c 128,-1,7
 276 403 276 403 276 392 c 2,0,-1
187 224 m 0,8,9
 199 223 199 223 205 224 c 0,10,11
 214 224 214 224 222 227 c 0,12,13
 231 231 231 231 238 237 c 0,14,15
 241 240 241 240 242 243 c 0,16,17
 244 246 244 246 244 251 c 2,18,-1
 244 392 l 2,19,20
 244 394 244 394 244 395 c 0,21,22
 245 397 245 397 246 398.5 c 128,-1,23
 247 400 247 400 249 400 c 0,24,25
 250 401 250 401 252 401 c 0,26,27
 260 402 260 402 268 401 c 0,28,29
 270 401 270 401 271 400 c 0,30,31
 273 400 273 400 274 398.5 c 128,-1,32
 275 397 275 397 276 395 c 0,33,34
 276 394 276 394 276 392 c 2,35,-1
 276 245 l 2,36,37
 276 235 276 235 274 229 c 0,38,39
 271 222 271 222 264 216 c 0,40,41
 253 205 253 205 236 198 c 0,42,43
 218 192 218 192 187 193 c 0,44,45
 164 193 164 193 150 198 c 0,46,47
 133 203 133 203 122 215 c 0,48,49
 116 221 116 221 113 228 c 0,50,51
 111 234 111 234 111 244 c 2,52,-1
 111 391 l 2,53,54
 111 393 111 393 111 394 c 256,55,56
 111 395 111 395 112 396 c 0,57,58
 113 398 113 398 115 399 c 0,59,60
 118 401 118 401 123 401 c 0,61,62
 125 401 125 401 127 401 c 256,63,64
 129 401 129 401 131 401 c 0,65,66
 136 401 136 401 139 399 c 0,67,68
 141 398 141 398 142 396 c 0,69,70
 143 395 143 395 143 394 c 256,71,72
 143 393 143 393 143 391 c 2,73,-1
 143 249 l 2,74,75
 143 243 143 243 145 239 c 0,76,77
 147 234 147 234 152 231 c 256,78,79
 157 228 157 228 163 226 c 0,80,81
 170 225 170 225 187 224 c 0,8,9
EndSplineSet
EndChar

StartChar: uni0448
Encoding: 1096 1096 346
Width: 455
Flags: W
LayerCount: 2
Fore
SplineSet
64 389 m 2,0,-1
 64 10 l 2,1,2
 64 2 64 2 71 2 c 2,3,-1
 377 2 l 2,4,5
 384 2 384 2 384 10 c 2,6,-1
 384 386 l 2,7,8
 384 387 384 387 384 387 c 2,9,10
 383 399 383 399 367.5 398 c 128,-1,11
 352 397 352 397 349 388 c 2,12,-1
 349 38 l 1,13,-1
 244 38 l 1,14,-1
 244 384 l 2,15,16
 244 395 244 395 228 396 c 0,17,18
 208 396 208 396 208 384 c 2,19,-1
 208 38 l 1,20,-1
 100 38 l 1,21,-1
 100 390 l 2,22,23
 100 400 100 400 82 400 c 256,24,25
 64 400 64 400 64 389 c 2,0,-1
EndSplineSet
EndChar

StartChar: uni0449
Encoding: 1097 1097 347
Width: 449
Flags: W
LayerCount: 2
Fore
SplineSet
370 387 m 2,0,1
 369 399 369 399 353.5 398 c 128,-1,2
 338 397 338 397 335 388 c 2,3,-1
 335 38 l 1,4,-1
 230 38 l 1,5,-1
 230 384 l 2,6,7
 230 395 230 395 214 396 c 0,8,9
 194 396 194 396 194 384 c 2,10,-1
 194 38 l 1,11,-1
 86 38 l 1,12,-1
 86 390 l 2,13,14
 86 400 86 400 68 400 c 256,15,16
 50 400 50 400 50 389 c 2,17,-1
 50 10 l 2,18,19
 50 2 50 2 57 2 c 2,20,-1
 368 2 l 2,21,22
 377 2 377 2 379 2 c 0,23,24
 380 -1 380 -1 380 -18 c 0,25,26
 380 -28 380 -28 395 -29 c 0,27,28
 413 -29 413 -29 413 -18 c 2,29,-1
 413 24 l 2,30,31
 413 31 413 31 408.5 34.5 c 128,-1,32
 404 38 404 38 398 38 c 2,33,-1
 371 38 l 1,34,-1
 370 387 l 2,0,1
EndSplineSet
EndChar

StartChar: uni044A
Encoding: 1098 1098 348
Width: 402
Flags: W
LayerCount: 2
Fore
SplineSet
169 398 m 2,0,-1
 169 189 l 1,1,-1
 254 189 l 2,2,3
 286 189 286 189 306 161 c 128,-1,4
 326 133 326 133 326 94 c 0,5,6
 326 48 326 48 306.5 25 c 128,-1,7
 287 2 287 2 253 2 c 2,8,-1
 146 2 l 2,9,10
 138 2 138 2 138 9 c 2,11,-1
 138 376 l 1,12,-1
 58 376 l 2,13,14
 47 376 47 376 47 390.5 c 128,-1,15
 47 405 47 405 58 405 c 2,16,-1
 162 405 l 2,17,18
 169 405 169 405 169 398 c 2,0,-1
169 32 m 1,19,-1
 239 32 l 2,20,21
 292 32 292 32 292 94 c 0,22,23
 292 120 292 120 279.5 139 c 128,-1,24
 267 158 267 158 240 158 c 2,25,-1
 169 158 l 1,26,-1
 169 32 l 1,19,-1
EndSplineSet
EndChar

StartChar: uni044C
Encoding: 1100 1100 349
Width: 275
Flags: W
LayerCount: 2
Fore
SplineSet
76 189 m 1,0,-1
 76 398 l 2,1,2
 76 408 76 408 60.5 408 c 128,-1,3
 45 408 45 408 45 398 c 2,4,-1
 45 9 l 2,5,6
 45 2 45 2 52 2 c 2,7,-1
 160 2 l 2,8,9
 194 2 194 2 213 25 c 128,-1,10
 232 48 232 48 232 94 c 0,11,12
 232 133 232 133 212.5 161 c 128,-1,13
 193 189 193 189 160 189 c 2,14,-1
 76 189 l 1,0,-1
76 32 m 1,15,-1
 76 158 l 1,16,-1
 147 158 l 2,17,18
 174 158 174 158 187 139 c 128,-1,19
 200 120 200 120 200 94 c 0,20,21
 200 32 200 32 146 32 c 2,22,-1
 76 32 l 1,15,-1
EndSplineSet
EndChar

StartChar: uni044E
Encoding: 1102 1102 350
Width: 488
Flags: W
LayerCount: 2
Fore
SplineSet
302 375 m 0,0,1
 251 375 251 375 222.5 326 c 128,-1,2
 194 277 194 277 194 210 c 0,3,4
 194 165 194 165 204.5 125.5 c 128,-1,5
 215 86 215 86 240.5 58 c 128,-1,6
 266 30 266 30 302 30 c 256,7,8
 338 30 338 30 364.5 58 c 128,-1,9
 391 86 391 86 402.5 125.5 c 128,-1,10
 414 165 414 165 414 210 c 0,11,12
 414 277 414 277 384.5 326 c 128,-1,13
 355 375 355 375 302 375 c 0,0,1
165 188 m 1,14,-1
 81 188 l 1,15,-1
 81 10 l 2,16,17
 81 4 81 4 77 2 c 128,-1,18
 73 0 73 0 69 0 c 2,19,-1
 65 1 l 2,20,21
 61 0 61 0 58 0 c 128,-1,22
 55 0 55 0 50.5 2 c 128,-1,23
 46 4 46 4 46 10 c 2,24,-1
 46 395 l 2,25,26
 46 405 46 405 62 406 c 0,27,28
 81 406 81 406 81 396 c 2,29,-1
 81 223 l 1,30,-1
 165 223 l 1,31,32
 168 300 168 300 203.5 353 c 128,-1,33
 239 406 239 406 302 406 c 0,34,35
 371 406 371 406 408.5 348 c 128,-1,36
 446 290 446 290 446 210 c 0,37,38
 446 126 446 126 409.5 63.5 c 128,-1,39
 373 1 373 1 302 1 c 0,40,41
 267 1 267 1 240.5 17 c 128,-1,42
 214 33 214 33 198.5 61 c 128,-1,43
 183 89 183 89 175 120.5 c 128,-1,44
 167 152 167 152 165 188 c 1,14,-1
EndSplineSet
EndChar

StartChar: uni044F
Encoding: 1103 1103 351
Width: 245
Flags: W
LayerCount: 2
Fore
SplineSet
178 374 m 1,0,-1
 178 232 l 1,1,2
 86 235 86 235 86 298 c 0,3,4
 86 334 86 334 112.5 353 c 128,-1,5
 139 372 139 372 178 374 c 1,0,-1
204 409 m 0,6,7
 53 409 53 409 53 298 c 0,8,9
 53 218 53 218 132 203 c 1,10,11
 112 186 112 186 99 170 c 0,12,13
 48 106 48 106 48 15 c 0,14,15
 48 3 48 3 64 3.5 c 128,-1,16
 80 4 80 4 82 14 c 0,17,18
 83 20 83 20 84.5 33 c 128,-1,19
 86 46 86 46 87 50.5 c 128,-1,20
 88 55 88 55 89.5 65 c 128,-1,21
 91 75 91 75 93 80.5 c 128,-1,22
 95 86 95 86 98 94 c 128,-1,23
 101 102 101 102 104.5 109.5 c 128,-1,24
 108 117 108 117 113 125 c 0,25,26
 135 161 135 161 178 192 c 1,27,-1
 178 14 l 2,28,29
 178 3 178 3 194.5 3 c 128,-1,30
 211 3 211 3 211 14 c 2,31,-1
 211 402 l 2,32,33
 211 409 211 409 204 409 c 0,6,7
EndSplineSet
EndChar

StartChar: uni0452
Encoding: 1106 1106 352
Width: 472
Flags: W
LayerCount: 2
Fore
SplineSet
147 338 m 1,0,1
 171 358 171 358 202.5 372 c 128,-1,2
 234 386 234 386 260 386 c 0,3,4
 337 386 337 386 376.5 326.5 c 128,-1,5
 416 267 416 267 416 130 c 0,6,7
 416 -31 416 -31 388 -88 c 0,8,9
 335 -196 335 -196 284 -248 c 0,10,11
 279 -253 279 -253 270 -240 c 0,12,13
 256 -223 256 -223 271 -210 c 0,14,15
 293 -190 293 -190 322.5 -140 c 128,-1,16
 352 -90 352 -90 363 -62 c 0,17,18
 382 -16 382 -16 382 128 c 0,19,20
 382 196 382 196 371.5 242 c 128,-1,21
 361 288 361 288 342 310.5 c 128,-1,22
 323 333 323 333 302.5 341.5 c 128,-1,23
 282 350 282 350 255 350 c 0,24,25
 230 350 230 350 191.5 326 c 128,-1,26
 153 302 153 302 147 276 c 1,27,-1
 147 5 l 2,28,29
 147 2 147 2 138.5 1 c 128,-1,30
 130 0 130 0 122 1 c 128,-1,31
 114 2 114 2 114 5 c 2,32,-1
 116 528 l 1,33,-1
 50 528 l 2,34,35
 46 528 46 528 46 545.5 c 128,-1,36
 46 563 46 563 50 563 c 2,37,-1
 114 563 l 1,38,-1
 114 761 l 2,39,40
 114 764 114 764 122.5 765.5 c 128,-1,41
 131 767 131 767 139 765.5 c 128,-1,42
 147 764 147 764 147 761 c 2,43,-1
 145 563 l 1,44,-1
 291 563 l 2,45,46
 297 563 297 563 297 545.5 c 128,-1,47
 297 528 297 528 291 528 c 2,48,-1
 147 528 l 1,49,-1
 147 338 l 1,0,1
EndSplineSet
EndChar

StartChar: uni0454
Encoding: 1108 1108 354
Width: 377
Flags: W
LayerCount: 2
Fore
SplineSet
80 230 m 1,0,1
 87 287 87 287 118 329 c 128,-1,2
 149 371 149 371 194 371 c 0,3,4
 228 371 228 371 256.5 362 c 128,-1,5
 285 353 285 353 289 338 c 0,6,7
 289 332 289 332 298 330.5 c 128,-1,8
 307 329 307 329 315.5 332.5 c 128,-1,9
 324 336 324 336 324 343 c 0,10,11
 309 405 309 405 196 405 c 0,12,13
 125 405 125 405 85.5 343.5 c 128,-1,14
 46 282 46 282 46 202 c 0,15,16
 46 112 46 112 82.5 56.5 c 128,-1,17
 119 1 119 1 196 1 c 0,18,19
 258 1 258 1 293 22 c 128,-1,20
 328 43 328 43 337 93 c 0,21,22
 339 101 339 101 331 104.5 c 128,-1,23
 323 108 323 108 313 106 c 128,-1,24
 303 104 303 104 301 98 c 0,25,26
 301 97 301 97 301 97 c 1,27,28
 295 64 295 64 270.5 51 c 128,-1,29
 246 38 246 38 198 38 c 0,30,31
 134 38 134 38 107.5 78 c 128,-1,32
 81 118 81 118 80 197 c 1,33,-1
 192 197 l 2,34,35
 203 197 203 197 203 213 c 0,36,37
 204 230 204 230 192 230 c 2,38,-1
 80 230 l 1,0,1
EndSplineSet
EndChar

StartChar: uni0459
Encoding: 1113 1113 359
Width: 568
Flags: W
LayerCount: 2
Fore
SplineSet
351 32 m 1,0,-1
 418 32 l 2,1,2
 472 32 472 32 472 94 c 0,3,4
 472 120 472 120 459 139 c 128,-1,5
 446 158 446 158 419 158 c 2,6,-1
 351 158 l 1,7,-1
 351 32 l 1,0,-1
350 398 m 2,8,-1
 350 189 l 1,9,-1
 434 189 l 2,10,11
 467 189 467 189 486.5 161 c 128,-1,12
 506 133 506 133 506 94 c 0,13,14
 506 48 506 48 487 25 c 128,-1,15
 468 2 468 2 434 2 c 2,16,-1
 326 2 l 2,17,18
 319 2 319 2 319 9 c 2,19,-1
 319 376 l 1,20,-1
 263 376 l 1,21,-1
 263 107 l 2,22,23
 263 0 263 0 156 0 c 0,24,25
 44 0 44 0 44 119 c 0,26,27
 44 124 44 124 53 126 c 128,-1,28
 62 128 62 128 71.5 125.5 c 128,-1,29
 81 123 81 123 81 117 c 0,30,31
 81 74 81 74 98 55 c 128,-1,32
 115 36 115 36 156 36 c 0,33,34
 229 36 229 36 229 121 c 2,35,-1
 229 383.074352825 l 2,36,37
 228 386.128085504 228 386.128085504 228 390.5 c 0,38,39
 228 405 228 405 239 405 c 2,40,-1
 342 405 l 2,41,42
 350 405 350 405 350 398 c 2,8,-1
EndSplineSet
EndChar

StartChar: uni045A
Encoding: 1114 1114 360
Width: 594
Flags: W
LayerCount: 2
Fore
SplineSet
457 30 m 17,0,1
 481 30 481 30 495.5 51 c 128,-1,2
 510 72 510 72 510 104 c 0,3,4
 510 133 510 133 497.5 155.5 c 128,-1,5
 485 178 485 178 458 178 c 2,6,-1
 356 178 l 9,7,-1
 356 30 l 1,8,-1
 457 30 l 17,0,1
355 218 m 1,9,-1
 472 218 l 2,10,11
 503 218 503 218 523.5 182 c 128,-1,12
 544 146 544 146 544 104 c 0,13,14
 544 58 544 58 524 29 c 128,-1,15
 504 0 504 0 471 0 c 2,16,-1
 364 0 l 0,17,-1
 312 0 l 2,18,-1
 312 179 l 1,19,-1
 90 179 l 1,20,-1
 90 4 l 2,21,22
 90 0 90 0 70 0 c 128,-1,23
 50 0 50 0 50 4 c 2,24,-1
 50 381 l 2,25,26
 50 385 50 385 60 386.5 c 128,-1,27
 70 388 70 388 80 386.5 c 128,-1,28
 90 385 90 385 90 382 c 2,29,-1
 90 218 l 1,30,-1
 314 218 l 1,31,-1
 314 383 l 2,32,33
 314 387 314 387 334.5 387 c 128,-1,34
 355 387 355 387 355 383 c 2,35,-1
 355 218 l 1,9,-1
EndSplineSet
EndChar

StartChar: uni045B
Encoding: 1115 1115 361
Width: 441
Flags: W
LayerCount: 2
Fore
SplineSet
147 357 m 1,0,1
 187 386 187 386 252 386 c 0,2,3
 314 386 314 386 352 363.5 c 128,-1,4
 390 341 390 341 390 298 c 2,5,-1
 390 4 l 2,6,7
 390 0 390 0 372.5 0 c 128,-1,8
 355 0 355 0 355 4 c 2,9,-1
 355 288 l 2,10,11
 355 352 355 352 252 354 c 0,12,13
 211 354 211 354 179.5 335.5 c 128,-1,14
 148 317 148 317 148 285 c 2,15,-1
 148 3 l 1,16,-1
 148 2 l 2,17,18
 148 0 148 0 130.5 0 c 128,-1,19
 113 0 113 0 113 2 c 2,20,-1
 113 3 l 1,21,-1
 113 296 l 1,22,-1
 111 549 l 1,23,-1
 45 549 l 2,24,25
 41 549 41 549 41 566.5 c 128,-1,26
 41 584 41 584 45 584 c 2,27,-1
 111 584 l 1,28,-1
 111 782 l 2,29,30
 111 785 111 785 119.5 786.5 c 128,-1,31
 128 788 128 788 136.5 786.5 c 128,-1,32
 145 785 145 785 145 782 c 2,33,-1
 146 584 l 1,34,-1
 286 584 l 2,35,36
 292 584 292 584 292 566.5 c 128,-1,37
 292 549 292 549 286 549 c 2,38,-1
 146 549 l 1,39,-1
 147 357 l 1,0,1
EndSplineSet
EndChar

StartChar: uni045F
Encoding: 1119 1119 363
Width: 423
Flags: W
LayerCount: 2
Fore
SplineSet
237 -148 m 1,0,-1
 193 -148 l 1,1,-1
 193 0 l 1,2,-1
 58 0 l 1,3,-1
 56 385 l 2,4,5
 56 391 56 391 74 391.5 c 128,-1,6
 92 392 92 392 92 385 c 2,7,-1
 96 37 l 1,8,-1
 334 37 l 1,9,-1
 334 388 l 2,10,11
 334 392 334 392 352 392 c 128,-1,12
 370 392 370 392 370 388 c 2,13,-1
 370 0 l 1,14,-1
 237 0 l 1,15,-1
 237 -148 l 1,0,-1
EndSplineSet
EndChar

StartChar: uni0490
Encoding: 1168 1168 364
Width: 497
Flags: W
LayerCount: 2
Fore
SplineSet
329 777 m 2,0,-1
 54 777 l 1,1,-1
 54 5 l 2,2,3
 54 0 54 0 73.5 0 c 128,-1,4
 93 0 93 0 93 5 c 2,5,-1
 95 735 l 1,6,-1
 328 735 l 2,7,8
 377 735 377 735 407 767.5 c 128,-1,9
 437 800 437 800 437 842 c 0,10,11
 437 849 437 849 415.5 849 c 128,-1,12
 394 849 394 849 394 842 c 0,13,14
 394 817 394 817 374.5 797 c 128,-1,15
 355 777 355 777 329 777 c 2,0,-1
EndSplineSet
EndChar

StartChar: uni0491
Encoding: 1169 1169 365
Width: 413
Flags: W
LayerCount: 2
Fore
SplineSet
278 358 m 2,0,1
 323 358 323 358 350 386.5 c 128,-1,2
 377 415 377 415 377 455 c 0,3,4
 377 462 377 462 360.5 462 c 128,-1,5
 344 462 344 462 344 455 c 0,6,7
 344 430 344 430 324.5 410 c 128,-1,8
 305 390 305 390 279 390 c 2,9,-1
 52 390 l 1,10,-1
 53 3 l 2,11,12
 53 0 53 0 68 0 c 128,-1,13
 83 0 83 0 83 3 c 2,14,-1
 83 358 l 1,15,-1
 278 358 l 2,0,1
EndSplineSet
EndChar

StartChar: quoteleft
Encoding: 8216 8216 366
Width: 219
Flags: W
LayerCount: 2
Fore
SplineSet
115 708 m 1,0,-1
 51 489 l 1,1,-1
 130 489 l 1,2,-1
 174 708 l 1,3,-1
 115 708 l 1,0,-1
EndSplineSet
EndChar

StartChar: quoteright
Encoding: 8217 8217 367
Width: 216
Flags: W
LayerCount: 2
Fore
SplineSet
112 489 m 1,0,-1
 176 708 l 1,1,-1
 97 708 l 1,2,-1
 53 489 l 1,3,-1
 112 489 l 1,0,-1
EndSplineSet
EndChar

StartChar: quotedblleft
Encoding: 8220 8220 369
Width: 373
Flags: W
LayerCount: 2
Fore
SplineSet
115 708 m 1,0,-1
 51 489 l 1,1,-1
 130 489 l 1,2,-1
 174 708 l 1,3,-1
 115 708 l 1,0,-1
268 708 m 1,4,-1
 204 489 l 1,5,-1
 283 489 l 1,6,-1
 327 708 l 1,7,-1
 268 708 l 1,4,-1
EndSplineSet
EndChar

StartChar: quotedblright
Encoding: 8221 8221 370
Width: 377
Flags: W
LayerCount: 2
Fore
SplineSet
112 490 m 1,0,-1
 176 709 l 1,1,-1
 97 709 l 1,2,-1
 53 490 l 1,3,-1
 112 490 l 1,0,-1
272 490 m 1,4,-1
 336 709 l 1,5,-1
 257 709 l 1,6,-1
 213 490 l 1,7,-1
 272 490 l 1,4,-1
EndSplineSet
EndChar

StartChar: bullet
Encoding: 8226 8226 371
Width: 654
Flags: W
LayerCount: 2
Fore
SplineSet
503 260 m 0,0,1
 556 261 556 261 592.5 226 c 128,-1,2
 629 191 629 191 628 138 c 0,3,4
 627 80 627 80 597 46 c 256,5,6
 567 12 567 12 503 14 c 0,7,8
 378 18 378 18 376 138 c 0,9,10
 375 191 375 191 412 225 c 256,11,12
 449 259 449 259 503 260 c 0,0,1
EndSplineSet
EndChar

StartChar: Euro
Encoding: 8364 8364 372
Width: 667
Flags: W
LayerCount: 2
Fore
SplineSet
538 664 m 0,0,1
 527 703 527 703 466.5 722 c 128,-1,2
 406 741 406 741 334 741 c 0,3,4
 260 741 260 741 202.5 686.5 c 128,-1,5
 145 632 145 632 117.5 553 c 0,6,7
 110.421581143 532.665633103 110.421581143 532.665633103 105.165126414 512 c 1,8,-1
 412 512 l 2,9,10
 418 512 418 512 418 492 c 128,-1,11
 418 472 418 472 412 472 c 2,12,-1
 96.749066158 472 l 1,13,14
 90 431.613551469 90 431.613551469 90 390 c 0,15,16
 90 374.621918822 90 374.621918822 90.4396292771 360 c 1,17,-1
 406 360 l 2,18,19
 412 360 412 360 412 340 c 128,-1,20
 412 320 412 320 406 320 c 2,21,-1
 92.5745252494 320 l 1,22,23
 95.6728798345 280.543261601 95.6728798345 280.543261601 102.5 247.5 c 0,24,25
 115 187 115 187 143 139.5 c 128,-1,26
 171 92 171 92 220.5 68 c 128,-1,27
 270 44 270 44 340 44 c 0,28,29
 426 44 426 44 473.5 60 c 128,-1,30
 521 76 521 76 552 106 c 0,31,32
 554 108 554 108 563.5 104 c 128,-1,33
 573 100 573 100 580 93.5 c 128,-1,34
 587 87 587 87 584 84 c 0,35,36
 541 35 541 35 495 18 c 128,-1,37
 449 1 449 1 337 1 c 0,38,39
 191 1 191 1 121.5 106.5 c 0,40,41
 66.1265605618 190.556084327 66.1265605618 190.556084327 54.8713627814 320 c 1,42,-1
 -25 320 l 2,43,44
 -29 320 -29 320 -29.5 340 c 128,-1,45
 -30 360 -30 360 -25 360 c 2,46,-1
 52.4825213229 360 l 1,47,48
 52 374.251796586 52 374.251796586 52 389 c 0,49,50
 52 431.660546249 52 431.660546249 57.6634656965 472 c 1,51,-1
 -27 472 l 2,52,53
 -31 472 -31 472 -31.5 492 c 128,-1,54
 -32 512 -32 512 -27 512 c 2,55,-1
 64.7950731613 512 l 1,56,57
 71.7547394673 544.025736522 71.7547394673 544.025736522 82.5 574.5 c 0,58,59
 113 661 113 661 179.5 720 c 128,-1,60
 246 779 246 779 337 779 c 0,61,62
 434 779 434 779 486 755.5 c 128,-1,63
 538 732 538 732 572 683 c 0,64,65
 575 679 575 679 566.5 673.5 c 128,-1,66
 558 668 558 668 548.5 665 c 128,-1,67
 539 662 539 662 538 664 c 0,0,1
EndSplineSet
EndChar

StartChar: uni25EF
Encoding: 9711 9711 377
Width: 857
Flags: W
LayerCount: 2
Fore
SplineSet
122 366 m 128,-1,1
 122 238 122 238 213 147 c 128,-1,2
 304 56 304 56 432 56 c 128,-1,3
 560 56 560 56 651 147 c 128,-1,4
 742 238 742 238 742 366 c 128,-1,5
 742 494 742 494 651 585 c 128,-1,6
 560 676 560 676 432 676 c 128,-1,7
 304 676 304 676 213 585 c 128,-1,0
 122 494 122 494 122 366 c 128,-1,1
62 368 m 128,-1,9
 62 520 62 520 170 628 c 128,-1,10
 278 736 278 736 430 736 c 128,-1,11
 582 736 582 736 690 628 c 128,-1,12
 798 520 798 520 798 368 c 128,-1,13
 798 216 798 216 690 108 c 128,-1,14
 582 0 582 0 430 0 c 128,-1,15
 278 0 278 0 170 108 c 128,-1,8
 62 216 62 216 62 368 c 128,-1,9
EndSplineSet
EndChar

StartChar: uni2639
Encoding: 9785 9785 378
Width: 856
Flags: W
LayerCount: 2
Fore
SplineSet
647 173 m 1,0,1
 647 232 647 232 585.5 274.5 c 128,-1,2
 524 317 524 317 437 317 c 128,-1,3
 350 317 350 317 288.5 274.5 c 128,-1,4
 227 232 227 232 227 173 c 1,5,6
 227 203 227 203 290 224.5 c 128,-1,7
 353 246 353 246 439 246 c 128,-1,8
 525 246 525 246 586 224.5 c 128,-1,9
 647 203 647 203 647 173 c 1,0,1
483 480 m 128,-1,11
 483 518 483 518 503 545 c 128,-1,12
 523 572 523 572 551 572 c 128,-1,13
 579 572 579 572 599 545 c 128,-1,14
 619 518 619 518 619 480 c 128,-1,15
 619 442 619 442 599 415 c 128,-1,16
 579 388 579 388 551 388 c 128,-1,17
 523 388 523 388 503 415 c 128,-1,10
 483 442 483 442 483 480 c 128,-1,11
247 478 m 128,-1,19
 247 516 247 516 267 543 c 128,-1,20
 287 570 287 570 315 570 c 128,-1,21
 343 570 343 570 363 543 c 128,-1,22
 383 516 383 516 383 478 c 128,-1,23
 383 440 383 440 363 413 c 128,-1,24
 343 386 343 386 315 386 c 128,-1,25
 287 386 287 386 267 413 c 128,-1,18
 247 440 247 440 247 478 c 128,-1,19
122 366 m 128,-1,27
 122 238 122 238 213 147 c 128,-1,28
 304 56 304 56 432 56 c 128,-1,29
 560 56 560 56 651 147 c 128,-1,30
 742 238 742 238 742 366 c 128,-1,31
 742 494 742 494 651 585 c 128,-1,32
 560 676 560 676 432 676 c 128,-1,33
 304 676 304 676 213 585 c 128,-1,26
 122 494 122 494 122 366 c 128,-1,27
62 368 m 128,-1,35
 62 520 62 520 170 628 c 128,-1,36
 278 736 278 736 430 736 c 128,-1,37
 582 736 582 736 690 628 c 128,-1,38
 798 520 798 520 798 368 c 128,-1,39
 798 216 798 216 690 108 c 128,-1,40
 582 0 582 0 430 0 c 128,-1,41
 278 0 278 0 170 108 c 128,-1,34
 62 216 62 216 62 368 c 128,-1,35
EndSplineSet
EndChar

StartChar: smileface
Encoding: 9786 9786 379
Width: 872
Flags: W
LayerCount: 2
Fore
SplineSet
647 295 m 1,0,1
 647 236 647 236 585.5 193.5 c 128,-1,2
 524 151 524 151 437 151 c 128,-1,3
 350 151 350 151 288.5 193.5 c 128,-1,4
 227 236 227 236 227 295 c 1,5,6
 227 265 227 265 290 243.5 c 128,-1,7
 353 222 353 222 439 222 c 128,-1,8
 525 222 525 222 586 243.5 c 128,-1,9
 647 265 647 265 647 295 c 1,0,1
481 480 m 128,-1,11
 481 518 481 518 501 545 c 128,-1,12
 521 572 521 572 549 572 c 128,-1,13
 577 572 577 572 597 545 c 128,-1,14
 617 518 617 518 617 480 c 128,-1,15
 617 442 617 442 597 415 c 128,-1,16
 577 388 577 388 549 388 c 128,-1,17
 521 388 521 388 501 415 c 128,-1,10
 481 442 481 442 481 480 c 128,-1,11
245 478 m 128,-1,19
 245 516 245 516 265 543 c 128,-1,20
 285 570 285 570 313 570 c 128,-1,21
 341 570 341 570 361 543 c 128,-1,22
 381 516 381 516 381 478 c 128,-1,23
 381 440 381 440 361 413 c 128,-1,24
 341 386 341 386 313 386 c 128,-1,25
 285 386 285 386 265 413 c 128,-1,18
 245 440 245 440 245 478 c 128,-1,19
122 366 m 128,-1,27
 122 238 122 238 213 147 c 128,-1,28
 304 56 304 56 432 56 c 128,-1,29
 560 56 560 56 651 147 c 128,-1,30
 742 238 742 238 742 366 c 128,-1,31
 742 494 742 494 651 585 c 128,-1,32
 560 676 560 676 432 676 c 128,-1,33
 304 676 304 676 213 585 c 128,-1,26
 122 494 122 494 122 366 c 128,-1,27
62 368 m 128,-1,35
 62 520 62 520 170 628 c 128,-1,36
 278 736 278 736 430 736 c 128,-1,37
 582 736 582 736 690 628 c 128,-1,38
 798 520 798 520 798 368 c 128,-1,39
 798 216 798 216 690 108 c 128,-1,40
 582 0 582 0 430 0 c 128,-1,41
 278 0 278 0 170 108 c 128,-1,34
 62 216 62 216 62 368 c 128,-1,35
EndSplineSet
EndChar

StartChar: uni2764
Encoding: 10084 10084 380
Width: 766
Flags: W
LayerCount: 2
Fore
SplineSet
384 493 m 1,0,1
 382 497 382 497 378.5 504 c 128,-1,2
 375 511 375 511 361 528 c 128,-1,3
 347 545 347 545 330 558 c 128,-1,4
 313 571 313 571 284 581.5 c 128,-1,5
 255 592 255 592 221 591 c 0,6,7
 173 590 173 590 147 577 c 0,8,9
 81 544 81 544 64 461 c 0,10,11
 53 404 53 404 62 362 c 0,12,13
 74 309 74 309 94 278 c 128,-1,14
 114 247 114 247 153 211 c 0,15,16
 176 190 176 190 235.5 139.5 c 128,-1,17
 295 89 295 89 343 49 c 2,18,-1
 391 9 l 1,19,20
 575 182 575 182 611 211 c 0,21,22
 651 243 651 243 671 273 c 128,-1,23
 691 303 691 303 705 358 c 0,24,25
 710 376 710 376 710.5 409.5 c 128,-1,26
 711 443 711 443 706 461 c 0,27,28
 684 547 684 547 617 577 c 0,29,30
 584 592 584 592 555 592 c 0,31,32
 520 592 520 592 489.5 582 c 128,-1,33
 459 572 459 572 440.5 557.5 c 128,-1,34
 422 543 422 543 408.5 528.5 c 128,-1,35
 395 514 395 514 390 504 c 2,36,-1
 384 493 l 1,0,1
EndSplineSet
EndChar

StartChar: uniFFFD
Encoding: 65533 65533 381
Width: 503
Flags: W
LayerCount: 2
Fore
SplineSet
33 0 m 1,0,-1
 33 780 l 1,1,-1
 465 780 l 1,2,-1
 465 0 l 1,3,-1
 33 0 l 1,0,-1
67 33 m 1,4,-1
 431 33 l 1,5,-1
 431 747 l 1,6,-1
 67 747 l 1,7,-1
 67 33 l 1,4,-1
272 724 m 0,8,9
 310 724 310 724 339.5 707.5 c 128,-1,10
 369 691 369 691 383.5 666.5 c 128,-1,11
 398 642 398 642 405.5 618.5 c 128,-1,12
 413 595 413 595 413 576 c 0,13,14
 413 544 413 544 396 512.5 c 128,-1,15
 379 481 379 481 359 461 c 128,-1,16
 339 441 339 441 312.5 417.5 c 128,-1,17
 286 394 286 394 278 385 c 0,18,19
 266 372 266 372 257 344 c 128,-1,20
 248 316 248 316 248 293 c 0,21,22
 248 291 248 291 239 290 c 128,-1,23
 230 289 230 289 221 290 c 128,-1,24
 212 291 212 291 212 293 c 0,25,26
 213 366 213 366 259 413 c 0,27,28
 272 427 272 427 297 449 c 128,-1,29
 322 471 322 471 336.5 485.5 c 128,-1,30
 351 500 351 500 363 524 c 128,-1,31
 375 548 375 548 375 575 c 0,32,33
 375 620 375 620 346 655.5 c 128,-1,34
 317 691 317 691 266 691 c 0,35,36
 213 691 213 691 175.5 657.5 c 128,-1,37
 138 624 138 624 133 598 c 0,38,39
 133 596 133 596 128.5 595.5 c 128,-1,40
 124 595 124 595 118 596.5 c 128,-1,41
 112 598 112 598 106 600 c 128,-1,42
 100 602 100 602 96.5 605 c 128,-1,43
 93 608 93 608 94 610 c 0,44,45
 114 661 114 661 159 692.5 c 128,-1,46
 204 724 204 724 272 724 c 0,8,9
230 71 m 0,47,48
 215 71 215 71 205 78.5 c 128,-1,49
 195 86 195 86 193 96.5 c 128,-1,50
 191 107 191 107 193.5 117.5 c 128,-1,51
 196 128 196 128 206 135.5 c 128,-1,52
 216 143 216 143 231 143 c 0,53,54
 245 143 245 143 254.5 135.5 c 128,-1,55
 264 128 264 128 266.5 117.5 c 128,-1,56
 269 107 269 107 266.5 96.5 c 128,-1,57
 264 86 264 86 254 78.5 c 128,-1,58
 244 71 244 71 230 71 c 0,47,48
EndSplineSet
EndChar

StartChar: glyph9693
Encoding: 65537 -1 382
Width: 286
Flags: W
LayerCount: 2
Fore
SplineSet
48 586 m 2,0,1
 48 588 48 588 57 589.5 c 128,-1,2
 66 591 66 591 75.5 590 c 128,-1,3
 85 589 85 589 85 587 c 2,4,-1
 85 499 l 1,5,-1
 211 594 l 2,6,7
 213 596 213 596 219.5 588.5 c 128,-1,8
 226 581 226 581 230.5 572 c 128,-1,9
 235 563 235 563 232 561 c 2,10,-1
 51 436 l 1,11,-1
 48 586 l 2,0,1
EndSplineSet
EndChar

StartChar: glyph9694
Encoding: 65538 -1 383
Width: 392
Flags: W
LayerCount: 2
Fore
SplineSet
191 -67 m 0,0,1
 201 -76 201 -76 209 -92.5 c 128,-1,2
 217 -109 217 -109 216.5 -129.5 c 128,-1,3
 216 -150 216 -150 203 -165 c 0,4,5
 198 -170 198 -170 192 -175 c 0,6,7
 144 -205 144 -205 106 -172 c 0,8,9
 96 -163 96 -163 95 -145 c 0,10,11
 95 -138 95 -138 102 -131 c 128,-1,12
 109 -124 109 -124 115 -127 c 256,13,14
 121 -130 121 -130 125.5 -138.5 c 128,-1,15
 130 -147 130 -147 139 -153 c 0,16,17
 156 -164 156 -164 175 -154 c 1,18,19
 175 -154 175 -154 176 -154 c 0,20,21
 185 -145 185 -145 183.5 -126.5 c 128,-1,22
 182 -108 182 -108 168 -96 c 0,23,24
 162 -90 162 -90 155 -88 c 2,25,-1
 154 -87 l 2,26,27
 153 -85 153 -85 154.5 -78.5 c 128,-1,28
 156 -72 156 -72 159 -63.5 c 128,-1,29
 162 -55 162 -55 163 -53 c 0,30,31
 165 -46 165 -46 174 -52 c 128,-1,32
 183 -58 183 -58 191 -67 c 0,0,1
EndSplineSet
EndChar

StartChar: glyph9695
Encoding: 65539 -1 384
Width: 289
Flags: W
LayerCount: 2
Fore
SplineSet
42 -117 m 0,0,1
 42 -220 42 -220 104 -220 c 0,2,3
 144 -220 144 -220 159 -192.5 c 128,-1,4
 174 -165 174 -165 175 -113 c 2,5,-1
 175 373 l 2,6,7
 175 376 175 376 195.5 376 c 128,-1,8
 216 376 216 376 216 373 c 2,9,-1
 216 -114 l 2,10,11
 216 -194 216 -194 191.5 -228 c 128,-1,12
 167 -262 167 -262 105 -262 c 0,13,14
 49 -262 49 -262 24.5 -226 c 128,-1,15
 0 -190 0 -190 0 -117 c 0,16,17
 0 -113 0 -113 21 -113 c 128,-1,18
 42 -113 42 -113 42 -117 c 0,0,1
EndSplineSet
EndChar

StartChar: glyph9697
Encoding: 65541 -1 386
Width: 467
Flags: W
LayerCount: 2
Fore
SplineSet
291 -11 m 1,0,-1
 291 -52 l 1,1,-1
 260 -52 l 1,2,-1
 260 -12 l 1,3,4
 158 -6 158 -6 100 67 c 0,5,6
 48 130 48 130 48 225 c 0,7,8
 48 332 48 332 116 402 c 0,9,10
 176 463 176 463 260 466 c 1,11,-1
 260 512 l 1,12,-1
 291 512 l 1,13,-1
 291 465 l 1,14,15
 361 460 361 460 409 423 c 0,16,17
 414 418 414 418 411 410.5 c 128,-1,18
 408 403 408 403 401 397.5 c 128,-1,19
 394 392 394 392 390 395 c 0,20,21
 343 421 343 421 291 423 c 1,22,-1
 291 31 l 1,23,24
 348 31 348 31 401 63 c 0,25,26
 406 66 406 66 413 59.5 c 128,-1,27
 420 53 420 53 422 45 c 128,-1,28
 424 37 424 37 419 33 c 0,29,30
 370 -7 370 -7 291 -11 c 1,0,-1
260 421 m 1,31,32
 199 415 199 415 144 366 c 0,33,34
 93 320 93 320 93 222 c 0,35,36
 93 145 93 145 140 88 c 0,37,38
 180 42 180 42 260 33 c 1,39,-1
 260 421 l 1,31,32
EndSplineSet
EndChar

StartChar: glyph9698
Encoding: 65542 -1 387
Width: 465
Flags: W
LayerCount: 2
Fore
SplineSet
324 324 m 1,0,-1
 171 324 l 2,1,2
 170 324 170 324 170 323 c 2,3,-1
 170 49 l 2,4,5
 170 48 170 48 171 48 c 2,6,-1
 418 48 l 1,7,-1
 418 2 l 1,8,-1
 46 2 l 1,9,-1
 46 48 l 1,10,-1
 115 48 l 2,11,12
 116 48 116 48 116 49 c 2,13,-1
 116 323 l 2,14,15
 116 324 116 324 115 324 c 2,16,-1
 44 324 l 1,17,-1
 44 366 l 1,18,-1
 115 366 l 2,19,20
 116 366 116 366 116 367 c 2,21,-1
 116 430 l 2,22,23
 116 644 116 644 282 644 c 0,24,25
 361 644 361 644 421 591 c 0,26,27
 426 584 426 584 423 575.5 c 128,-1,28
 420 567 420 567 412 561 c 128,-1,29
 404 555 404 555 399 559 c 0,30,31
 345 596 345 596 290 596 c 0,32,33
 170 596 170 596 170 438 c 2,34,-1
 170 367 l 2,35,36
 170 366 170 366 171 366 c 2,37,-1
 324 366 l 1,38,-1
 324 324 l 1,0,-1
EndSplineSet
EndChar

StartChar: glyph9699
Encoding: 65543 -1 388
Width: 478
Flags: W
LayerCount: 2
Fore
SplineSet
250 24 m 1,0,1
 195 43 195 43 141 101 c 128,-1,2
 87 159 87 159 52 237 c 1,3,4
 87 316 87 316 141 374 c 128,-1,5
 195 432 195 432 250 451 c 1,6,-1
 250 406 l 1,7,8
 154 356 154 356 101 237 c 1,9,10
 154 119 154 119 250 69 c 1,11,-1
 250 24 l 1,0,1
436 24 m 1,12,13
 382 43 382 43 328 101 c 128,-1,14
 274 159 274 159 238 237 c 1,15,16
 274 316 274 316 328 374 c 128,-1,17
 382 432 382 432 436 451 c 1,18,-1
 436 406 l 1,19,20
 341 356 341 356 287 237 c 1,21,22
 341 119 341 119 436 69 c 1,23,-1
 436 24 l 1,12,13
EndSplineSet
EndChar

StartChar: glyph9701
Encoding: 65545 -1 390
Width: 288
Flags: W
LayerCount: 2
Fore
SplineSet
145 645 m 0,0,1
 194 645 194 645 224.5 610.5 c 128,-1,2
 255 576 255 576 255 522 c 0,3,4
 255 470 255 470 223.5 435 c 128,-1,5
 192 400 192 400 145 400 c 0,6,7
 97 400 97 400 65 435 c 128,-1,8
 33 470 33 470 33 522 c 0,9,10
 33 577 33 577 64 611 c 128,-1,11
 95 645 95 645 145 645 c 0,0,1
145 616 m 0,12,13
 115 616 115 616 96.5 590.5 c 128,-1,14
 78 565 78 565 78 522 c 0,15,16
 78 482 78 482 97.5 455.5 c 128,-1,17
 117 429 117 429 146 429 c 0,18,19
 176 429 176 429 193.5 454 c 128,-1,20
 211 479 211 479 211 522 c 0,21,22
 211 564 211 564 192.5 590 c 128,-1,23
 174 616 174 616 145 616 c 0,12,13
EndSplineSet
EndChar

StartChar: glyph9702
Encoding: 65546 -1 391
Width: 533
Flags: W
LayerCount: 2
Fore
SplineSet
90 0 m 1,0,-1
 90 633 l 1,1,-1
 144 633 l 1,2,-1
 144 515 l 1,3,4
 178 529 178 529 236 529 c 0,5,6
 359 529 359 529 414 465 c 0,7,8
 455 418 455 418 455 341 c 0,9,10
 455 239 455 239 388 186 c 0,11,12
 332 142 332 142 245 142 c 0,13,14
 207 142 207 142 145 153 c 1,15,-1
 145 0 l 1,16,-1
 90 0 l 1,0,-1
145 468 m 1,17,-1
 145 201 l 1,18,19
 189 191 189 191 245 191 c 0,20,21
 395 191 395 191 395 341 c 0,22,23
 395 480 395 480 237 480 c 0,24,25
 184 480 184 480 145 468 c 1,17,-1
EndSplineSet
EndChar

StartChar: glyph9703
Encoding: 65547 -1 392
Width: 503
Flags: W
LayerCount: 2
Fore
SplineSet
159 627 m 1,0,-1
 186 645 l 1,1,2
 252 633 252 633 311 583 c 1,3,-1
 417 640 l 1,4,-1
 441 618 l 1,5,-1
 336 563 l 1,6,7
 443 456 443 456 443 276 c 0,8,9
 443 151 443 151 391 72 c 0,10,11
 335 -12 335 -12 235 -12 c 0,12,13
 142 -12 142 -12 88 66 c 0,14,15
 48 122 48 122 48 187 c 0,16,17
 48 313 48 313 120 370 c 0,18,19
 171 410 171 410 246 410 c 0,20,21
 332 410 332 410 384 352 c 1,22,23
 368 463 368 463 294 543 c 1,24,-1
 171 480 l 1,25,-1
 148 504 l 1,26,-1
 271 566 l 1,27,28
 230 607 230 607 159 627 c 1,0,-1
385 301 m 1,29,30
 334 366 334 366 251 366 c 0,31,32
 183 366 183 366 144 322.5 c 128,-1,33
 105 279 105 279 105 202 c 0,34,35
 105 123 105 123 139 77 c 128,-1,36
 173 31 173 31 232 31 c 0,37,38
 305 31 305 31 346 91.5 c 128,-1,39
 387 152 387 152 387 260 c 0,40,41
 387 280 387 280 385 301 c 1,29,30
EndSplineSet
EndChar

StartChar: glyph9704
Encoding: 65548 -1 393
Width: 533
Flags: W
LayerCount: 2
Fore
SplineSet
78 618 m 1,0,-1
 127 643 l 1,1,-1
 127 386 l 1,2,3
 183 466 183 466 285 466 c 0,4,5
 382 466 382 466 437 392 c 0,6,7
 483 330 483 330 483 236 c 0,8,9
 483 112 483 112 415 44 c 0,10,11
 360 -12 360 -12 280 -12 c 0,12,13
 191 -12 191 -12 127 52 c 1,14,-1
 127 -191 l 1,15,-1
 78 -191 l 1,16,-1
 78 618 l 1,0,-1
127 323 m 1,17,-1
 127 122 l 1,18,19
 139 84 139 84 178.5 57.5 c 128,-1,20
 218 31 218 31 262 31 c 0,21,22
 337 31 337 31 384 86 c 0,23,24
 428 139 428 139 428 226 c 0,25,26
 428 325 428 325 378 378 c 0,27,28
 336 423 336 423 269 423 c 0,29,30
 209 423 209 423 163 378 c 0,31,32
 132 347 132 347 127 323 c 1,17,-1
EndSplineSet
EndChar

StartChar: glyph9707
Encoding: 65551 -1 396
Width: 379
Flags: W
LayerCount: 2
Fore
SplineSet
104 415 m 1,0,-1
 104 454 l 1,1,-1
 166 454 l 1,2,-1
 166 522 l 2,3,4
 166 577 166 577 195.5 611 c 128,-1,5
 225 645 225 645 272 645 c 0,6,7
 318 645 318 645 359 617 c 1,8,-1
 342 589 l 1,9,10
 305 604 305 604 281 604 c 0,11,12
 213 604 213 604 213 522 c 2,13,-1
 213 454 l 1,14,-1
 319 454 l 1,15,-1
 319 415 l 1,16,-1
 213 415 l 1,17,-1
 213 -17 l 2,18,19
 213 -72 213 -72 183.5 -106 c 128,-1,20
 154 -140 154 -140 107 -140 c 0,21,22
 61 -140 61 -140 20 -112 c 1,23,-1
 37 -84 l 1,24,25
 75 -99 75 -99 98 -99 c 0,26,27
 166 -99 166 -99 166 -17 c 2,28,-1
 166 415 l 1,29,-1
 104 415 l 1,0,-1
EndSplineSet
EndChar

StartChar: glyph9708
Encoding: 65552 -1 397
Width: 82
Flags: W
LayerCount: 2
Fore
SplineSet
5 609 m 256,0,1
 5 624 5 624 15.5 634.5 c 128,-1,2
 26 645 26 645 41 645 c 256,3,4
 56 645 56 645 66.5 634.5 c 128,-1,5
 77 624 77 624 77 609 c 256,6,7
 77 594 77 594 66.5 583.5 c 128,-1,8
 56 573 56 573 41 573 c 256,9,10
 26 573 26 573 15.5 583.5 c 128,-1,11
 5 594 5 594 5 609 c 256,0,1
EndSplineSet
EndChar

StartChar: glyph9709
Encoding: 65553 -1 398
Width: 290
Flags: W
LayerCount: 2
Fore
SplineSet
279 640 m 1,0,1
 252 573 252 573 204 573 c 0,2,3
 186 573 186 573 153 592 c 0,4,5
 152 592 152 592 151 593 c 0,6,7
 149 594 149 594 148 594 c 0,8,9
 146 595 146 595 141 598 c 2,10,-1
 139 599 l 2,11,12
 107 618 107 618 91 618 c 0,13,14
 74 618 74 618 56 605 c 128,-1,15
 38 592 38 592 32 575 c 1,16,-1
 11 588 l 1,17,18
 37 655 37 655 91 655 c 0,19,20
 121 655 121 655 157 631 c 0,21,22
 189 610 189 610 208 610 c 0,23,24
 236 610 236 610 258 654 c 1,25,-1
 279 640 l 1,0,1
EndSplineSet
EndChar

StartChar: glyph9710
Encoding: 65554 -1 399
Width: 552
Flags: W
LayerCount: 2
Fore
SplineSet
394 0 m 1,0,-1
 394 409 l 1,1,-1
 151 409 l 1,2,-1
 151 0 l 1,3,-1
 102 0 l 1,4,-1
 102 410 l 1,5,-1
 42 410 l 1,6,-1
 42 454 l 1,7,-1
 510 454 l 1,8,-1
 510 409 l 1,9,-1
 443 409 l 1,10,-1
 443 0 l 1,11,-1
 394 0 l 1,0,-1
EndSplineSet
EndChar

StartChar: uni049A
Encoding: 1178 1178 400
Width: 559
Flags: W
LayerCount: 2
Fore
SplineSet
489 748 m 2,0,-1
 196 424 l 1,1,-1
 466 23 l 2,2,3
 467.672824759 20.490762862 467.672824759 20.490762862 462 15.1831830506 c 1,4,-1
 462 -127 l 2,5,6
 462 -129 462 -129 444.5 -129 c 128,-1,7
 427 -129 427 -129 427 -127 c 2,8,-1
 427 3.48106060606 l 1,9,-1
 164 393 l 1,10,-1
 104 333 l 1,11,-1
 104 5 l 2,12,13
 104 0 104 0 84 0 c 128,-1,14
 64 0 64 0 64 5 c 2,15,-1
 63 774 l 2,16,17
 63 780 63 780 82.5 780 c 128,-1,18
 102 780 102 780 102 774 c 2,19,-1
 102 383 l 1,20,-1
 461 776 l 2,21,22
 468 783 468 783 482 769 c 128,-1,23
 496 755 496 755 489 748 c 2,0,-1
EndSplineSet
EndChar

StartChar: glyph9712
Encoding: 1179 1179 401
Width: 323
Flags: W
LayerCount: 2
Fore
SplineSet
266 368 m 2,0,-1
 130 209 l 1,1,-1
 251 20 l 2,2,3
 252.589181062 17.6162284069 252.589181062 17.6162284069 245.0234375 11.1285250857 c 1,4,-1
 245.0234375 -66.587890625 l 2,5,6
 245.0234375 -67.7275390625 245.0234375 -67.7275390625 233.0234375 -67.7275390625 c 128,-1,7
 221.024414062 -67.7275390625 221.024414062 -67.7275390625 221.024414062 -66.587890625 c 2,8,-1
 221.024414062 8.80070676642 l 1,9,-1
 108 186 l 1,10,-1
 77 152 l 1,11,-1
 77 2 l 2,12,13
 77 0 77 0 60.5 0 c 128,-1,14
 44 0 44 0 44 2 c 2,15,-1
 44 387 l 2,16,17
 44 390 44 390 60 390 c 128,-1,18
 76 390 76 390 76 387 c 2,19,-1
 76 192 l 1,20,-1
 246 388 l 2,21,22
 249 391 249 391 259 381 c 128,-1,23
 269 371 269 371 266 368 c 2,0,-1
EndSplineSet
EndChar

StartChar: glyph9713
Encoding: 65557 -1 402
Width: 193
Flags: W
LayerCount: 2
Fore
SplineSet
102 65 m 2,0,1
 137 65 137 65 137 32 c 0,2,3
 137 -5 137 -5 102 -5 c 0,4,5
 65 -5 65 -5 65 46 c 2,6,-1
 65 133 l 2,7,8
 65 145 65 145 79.5 145 c 128,-1,9
 94 145 94 145 94 133 c 2,10,-1
 94 65 l 1,11,-1
 102 65 l 2,0,1
EndSplineSet
EndChar

StartChar: glyph9714
Encoding: 65558 -1 403
Width: 203
Flags: W
LayerCount: 2
Fore
SplineSet
122 -5 m 0,0,1
 90 -5 90 -5 90 28 c 0,2,3
 90 60 90 60 122 60 c 0,4,5
 153 60 153 60 153 28 c 0,6,7
 153 -5 153 -5 122 -5 c 0,0,1
102 305 m 2,8,9
 137 305 137 305 137 272 c 0,10,11
 137 235 137 235 102 235 c 0,12,13
 65 235 65 235 65 286 c 2,14,-1
 65 373 l 2,15,16
 65 385 65 385 79.5 385 c 128,-1,17
 94 385 94 385 94 373 c 2,18,-1
 94 305 l 1,19,-1
 102 305 l 2,8,9
EndSplineSet
EndChar

StartChar: glyph9715
Encoding: 1567 1567 404
Width: 420
Flags: W
LayerCount: 2
Fore
SplineSet
223 117 m 0,0,1
 239 150 239 150 239 190 c 0,2,3
 239 226 239 226 220.5 254 c 128,-1,4
 202 282 202 282 145 334 c 0,5,6
 121 355 121 355 107 369 c 0,7,8
 50 426 50 426 50 502 c 0,9,10
 50 569 50 569 93.5 612 c 128,-1,11
 137 655 137 655 204 655 c 0,12,13
 280 655 280 655 342 601 c 0,14,15
 353 594 353 594 350 581.5 c 128,-1,16
 347 569 347 569 337 564.5 c 128,-1,17
 327 560 327 560 319 565 c 0,18,19
 291 587 291 587 268 598 c 0,20,21
 241 610 241 610 204 610 c 0,22,23
 157 610 157 610 127 581 c 128,-1,24
 97 552 97 552 97 506 c 0,25,26
 97 450 97 450 142 405 c 0,27,28
 151 396 151 396 176 373 c 0,29,30
 237 318 237 318 261 278.5 c 128,-1,31
 285 239 285 239 285 194 c 0,32,33
 285 155 285 155 263 108 c 0,34,35
 254 92 254 92 234 97 c 0,36,37
 217 102 217 102 223 117 c 0,0,1
261 -5 m 0,38,39
 229 -5 229 -5 229 28 c 0,40,41
 229 60 229 60 261 60 c 0,42,43
 292 60 292 60 292 28 c 0,44,45
 292 -5 292 -5 261 -5 c 0,38,39
EndSplineSet
EndChar

StartChar: glyph9716
Encoding: 1569 1569 405
Width: 503
Flags: W
LayerCount: 2
Fore
SplineSet
35 -50 m 1,0,-1
 35 -5 l 1,1,2
 71 24 71 24 146 35 c 1,3,4
 89 109 89 109 89 198 c 256,5,6
 89 287 89 287 139 344 c 0,7,8
 185 396 185 396 260 396 c 0,9,10
 347 396 347 396 405 321 c 0,11,12
 413 313 413 313 409.5 302.5 c 128,-1,13
 406 292 406 292 397.5 290 c 128,-1,14
 389 288 389 288 381 296 c 0,15,16
 345 333 345 333 322.5 343.5 c 128,-1,17
 300 354 300 354 258 354 c 0,18,19
 202 354 202 354 169 312.5 c 128,-1,20
 136 271 136 271 136 202 c 0,21,22
 136 102 136 102 206 41 c 1,23,24
 218 42 218 42 240 42 c 0,25,26
 378 42 378 42 453 98 c 1,27,-1
 453 53 l 1,28,29
 369 0 369 0 238 0 c 256,30,31
 107 0 107 0 35 -50 c 1,0,-1
EndSplineSet
EndChar

StartChar: glyph9717
Encoding: 1570 1570 406
Width: 227
Flags: W
LayerCount: 2
Fore
SplineSet
212 747 m 1,0,1
 187 701 187 701 154 701 c 0,2,3
 131 701 131 701 100 724 c 0,4,5
 82 736 82 736 71 736 c 0,6,7
 52 736 52 736 33 706 c 1,8,-1
 12 718 l 1,9,10
 37 764 37 764 70 764 c 0,11,12
 89 764 89 764 115 745 c 0,13,14
 137 729 137 729 153 729 c 0,15,16
 170 729 170 729 191 759 c 1,17,-1
 212 747 l 1,0,1
90 0 m 1,18,-1
 90 620 l 2,19,20
 90 639 90 639 113.5 639 c 128,-1,21
 137 639 137 639 137 620 c 2,22,-1
 137 0 l 1,23,-1
 90 0 l 1,18,-1
EndSplineSet
EndChar

StartChar: uni0623
Encoding: 1571 1571 407
Width: 227
Flags: W
LayerCount: 2
Fore
SplineSet
32 698 m 1,0,-1
 47 726 l 1,1,-1
 71 726 l 1,2,3
 62 743 62 743 62 760 c 0,4,5
 62 787 62 787 82 807 c 128,-1,6
 102 827 102 827 130 827 c 0,7,8
 149 827 149 827 168 816 c 1,9,-1
 168 785 l 1,10,11
 150 798 150 798 132 798 c 0,12,13
 116 798 116 798 104 787 c 128,-1,14
 92 776 92 776 92 761 c 0,15,16
 92 743 92 743 107 726 c 1,17,-1
 191 726 l 1,18,-1
 176 698 l 1,19,-1
 32 698 l 1,0,-1
90 0 m 1,20,-1
 90 620 l 2,21,22
 90 633 90 633 102 638 c 128,-1,23
 114 643 114 643 125.5 637.5 c 128,-1,24
 137 632 137 632 137 620 c 2,25,-1
 137 0 l 1,26,-1
 90 0 l 1,20,-1
EndSplineSet
EndChar

StartChar: glyph9719
Encoding: 1572 1572 408
Width: 483
Flags: W
LayerCount: 2
Fore
SplineSet
298 589 m 1,0,-1
 283 561 l 1,1,-1
 139 561 l 1,2,-1
 154 589 l 1,3,-1
 178 589 l 1,4,5
 169 606 169 606 169 623 c 0,6,7
 169 650 169 650 189 670 c 128,-1,8
 209 690 209 690 237 690 c 0,9,10
 256 690 256 690 275 679 c 1,11,-1
 275 648 l 1,12,13
 257 661 257 661 239 661 c 0,14,15
 223 661 223 661 211 650 c 128,-1,16
 199 639 199 639 199 624 c 0,17,18
 199 606 199 606 214 589 c 1,19,-1
 298 589 l 1,0,-1
356 46 m 1,20,21
 312 10 312 10 233 10 c 0,22,23
 148 10 148 10 101 75 c 0,24,25
 60 132 60 132 60 221 c 0,26,27
 60 324 60 324 114 382 c 0,28,29
 162 433 162 433 241 433 c 0,30,31
 316 433 316 433 359.5 388 c 128,-1,32
 403 343 403 343 403 265 c 2,33,-1
 403 43 l 2,34,35
 403 -65 403 -65 348 -129 c 0,36,37
 296 -190 296 -190 207 -190 c 0,38,39
 150 -190 150 -190 98 -164 c 1,40,-1
 98 -122 l 1,41,42
 150 -149 150 -149 202 -149 c 0,43,44
 284 -149 284 -149 325 -85 c 0,45,46
 356 -35 356 -35 356 41 c 2,47,-1
 356 46 l 1,20,21
356 257 m 2,48,49
 356 391 356 391 241 391 c 0,50,51
 178 391 178 391 141.5 345.5 c 128,-1,52
 105 300 105 300 105 221 c 0,53,54
 105 141 105 141 143 94 c 0,55,56
 177 52 177 52 233 52 c 0,57,58
 327 52 327 52 356 106 c 1,59,-1
 356 257 l 2,48,49
EndSplineSet
EndChar

StartChar: glyph9720
Encoding: 1573 1573 409
Width: 227
Flags: W
LayerCount: 2
Fore
SplineSet
90 0 m 1,0,-1
 90 620 l 2,1,2
 90 632 90 632 102 637 c 128,-1,3
 114 642 114 642 125.5 637 c 128,-1,4
 137 632 137 632 137 620 c 2,5,-1
 137 0 l 1,6,-1
 90 0 l 1,0,-1
29 -224 m 1,7,-1
 44 -196 l 1,8,-1
 68 -196 l 1,9,10
 59 -179 59 -179 59 -162 c 0,11,12
 59 -135 59 -135 79 -115 c 128,-1,13
 99 -95 99 -95 127 -95 c 0,14,15
 146 -95 146 -95 165 -106 c 1,16,-1
 165 -137 l 1,17,18
 147 -124 147 -124 129 -124 c 0,19,20
 113 -124 113 -124 101 -135 c 128,-1,21
 89 -146 89 -146 89 -161 c 0,22,23
 89 -179 89 -179 104 -196 c 1,24,-1
 188 -196 l 1,25,-1
 173 -224 l 1,26,-1
 29 -224 l 1,7,-1
EndSplineSet
EndChar

StartChar: glyph9721
Encoding: 1574 1574 410
Width: 699
Flags: W
LayerCount: 2
Fore
SplineSet
59 340 m 1,0,-1
 74 368 l 1,1,-1
 98 368 l 1,2,3
 89 385 89 385 89 402 c 0,4,5
 89 429 89 429 109 449 c 128,-1,6
 129 469 129 469 157 469 c 0,7,8
 176 469 176 469 195 458 c 1,9,-1
 195 427 l 1,10,11
 177 440 177 440 159 440 c 0,12,13
 143 440 143 440 131 429 c 128,-1,14
 119 418 119 418 119 403 c 0,15,16
 119 385 119 385 134 368 c 1,17,-1
 218 368 l 1,18,-1
 203 340 l 1,19,-1
 59 340 l 1,0,-1
602 309 m 1,20,21
 541 383 541 383 461 383 c 0,22,23
 415 383 415 383 387.5 353.5 c 128,-1,24
 360 324 360 324 360 275 c 0,25,26
 360 215 360 215 409 181 c 0,27,28
 433 164 433 164 513 135 c 0,29,30
 584 110 584 110 610 82 c 0,31,32
 639 52 639 52 639 4 c 0,33,34
 639 -80 639 -80 557 -136 c 0,35,36
 478 -190 478 -190 352 -190 c 0,37,38
 202 -190 202 -190 127 -102 c 0,39,40
 70 -36 70 -36 70 60 c 0,41,42
 70 149 70 149 116 211 c 1,43,-1
 163 221 l 1,44,45
 112 147 112 147 112 60 c 0,46,47
 112 -35 112 -35 179 -92 c 0,48,49
 243 -148 243 -148 352 -148 c 0,50,51
 474 -148 474 -148 541 -93 c 0,52,53
 592 -52 592 -52 592 4 c 0,54,55
 592 39 592 39 568.5 58 c 128,-1,56
 545 77 545 77 466 105 c 0,57,58
 393 131 393 131 362 159 c 0,59,60
 313 201 313 201 313 275 c 256,61,62
 313 349 313 349 367 391 c 0,63,64
 408 424 408 424 461 424 c 0,65,66
 544 424 544 424 602 360 c 1,67,-1
 602 309 l 1,20,21
EndSplineSet
EndChar

StartChar: glyph9722
Encoding: 1575 1575 411
Width: 227
Flags: W
LayerCount: 2
Fore
SplineSet
90 0 m 1,0,-1
 90 620 l 2,1,2
 90 637 90 637 102 644 c 128,-1,3
 114 651 114 651 125.5 644 c 128,-1,4
 137 637 137 637 137 620 c 2,5,-1
 137 0 l 1,6,-1
 90 0 l 1,0,-1
EndSplineSet
EndChar

StartChar: uni0628
Encoding: 1576 1576 412
Width: 859
Flags: W
LayerCount: 2
Fore
SplineSet
407 -175 m 0,0,1
 375 -175 375 -175 375 -142 c 0,2,3
 375 -110 375 -110 407 -110 c 0,4,5
 438 -110 438 -110 438 -142 c 0,6,7
 438 -175 438 -175 407 -175 c 0,0,1
247 0 m 2,8,9
 175 0 175 0 132.5 45 c 128,-1,10
 90 90 90 90 90 167 c 2,11,-1
 90 308 l 2,12,13
 90 322 90 322 102 327 c 128,-1,14
 114 332 114 332 125.5 326.5 c 128,-1,15
 137 321 137 321 137 308 c 2,16,-1
 137 175 l 2,17,18
 137 42 137 42 261 42 c 2,19,-1
 599 42 l 2,20,21
 722 42 722 42 722 175 c 2,22,-1
 722 398 l 2,23,24
 722 418 722 418 745.5 418 c 128,-1,25
 769 418 769 418 769 398 c 2,26,-1
 769 167 l 2,27,28
 769 85 769 85 718 39 c 0,29,30
 675 0 675 0 604 0 c 2,31,-1
 247 0 l 2,8,9
EndSplineSet
EndChar

StartChar: glyph9724
Encoding: 1577 1577 413
Width: 502
Flags: W
LayerCount: 2
Fore
SplineSet
194 565 m 0,0,1
 162 565 162 565 162 598 c 0,2,3
 162 630 162 630 194 630 c 0,4,5
 225 630 225 630 225 598 c 0,6,7
 225 565 225 565 194 565 c 0,0,1
295 565 m 0,8,9
 263 565 263 565 263 598 c 0,10,11
 263 630 263 630 295 630 c 0,12,13
 326 630 326 630 326 598 c 0,14,15
 326 565 326 565 295 565 c 0,8,9
246 0 m 2,16,17
 159 0 159 0 111 58 c 0,18,19
 70 107 70 107 70 186 c 0,20,21
 70 369 70 369 251 433 c 1,22,23
 432 369 432 369 432 186 c 0,24,25
 432 95 432 95 379 45 c 0,26,27
 332 0 332 0 256 0 c 2,28,-1
 246 0 l 2,16,17
242 42 m 2,29,-1
 260 42 l 2,30,31
 318 42 318 42 351.5 81 c 128,-1,32
 385 120 385 120 385 186 c 0,33,34
 385 331 385 331 251 391 c 1,35,36
 117 331 117 331 117 186 c 0,37,38
 117 120 117 120 150.5 81 c 128,-1,39
 184 42 184 42 242 42 c 2,29,-1
EndSplineSet
EndChar

StartChar: uni062A
Encoding: 1578 1578 414
Width: 819
Flags: W
LayerCount: 2
Fore
SplineSet
353 465 m 0,0,1
 321 465 321 465 321 498 c 0,2,3
 321 530 321 530 353 530 c 0,4,5
 384 530 384 530 384 498 c 0,6,7
 384 465 384 465 353 465 c 0,0,1
454 465 m 0,8,9
 422 465 422 465 422 498 c 0,10,11
 422 530 422 530 454 530 c 0,12,13
 485 530 485 530 485 498 c 0,14,15
 485 465 485 465 454 465 c 0,8,9
247 0 m 2,16,17
 175 0 175 0 132.5 45 c 128,-1,18
 90 90 90 90 90 167 c 2,19,-1
 90 308 l 2,20,21
 90 322 90 322 102 327 c 128,-1,22
 114 332 114 332 125.5 326.5 c 128,-1,23
 137 321 137 321 137 308 c 2,24,-1
 137 175 l 2,25,26
 137 42 137 42 261 42 c 2,27,-1
 599 42 l 2,28,29
 722 42 722 42 722 175 c 2,30,-1
 722 398 l 2,31,32
 722 418 722 418 745.5 418 c 128,-1,33
 769 418 769 418 769 398 c 2,34,-1
 769 167 l 2,35,36
 769 85 769 85 718 39 c 0,37,38
 675 0 675 0 604 0 c 2,39,-1
 247 0 l 2,16,17
EndSplineSet
EndChar

StartChar: uni062B
Encoding: 1579 1579 415
Width: 819
Flags: W
LayerCount: 2
Fore
SplineSet
403 555 m 0,0,1
 371 555 371 555 371 588 c 0,2,3
 371 620 371 620 403 620 c 0,4,5
 434 620 434 620 434 588 c 0,6,7
 434 555 434 555 403 555 c 0,0,1
353 465 m 0,8,9
 321 465 321 465 321 498 c 0,10,11
 321 530 321 530 353 530 c 0,12,13
 384 530 384 530 384 498 c 0,14,15
 384 465 384 465 353 465 c 0,8,9
454 465 m 0,16,17
 422 465 422 465 422 498 c 0,18,19
 422 530 422 530 454 530 c 0,20,21
 485 530 485 530 485 498 c 0,22,23
 485 465 485 465 454 465 c 0,16,17
247 0 m 2,24,25
 175 0 175 0 132.5 45 c 128,-1,26
 90 90 90 90 90 167 c 2,27,-1
 90 308 l 2,28,29
 90 322 90 322 102 327 c 128,-1,30
 114 332 114 332 125.5 326.5 c 128,-1,31
 137 321 137 321 137 308 c 2,32,-1
 137 175 l 2,33,34
 137 42 137 42 261 42 c 2,35,-1
 599 42 l 2,36,37
 722 42 722 42 722 175 c 2,38,-1
 722 398 l 2,39,40
 722 418 722 418 745.5 418 c 128,-1,41
 769 418 769 418 769 398 c 2,42,-1
 769 167 l 2,43,44
 769 85 769 85 718 39 c 0,45,46
 675 0 675 0 604 0 c 2,47,-1
 247 0 l 2,24,25
EndSplineSet
EndChar

StartChar: uni062C
Encoding: 1580 1580 416
Width: 592
Flags: W
LayerCount: 2
Fore
SplineSet
487 -324 m 1,0,1
 407 -375 407 -375 304 -375 c 0,2,3
 195 -375 195 -375 128 -300 c 0,4,5
 70 -235 70 -235 70 -140 c 0,6,7
 70 -37 70 -37 134 30 c 0,8,9
 168 65 168 65 204 79 c 128,-1,10
 240 93 240 93 348 114 c 0,11,12
 475 138 475 138 524 204 c 1,13,14
 430 391 430 391 289 391 c 0,15,16
 204 391 204 391 127 305 c 1,17,-1
 127 355 l 1,18,19
 208 433 208 433 294 433 c 0,20,21
 448 433 448 433 562 223 c 1,22,-1
 562 185 l 1,23,24
 524 135 524 135 477.5 113 c 128,-1,25
 431 91 431 91 313 67 c 0,26,27
 205 46 205 46 163 3 c 0,28,29
 112 -50 112 -50 112 -142 c 0,30,31
 112 -231 112 -231 173 -286 c 0,32,33
 225 -333 225 -333 304 -333 c 0,34,35
 423 -333 423 -333 487 -282 c 1,36,-1
 487 -324 l 1,0,1
304 -175 m 0,37,38
 272 -175 272 -175 272 -142 c 0,39,40
 272 -110 272 -110 304 -110 c 0,41,42
 335 -110 335 -110 335 -142 c 0,43,44
 335 -175 335 -175 304 -175 c 0,37,38
EndSplineSet
EndChar

StartChar: uni062D
Encoding: 1581 1581 417
Width: 612
Flags: W
LayerCount: 2
Fore
SplineSet
487 -324 m 1,0,1
 407 -375 407 -375 304 -375 c 0,2,3
 195 -375 195 -375 128 -300 c 0,4,5
 70 -235 70 -235 70 -140 c 0,6,7
 70 -37 70 -37 134 30 c 0,8,9
 168 65 168 65 204 79 c 128,-1,10
 240 93 240 93 348 114 c 0,11,12
 475 138 475 138 524 204 c 1,13,14
 430 391 430 391 289 391 c 0,15,16
 204 391 204 391 127 305 c 1,17,-1
 127 355 l 1,18,19
 208 433 208 433 294 433 c 0,20,21
 448 433 448 433 562 223 c 1,22,-1
 562 185 l 1,23,24
 524 135 524 135 477.5 113 c 128,-1,25
 431 91 431 91 313 67 c 0,26,27
 205 46 205 46 163 3 c 0,28,29
 112 -50 112 -50 112 -142 c 0,30,31
 112 -231 112 -231 173 -286 c 0,32,33
 225 -333 225 -333 304 -333 c 0,34,35
 423 -333 423 -333 487 -282 c 1,36,-1
 487 -324 l 1,0,1
EndSplineSet
EndChar

StartChar: uni062E
Encoding: 1582 1582 418
Width: 612
Flags: W
LayerCount: 2
Fore
SplineSet
327 565 m 0,0,1
 295 565 295 565 295 598 c 0,2,3
 295 630 295 630 327 630 c 0,4,5
 358 630 358 630 358 598 c 0,6,7
 358 565 358 565 327 565 c 0,0,1
487 -324 m 1,8,9
 407 -375 407 -375 304 -375 c 0,10,11
 195 -375 195 -375 128 -300 c 0,12,13
 70 -235 70 -235 70 -140 c 0,14,15
 70 -37 70 -37 134 30 c 0,16,17
 168 65 168 65 204 79 c 128,-1,18
 240 93 240 93 348 114 c 0,19,20
 475 138 475 138 524 204 c 1,21,22
 430 391 430 391 289 391 c 0,23,24
 204 391 204 391 127 305 c 1,25,-1
 127 355 l 1,26,27
 208 433 208 433 294 433 c 0,28,29
 448 433 448 433 562 223 c 1,30,-1
 562 185 l 1,31,32
 524 135 524 135 477.5 113 c 128,-1,33
 431 91 431 91 313 67 c 0,34,35
 205 46 205 46 163 3 c 0,36,37
 112 -50 112 -50 112 -142 c 0,38,39
 112 -231 112 -231 173 -286 c 0,40,41
 225 -333 225 -333 304 -333 c 0,42,43
 423 -333 423 -333 487 -282 c 1,44,-1
 487 -324 l 1,8,9
EndSplineSet
EndChar

StartChar: uni062F
Encoding: 1583 1583 419
Width: 440
Flags: W
LayerCount: 2
Fore
SplineSet
10 0 m 1,0,-1
 32 42 l 1,1,-1
 229 42 l 2,2,3
 281 42 281 42 302 68.5 c 128,-1,4
 323 95 323 95 323 160 c 0,5,6
 323 319 323 319 187 395 c 1,7,-1
 210 433 l 1,8,9
 370 340 370 340 370 159 c 0,10,11
 370 0 370 0 236 0 c 2,12,-1
 10 0 l 1,0,-1
EndSplineSet
EndChar

StartChar: uni0630
Encoding: 1584 1584 420
Width: 440
Flags: W
LayerCount: 2
Fore
SplineSet
214 565 m 0,0,1
 182 565 182 565 182 598 c 0,2,3
 182 630 182 630 214 630 c 0,4,5
 245 630 245 630 245 598 c 0,6,7
 245 565 245 565 214 565 c 0,0,1
10 0 m 1,8,-1
 32 42 l 1,9,-1
 229 42 l 2,10,11
 281 42 281 42 302 68.5 c 128,-1,12
 323 95 323 95 323 160 c 0,13,14
 323 319 323 319 187 395 c 1,15,-1
 210 433 l 1,16,17
 370 340 370 340 370 159 c 0,18,19
 370 0 370 0 236 0 c 2,20,-1
 10 0 l 1,8,-1
EndSplineSet
EndChar

StartChar: uni0631
Encoding: 1585 1585 421
Width: 295
Flags: W
LayerCount: 2
Fore
SplineSet
205 43 m 2,0,1
 205 -65 205 -65 150 -129 c 0,2,3
 98 -190 98 -190 9 -190 c 0,4,5
 -48 -190 -48 -190 -100 -164 c 1,6,-1
 -100 -122 l 1,7,8
 -48 -149 -48 -149 4 -149 c 0,9,10
 86 -149 86 -149 127 -85 c 0,11,12
 158 -35 158 -35 158 41 c 2,13,-1
 158 398 l 1,14,-1
 205 423 l 1,15,-1
 205 43 l 2,0,1
EndSplineSet
EndChar

StartChar: uni0632
Encoding: 1586 1586 422
Width: 295
Flags: W
LayerCount: 2
Fore
SplineSet
174 565 m 0,0,1
 142 565 142 565 142 598 c 0,2,3
 142 630 142 630 174 630 c 0,4,5
 205 630 205 630 205 598 c 0,6,7
 205 565 205 565 174 565 c 0,0,1
205 43 m 2,8,9
 205 -65 205 -65 150 -129 c 0,10,11
 98 -190 98 -190 9 -190 c 0,12,13
 -48 -190 -48 -190 -100 -164 c 1,14,-1
 -100 -122 l 1,15,16
 -48 -149 -48 -149 4 -149 c 0,17,18
 86 -149 86 -149 127 -85 c 0,19,20
 158 -35 158 -35 158 41 c 2,21,-1
 158 398 l 1,22,-1
 205 423 l 1,23,-1
 205 43 l 2,8,9
EndSplineSet
EndChar

StartChar: uni0633
Encoding: 1587 1587 423
Width: 1301
Flags: W
LayerCount: 2
Fore
SplineSet
1164 398 m 2,0,1
 1164 411 1164 411 1176 416.5 c 128,-1,2
 1188 422 1188 422 1199.5 416.5 c 128,-1,3
 1211 411 1211 411 1211 398 c 2,4,-1
 1211 169 l 2,5,6
 1211 88 1211 88 1164 42 c 0,7,8
 1120 0 1120 0 1047 0 c 2,9,-1
 1007 0 l 2,10,11
 908 0 908 0 867 73 c 1,12,13
 825 0 825 0 726 0 c 2,14,-1
 686 0 l 2,15,16
 613 0 613 0 569 42 c 1,17,18
 568 -68 568 -68 492 -133 c 0,19,20
 424 -190 424 -190 317 -190 c 0,21,22
 192 -190 192 -190 123 -102 c 0,23,24
 70 -34 70 -34 70 60 c 0,25,26
 70 149 70 149 116 211 c 0,27,28
 128 227 128 227 146 216 c 0,29,30
 162 207 162 207 151 194 c 0,31,32
 134 161 134 161 127.5 146.5 c 128,-1,33
 121 132 121 132 116.5 110 c 128,-1,34
 112 88 112 88 112 60 c 0,35,36
 112 -32 112 -32 173 -92 c 0,37,38
 230 -148 230 -148 317 -148 c 0,39,40
 419 -148 419 -148 475 -87 c 0,41,42
 522 -36 522 -36 522 44 c 2,43,-1
 522 318 l 2,44,45
 522 331 522 331 534 336 c 128,-1,46
 546 341 546 341 557.5 335.5 c 128,-1,47
 569 330 569 330 569 318 c 2,48,-1
 569 170 l 2,49,50
 569 42 569 42 693 42 c 2,51,-1
 719 42 l 2,52,53
 843 42 843 42 843 170 c 2,54,-1
 843 358 l 2,55,56
 843 379 843 379 866.5 378.5 c 128,-1,57
 890 378 890 378 890 358 c 2,58,-1
 890 170 l 2,59,60
 890 42 890 42 1014 42 c 2,61,-1
 1040 42 l 2,62,63
 1164 42 1164 42 1164 170 c 2,64,-1
 1164 398 l 2,0,1
EndSplineSet
EndChar

StartChar: uni0634
Encoding: 1588 1588 424
Width: 1301
Flags: W
LayerCount: 2
Fore
SplineSet
863 615 m 0,0,1
 834 615 834 615 834 645 c 0,2,3
 834 674 834 674 863 674 c 0,4,5
 891 674 891 674 891 645 c 0,6,7
 891 615 891 615 863 615 c 0,0,1
813 525 m 0,8,9
 781 525 781 525 781 558 c 0,10,11
 781 590 781 590 813 590 c 0,12,13
 844 590 844 590 844 558 c 0,14,15
 844 525 844 525 813 525 c 0,8,9
882 558 m 0,16,17
 882 590 882 590 914 590 c 0,18,19
 945 590 945 590 945 558 c 0,20,21
 945 525 945 525 914 525 c 0,22,23
 882 525 882 525 882 558 c 0,16,17
1164 398 m 2,24,25
 1164 411 1164 411 1176 416.5 c 128,-1,26
 1188 422 1188 422 1199.5 416.5 c 128,-1,27
 1211 411 1211 411 1211 398 c 2,28,-1
 1211 169 l 2,29,30
 1211 88 1211 88 1164 42 c 0,31,32
 1120 0 1120 0 1047 0 c 2,33,-1
 1007 0 l 2,34,35
 908 0 908 0 867 73 c 1,36,37
 825 0 825 0 726 0 c 2,38,-1
 686 0 l 2,39,40
 613 0 613 0 569 42 c 1,41,42
 568 -68 568 -68 492 -133 c 0,43,44
 424 -190 424 -190 317 -190 c 0,45,46
 192 -190 192 -190 123 -102 c 0,47,48
 70 -34 70 -34 70 60 c 0,49,50
 70 149 70 149 116 211 c 0,51,52
 128 227 128 227 146 216 c 0,53,54
 162 207 162 207 151 194 c 0,55,56
 134 161 134 161 127.5 146.5 c 128,-1,57
 121 132 121 132 116.5 110 c 128,-1,58
 112 88 112 88 112 60 c 0,59,60
 112 -32 112 -32 173 -92 c 0,61,62
 230 -148 230 -148 317 -148 c 0,63,64
 419 -148 419 -148 475 -87 c 0,65,66
 522 -36 522 -36 522 44 c 2,67,-1
 522 318 l 2,68,69
 522 331 522 331 534 336 c 128,-1,70
 546 341 546 341 557.5 335.5 c 128,-1,71
 569 330 569 330 569 318 c 2,72,-1
 569 170 l 2,73,74
 569 42 569 42 693 42 c 2,75,-1
 719 42 l 2,76,77
 843 42 843 42 843 170 c 2,78,-1
 843 358 l 2,79,80
 843 379 843 379 866.5 378.5 c 128,-1,81
 890 378 890 378 890 358 c 2,82,-1
 890 170 l 2,83,84
 890 42 890 42 1014 42 c 2,85,-1
 1040 42 l 2,86,87
 1164 42 1164 42 1164 170 c 2,88,-1
 1164 398 l 2,24,25
EndSplineSet
EndChar

StartChar: uni0635
Encoding: 1589 1589 425
Width: 1323
Flags: W
LayerCount: 2
Fore
SplineSet
649 47 m 1,0,1
 682 203 682 203 774 312 c 0,2,3
 878 433 878 433 1019 433 c 0,4,5
 1129 433 1129 433 1193 357 c 0,6,7
 1248 293 1248 293 1248 197 c 2,8,-1
 1248 167 l 2,9,10
 1248 84 1248 84 1198 39 c 0,11,12
 1155 0 1155 0 1084 0 c 2,13,-1
 686 0 l 2,14,15
 613 0 613 0 569 42 c 1,16,17
 568 -68 568 -68 492 -133 c 0,18,19
 424 -190 424 -190 317 -190 c 0,20,21
 192 -190 192 -190 123 -102 c 0,22,23
 70 -34 70 -34 70 60 c 0,24,25
 70 149 70 149 116 211 c 0,26,27
 128 226 128 226 143 214 c 0,28,29
 156 204 156 204 148 194 c 0,30,31
 126 155 126 155 119 129.5 c 128,-1,32
 112 104 112 104 112 60 c 0,33,34
 112 -32 112 -32 173 -92 c 0,35,36
 230 -148 230 -148 317 -148 c 0,37,38
 419 -148 419 -148 475 -87 c 0,39,40
 522 -36 522 -36 522 44 c 2,41,-1
 522 318 l 2,42,43
 522 334 522 334 534 340.5 c 128,-1,44
 546 347 546 347 557.5 340 c 128,-1,45
 569 333 569 333 569 318 c 2,46,-1
 569 170 l 2,47,48
 569 67 569 67 649 47 c 1,0,1
1201 175 m 2,49,-1
 1201 197 l 2,50,51
 1201 288 1201 288 1144 343 c 0,52,53
 1094 391 1094 391 1020 391 c 0,54,55
 891 391 891 391 795 268 c 0,56,57
 723 175 723 175 690 42 c 1,58,-1
 693 42 l 1,59,-1
 1079 42 l 2,60,61
 1201 42 1201 42 1201 175 c 2,49,-1
EndSplineSet
EndChar

StartChar: uni0636
Encoding: 1590 1590 426
Width: 1323
Flags: W
LayerCount: 2
Fore
SplineSet
1012 565 m 0,0,1
 980 565 980 565 980 598 c 0,2,3
 980 630 980 630 1012 630 c 0,4,5
 1043 630 1043 630 1043 598 c 0,6,7
 1043 565 1043 565 1012 565 c 0,0,1
649 47 m 1,8,9
 682 203 682 203 774 312 c 0,10,11
 878 433 878 433 1019 433 c 0,12,13
 1129 433 1129 433 1193 357 c 0,14,15
 1248 293 1248 293 1248 197 c 2,16,-1
 1248 167 l 2,17,18
 1248 84 1248 84 1198 39 c 0,19,20
 1155 0 1155 0 1084 0 c 2,21,-1
 686 0 l 2,22,23
 613 0 613 0 569 42 c 1,24,25
 568 -68 568 -68 492 -133 c 0,26,27
 424 -190 424 -190 317 -190 c 0,28,29
 192 -190 192 -190 123 -102 c 0,30,31
 70 -34 70 -34 70 60 c 0,32,33
 70 149 70 149 116 211 c 0,34,35
 128 226 128 226 143 214 c 0,36,37
 156 204 156 204 148 194 c 0,38,39
 126 155 126 155 119 129.5 c 128,-1,40
 112 104 112 104 112 60 c 0,41,42
 112 -32 112 -32 173 -92 c 0,43,44
 230 -148 230 -148 317 -148 c 0,45,46
 419 -148 419 -148 475 -87 c 0,47,48
 522 -36 522 -36 522 44 c 2,49,-1
 522 318 l 2,50,51
 522 334 522 334 534 340.5 c 128,-1,52
 546 347 546 347 557.5 340 c 128,-1,53
 569 333 569 333 569 318 c 2,54,-1
 569 170 l 2,55,56
 569 67 569 67 649 47 c 1,8,9
1201 175 m 2,57,-1
 1201 197 l 2,58,59
 1201 288 1201 288 1144 343 c 0,60,61
 1094 391 1094 391 1020 391 c 0,62,63
 891 391 891 391 795 268 c 0,64,65
 723 175 723 175 690 42 c 1,66,-1
 693 42 l 1,67,-1
 1079 42 l 2,68,69
 1201 42 1201 42 1201 175 c 2,57,-1
EndSplineSet
EndChar

StartChar: uni0637
Encoding: 1591 1591 427
Width: 849
Flags: W
LayerCount: 2
Fore
SplineSet
215 173 m 1,0,1
 268 291 268 291 349 360 c 0,2,3
 437 433 437 433 545 433 c 0,4,5
 655 433 655 433 719 357 c 0,6,7
 774 293 774 293 774 197 c 2,8,-1
 774 159 l 2,9,10
 774 0 774 0 640 0 c 2,11,-1
 20 0 l 1,12,-1
 42 42 l 1,13,-1
 168 42 l 1,14,-1
 168 620 l 2,15,16
 168 633 168 633 180 638.5 c 128,-1,17
 192 644 192 644 203.5 638.5 c 128,-1,18
 215 633 215 633 215 620 c 2,19,-1
 215 173 l 1,0,1
727 160 m 2,20,-1
 727 197 l 2,21,22
 727 288 727 288 670 343 c 0,23,24
 620 391 620 391 546 391 c 0,25,26
 418 391 418 391 320 265 c 0,27,28
 248 172 248 172 215 42 c 1,29,-1
 633 42 l 2,30,31
 685 42 685 42 706 68.5 c 128,-1,32
 727 95 727 95 727 160 c 2,20,-1
EndSplineSet
EndChar

StartChar: uni0638
Encoding: 1592 1592 428
Width: 849
Flags: W
LayerCount: 2
Fore
SplineSet
538 565 m 0,0,1
 506 565 506 565 506 598 c 0,2,3
 506 630 506 630 538 630 c 0,4,5
 569 630 569 630 569 598 c 0,6,7
 569 565 569 565 538 565 c 0,0,1
215 173 m 1,8,9
 268 291 268 291 349 360 c 0,10,11
 437 433 437 433 545 433 c 0,12,13
 655 433 655 433 719 357 c 0,14,15
 774 293 774 293 774 197 c 2,16,-1
 774 159 l 2,17,18
 774 0 774 0 640 0 c 2,19,-1
 20 0 l 1,20,-1
 42 42 l 1,21,-1
 168 42 l 1,22,-1
 168 620 l 2,23,24
 168 633 168 633 180 638.5 c 128,-1,25
 192 644 192 644 203.5 638.5 c 128,-1,26
 215 633 215 633 215 620 c 2,27,-1
 215 173 l 1,8,9
727 160 m 2,28,-1
 727 197 l 2,29,30
 727 288 727 288 670 343 c 0,31,32
 620 391 620 391 546 391 c 0,33,34
 418 391 418 391 320 265 c 0,35,36
 248 172 248 172 215 42 c 1,37,-1
 633 42 l 2,38,39
 685 42 685 42 706 68.5 c 128,-1,40
 727 95 727 95 727 160 c 2,28,-1
EndSplineSet
EndChar

StartChar: uni0639
Encoding: 1593 1593 429
Width: 544
Flags: W
LayerCount: 2
Fore
SplineSet
494 -324 m 0,0,1
 414 -375 414 -375 311 -375 c 0,2,3
 192 -375 192 -375 124 -300 c 0,4,5
 70 -241 70 -241 70 -162 c 0,6,7
 70 -98 70 -98 104.5 -48 c 128,-1,8
 139 2 139 2 198 24 c 1,9,10
 87 80 87 80 87 228 c 0,11,12
 87 328 87 328 154 386 c 0,13,14
 208 433 208 433 280 433 c 0,15,16
 384 433 384 433 442 352 c 0,17,18
 447 345 447 345 442 337 c 128,-1,19
 437 329 437 329 430 326.5 c 128,-1,20
 423 324 423 324 418 328 c 0,21,22
 380 367 380 367 356 379 c 128,-1,23
 332 391 332 391 285 391 c 0,24,25
 218 391 218 391 176 345.5 c 128,-1,26
 134 300 134 300 134 227 c 0,27,28
 134 143 134 143 184 91 c 0,29,30
 231 42 231 42 309 42 c 2,31,-1
 485 42 l 1,32,-1
 485 0 l 1,33,-1
 311 0 l 2,34,35
 209 0 209 0 156 -55 c 0,36,37
 115 -98 115 -98 115 -161 c 0,38,39
 115 -236 115 -236 170 -285 c 0,40,41
 224 -333 224 -333 311 -333 c 0,42,43
 374 -333 374 -333 410.5 -324.5 c 128,-1,44
 447 -316 447 -316 478 -292 c 0,45,46
 495 -281 495 -281 503.5 -297.5 c 128,-1,47
 512 -314 512 -314 494 -324 c 0,0,1
EndSplineSet
EndChar

StartChar: uni063A
Encoding: 1594 1594 430
Width: 544
Flags: W
LayerCount: 2
Fore
SplineSet
292 565 m 0,0,1
 260 565 260 565 260 598 c 0,2,3
 260 630 260 630 292 630 c 0,4,5
 323 630 323 630 323 598 c 0,6,7
 323 565 323 565 292 565 c 0,0,1
494 -324 m 0,8,9
 414 -375 414 -375 311 -375 c 0,10,11
 192 -375 192 -375 124 -300 c 0,12,13
 70 -241 70 -241 70 -162 c 0,14,15
 70 -98 70 -98 104.5 -48 c 128,-1,16
 139 2 139 2 198 24 c 1,17,18
 87 80 87 80 87 228 c 0,19,20
 87 328 87 328 154 386 c 0,21,22
 208 433 208 433 280 433 c 0,23,24
 384 433 384 433 442 352 c 0,25,26
 447 345 447 345 442 337 c 128,-1,27
 437 329 437 329 430 326.5 c 128,-1,28
 423 324 423 324 418 328 c 0,29,30
 380 367 380 367 356 379 c 128,-1,31
 332 391 332 391 285 391 c 0,32,33
 218 391 218 391 176 345.5 c 128,-1,34
 134 300 134 300 134 227 c 0,35,36
 134 143 134 143 184 91 c 0,37,38
 231 42 231 42 309 42 c 2,39,-1
 485 42 l 1,40,-1
 485 0 l 1,41,-1
 311 0 l 2,42,43
 209 0 209 0 156 -55 c 0,44,45
 115 -98 115 -98 115 -161 c 0,46,47
 115 -236 115 -236 170 -285 c 0,48,49
 224 -333 224 -333 311 -333 c 0,50,51
 374 -333 374 -333 410.5 -324.5 c 128,-1,52
 447 -316 447 -316 478 -292 c 0,53,54
 495 -281 495 -281 503.5 -297.5 c 128,-1,55
 512 -314 512 -314 494 -324 c 0,8,9
EndSplineSet
EndChar

StartChar: glyph9742
Encoding: 1600 1600 431
Width: 116
Flags: W
LayerCount: 2
Fore
SplineSet
-30 0 m 1,0,-1
 -30 42 l 1,1,-1
 146 42 l 1,2,-1
 146 0 l 1,3,-1
 -30 0 l 1,0,-1
EndSplineSet
EndChar

StartChar: uni0641
Encoding: 1601 1601 432
Width: 920
Flags: W
LayerCount: 2
Fore
SplineSet
683 565 m 0,0,1
 651 565 651 565 651 598 c 0,2,3
 651 630 651 630 683 630 c 0,4,5
 714 630 714 630 714 598 c 0,6,7
 714 565 714 565 683 565 c 0,0,1
247 0 m 2,8,9
 175 0 175 0 132.5 45 c 128,-1,10
 90 90 90 90 90 167 c 2,11,-1
 90 308 l 2,12,13
 90 322 90 322 102 327.5 c 128,-1,14
 114 333 114 333 125.5 327.5 c 128,-1,15
 137 322 137 322 137 308 c 2,16,-1
 137 175 l 2,17,18
 137 42 137 42 261 42 c 2,19,-1
 560 42 l 1,20,21
 497 99 497 99 497 216 c 0,22,23
 497 323 497 323 551 381 c 0,24,25
 599 433 599 433 678 433 c 0,26,27
 753 433 753 433 796.5 388 c 128,-1,28
 840 343 840 343 840 265 c 2,29,-1
 840 167 l 2,30,31
 840 85 840 85 789 39 c 0,32,33
 746 0 746 0 675 0 c 2,34,-1
 247 0 l 2,8,9
793 257 m 2,35,36
 793 391 793 391 678 391 c 0,37,38
 615 391 615 391 579.5 344.5 c 128,-1,39
 544 298 544 298 544 216 c 0,40,41
 544 136 544 136 580 88 c 0,42,43
 614 42 614 42 669 42 c 0,44,45
 793 42 793 42 793 175 c 2,46,-1
 793 257 l 2,35,36
EndSplineSet
EndChar

StartChar: uni0642
Encoding: 1602 1602 433
Width: 719
Flags: W
LayerCount: 2
Fore
SplineSet
428 565 m 0,0,1
 396 565 396 565 396 598 c 0,2,3
 396 630 396 630 428 630 c 0,4,5
 459 630 459 630 459 598 c 0,6,7
 459 565 459 565 428 565 c 0,0,1
529 565 m 0,8,9
 497 565 497 565 497 598 c 0,10,11
 497 630 497 630 529 630 c 0,12,13
 560 630 560 630 560 598 c 0,14,15
 560 565 560 565 529 565 c 0,8,9
639 44 m 2,16,17
 639 -69 639 -69 557 -132 c 0,18,19
 482 -190 482 -190 352 -190 c 0,20,21
 202 -190 202 -190 127 -102 c 0,22,23
 70 -36 70 -36 70 60 c 0,24,25
 70 149 70 149 116 211 c 1,26,-1
 163 221 l 1,27,28
 112 147 112 147 112 60 c 0,29,30
 112 -35 112 -35 179 -92 c 0,31,32
 243 -148 243 -148 352 -148 c 0,33,34
 479 -148 479 -148 541 -88 c 0,35,36
 592 -39 592 -39 592 43 c 2,37,38
 592 43 592 43 592 50 c 1,39,40
 552 10 552 10 469 10 c 0,41,42
 385 10 385 10 337 77 c 0,43,44
 296 134 296 134 296 221 c 0,45,46
 296 324 296 324 350 382 c 0,47,48
 398 433 398 433 477 433 c 0,49,50
 552 433 552 433 595.5 388 c 128,-1,51
 639 343 639 343 639 265 c 2,52,-1
 639 44 l 2,16,17
592 257 m 2,53,54
 592 391 592 391 477 391 c 0,55,56
 414 391 414 391 378.5 345.5 c 128,-1,57
 343 300 343 300 343 221 c 0,58,59
 343 140 343 140 380 94 c 0,60,61
 413 52 413 52 469 52 c 0,62,63
 563 52 563 52 592 106 c 1,64,-1
 592 257 l 2,53,54
EndSplineSet
EndChar

StartChar: uni0643
Encoding: 1603 1603 434
Width: 858
Flags: W
LayerCount: 2
Fore
SplineSet
721 620 m 1,0,-1
 768 645 l 1,1,-1
 768 167 l 2,2,3
 768 84 768 84 718 39 c 0,4,5
 675 0 675 0 604 0 c 2,6,-1
 247 0 l 2,7,8
 175 0 175 0 132.5 45 c 128,-1,9
 90 90 90 90 90 167 c 2,10,-1
 90 308 l 1,11,-1
 137 333 l 1,12,-1
 137 175 l 2,13,14
 137 42 137 42 261 42 c 2,15,-1
 599 42 l 2,16,17
 721 42 721 42 721 175 c 2,18,-1
 721 620 l 1,0,-1
422 456 m 2,19,20
 497 456 497 456 497 390 c 0,21,22
 497 333 497 333 441 333 c 2,23,-1
 325 333 l 1,24,-1
 340 361 l 1,25,-1
 439 361 l 2,26,27
 469 361 469 361 469 390 c 0,28,29
 469 428 469 428 419 428 c 0,30,31
 392 428 392 428 369 418 c 1,32,-1
 369 446 l 1,33,-1
 450 536 l 1,34,-1
 482 536 l 1,35,-1
 412 456 l 1,36,-1
 422 456 l 2,19,20
EndSplineSet
EndChar

StartChar: uni0644
Encoding: 1604 1604 435
Width: 659
Flags: W
LayerCount: 2
Fore
SplineSet
569 44 m 2,0,1
 569 -67 569 -67 493 -132 c 0,2,3
 424 -190 424 -190 317 -190 c 0,4,5
 192 -190 192 -190 123 -102 c 0,6,7
 70 -34 70 -34 70 60 c 0,8,9
 70 149 70 149 116 211 c 0,10,11
 126 228 126 228 143 221 c 0,12,13
 157 215 157 215 151 201 c 0,14,15
 128 163 128 163 120 133.5 c 128,-1,16
 112 104 112 104 112 60 c 0,17,18
 112 -32 112 -32 173 -92 c 0,19,20
 230 -148 230 -148 317 -148 c 0,21,22
 419 -148 419 -148 475 -87 c 0,23,24
 522 -36 522 -36 522 44 c 2,25,-1
 522 620 l 2,26,27
 522 634 522 634 534 639.5 c 128,-1,28
 546 645 546 645 557.5 639.5 c 128,-1,29
 569 634 569 634 569 620 c 2,30,-1
 569 44 l 2,0,1
EndSplineSet
EndChar

StartChar: uni0645
Encoding: 1605 1605 436
Width: 555
Flags: W
LayerCount: 2
Fore
SplineSet
20 -315 m 1,0,-1
 20 -127 l 2,1,2
 20 -44 20 -44 68 0 c 0,3,4
 113 42 113 42 195 42 c 1,5,6
 132 99 132 99 132 216 c 0,7,8
 132 323 132 323 186 381 c 0,9,10
 234 433 234 433 313 433 c 0,11,12
 388 433 388 433 431.5 388 c 128,-1,13
 475 343 475 343 475 265 c 2,14,-1
 475 169 l 2,15,16
 475 92 475 92 432 47 c 128,-1,17
 389 2 389 2 314 0 c 2,18,-1
 191 0 l 2,19,20
 67 0 67 0 67 -128 c 2,21,-1
 67 -290 l 1,22,-1
 20 -315 l 1,0,-1
428 257 m 2,23,24
 428 391 428 391 313 391 c 0,25,26
 250 391 250 391 214.5 344.5 c 128,-1,27
 179 298 179 298 179 216 c 0,28,29
 179 132 179 132 215 85 c 0,30,31
 248 42 248 42 304 42 c 0,32,33
 428 42 428 42 428 170 c 2,34,-1
 428 257 l 2,23,24
EndSplineSet
EndChar

StartChar: uni0646
Encoding: 1606 1606 437
Width: 659
Flags: W
LayerCount: 2
Fore
SplineSet
322 453 m 0,0,1
 290 453 290 453 290 486 c 0,2,3
 290 518 290 518 322 518 c 0,4,5
 353 518 353 518 353 486 c 0,6,7
 353 453 353 453 322 453 c 0,0,1
569 44 m 2,8,9
 569 -67 569 -67 493 -132 c 0,10,11
 424 -190 424 -190 317 -190 c 0,12,13
 192 -190 192 -190 123 -102 c 0,14,15
 70 -34 70 -34 70 60 c 0,16,17
 70 149 70 149 116 211 c 0,18,19
 128 227 128 227 144 217 c 0,20,21
 156 209 156 209 149 198 c 0,22,23
 127 156 127 156 119.5 128.5 c 128,-1,24
 112 101 112 101 112 60 c 0,25,26
 112 -32 112 -32 173 -92 c 0,27,28
 230 -148 230 -148 317 -148 c 0,29,30
 419 -148 419 -148 475 -87 c 0,31,32
 522 -36 522 -36 522 44 c 2,33,-1
 522 398 l 2,34,35
 522 411 522 411 534 416.5 c 128,-1,36
 546 422 546 422 557.5 417 c 128,-1,37
 569 412 569 412 569 398 c 2,38,-1
 569 44 l 2,8,9
EndSplineSet
EndChar

StartChar: uni0647
Encoding: 1607 1607 438
Width: 502
Flags: W
LayerCount: 2
Fore
SplineSet
246 0 m 2,0,1
 159 0 159 0 111 58 c 0,2,3
 70 107 70 107 70 186 c 0,4,5
 70 369 70 369 251 433 c 1,6,7
 432 369 432 369 432 186 c 0,8,9
 432 95 432 95 379 45 c 0,10,11
 332 0 332 0 256 0 c 2,12,-1
 246 0 l 2,0,1
242 42 m 2,13,-1
 260 42 l 2,14,15
 318 42 318 42 351.5 81 c 128,-1,16
 385 120 385 120 385 186 c 0,17,18
 385 331 385 331 251 391 c 1,19,20
 117 331 117 331 117 186 c 0,21,22
 117 120 117 120 150.5 81 c 128,-1,23
 184 42 184 42 242 42 c 2,13,-1
EndSplineSet
EndChar

StartChar: uni0648
Encoding: 1608 1608 439
Width: 483
Flags: W
LayerCount: 2
Fore
SplineSet
356 46 m 1,0,1
 312 10 312 10 233 10 c 0,2,3
 148 10 148 10 101 75 c 0,4,5
 60 132 60 132 60 221 c 0,6,7
 60 324 60 324 114 382 c 0,8,9
 162 433 162 433 241 433 c 0,10,11
 316 433 316 433 359.5 388 c 128,-1,12
 403 343 403 343 403 265 c 2,13,-1
 403 43 l 2,14,15
 403 -65 403 -65 348 -129 c 0,16,17
 296 -190 296 -190 207 -190 c 0,18,19
 150 -190 150 -190 98 -164 c 0,20,21
 82 -155 82 -155 88.5 -137.5 c 128,-1,22
 95 -120 95 -120 112 -126 c 0,23,24
 156 -149 156 -149 202 -149 c 0,25,26
 284 -149 284 -149 325 -85 c 0,27,28
 356 -35 356 -35 356 41 c 2,29,-1
 356 46 l 1,0,1
356 257 m 2,30,31
 356 391 356 391 241 391 c 0,32,33
 178 391 178 391 141.5 345.5 c 128,-1,34
 105 300 105 300 105 221 c 0,35,36
 105 141 105 141 143 94 c 0,37,38
 177 52 177 52 233 52 c 0,39,40
 327 52 327 52 356 106 c 1,41,-1
 356 257 l 2,30,31
EndSplineSet
EndChar

StartChar: glyph9751
Encoding: 1609 1609 440
Width: 699
Flags: W
LayerCount: 2
Fore
SplineSet
578 330 m 0,0,1
 544 364 544 364 522.5 373.5 c 128,-1,2
 501 383 501 383 461 383 c 0,3,4
 415 383 415 383 387.5 353.5 c 128,-1,5
 360 324 360 324 360 275 c 0,6,7
 360 215 360 215 409 181 c 0,8,9
 433 164 433 164 513 135 c 0,10,11
 584 110 584 110 610 82 c 0,12,13
 639 52 639 52 639 4 c 0,14,15
 639 -80 639 -80 557 -136 c 0,16,17
 478 -190 478 -190 352 -190 c 0,18,19
 202 -190 202 -190 127 -102 c 0,20,21
 70 -36 70 -36 70 60 c 0,22,23
 70 149 70 149 116 211 c 0,24,25
 124 218 124 218 132.5 217.5 c 128,-1,26
 141 217 141 217 146 209.5 c 128,-1,27
 151 202 151 202 146 194 c 0,28,29
 126 156 126 156 119 129.5 c 128,-1,30
 112 103 112 103 112 60 c 0,31,32
 112 -35 112 -35 179 -92 c 0,33,34
 243 -148 243 -148 352 -148 c 0,35,36
 474 -148 474 -148 541 -93 c 0,37,38
 592 -52 592 -52 592 4 c 0,39,40
 592 39 592 39 568.5 58 c 128,-1,41
 545 77 545 77 466 105 c 0,42,43
 393 131 393 131 362 159 c 0,44,45
 313 201 313 201 313 275 c 256,46,47
 313 349 313 349 367 391 c 0,48,49
 408 424 408 424 461 424 c 0,50,51
 548 424 548 424 601 358 c 0,52,53
 609 350 609 350 606 339.5 c 128,-1,54
 603 329 603 329 594.5 326 c 128,-1,55
 586 323 586 323 578 330 c 0,0,1
EndSplineSet
EndChar

StartChar: uni064A
Encoding: 1610 1610 441
Width: 699
Flags: W
LayerCount: 2
Fore
SplineSet
304 -363 m 0,0,1
 272 -363 272 -363 272 -330 c 0,2,3
 272 -298 272 -298 304 -298 c 0,4,5
 335 -298 335 -298 335 -330 c 0,6,7
 335 -363 335 -363 304 -363 c 0,0,1
405 -363 m 0,8,9
 373 -363 373 -363 373 -330 c 0,10,11
 373 -298 373 -298 405 -298 c 0,12,13
 436 -298 436 -298 436 -330 c 0,14,15
 436 -363 436 -363 405 -363 c 0,8,9
578 330 m 0,16,17
 544 364 544 364 522.5 373.5 c 128,-1,18
 501 383 501 383 461 383 c 0,19,20
 415 383 415 383 387.5 353.5 c 128,-1,21
 360 324 360 324 360 275 c 0,22,23
 360 215 360 215 409 181 c 0,24,25
 433 164 433 164 513 135 c 0,26,27
 584 110 584 110 610 82 c 0,28,29
 639 52 639 52 639 4 c 0,30,31
 639 -80 639 -80 557 -136 c 0,32,33
 478 -190 478 -190 352 -190 c 0,34,35
 202 -190 202 -190 127 -102 c 0,36,37
 70 -36 70 -36 70 60 c 0,38,39
 70 149 70 149 116 211 c 0,40,41
 124 218 124 218 132.5 217.5 c 128,-1,42
 141 217 141 217 146 209.5 c 128,-1,43
 151 202 151 202 146 194 c 0,44,45
 126 156 126 156 119 129.5 c 128,-1,46
 112 103 112 103 112 60 c 0,47,48
 112 -35 112 -35 179 -92 c 0,49,50
 243 -148 243 -148 352 -148 c 0,51,52
 474 -148 474 -148 541 -93 c 0,53,54
 592 -52 592 -52 592 4 c 0,55,56
 592 39 592 39 568.5 58 c 128,-1,57
 545 77 545 77 466 105 c 0,58,59
 393 131 393 131 362 159 c 0,60,61
 313 201 313 201 313 275 c 256,62,63
 313 349 313 349 367 391 c 0,64,65
 408 424 408 424 461 424 c 0,66,67
 548 424 548 424 601 358 c 0,68,69
 609 350 609 350 606 339.5 c 128,-1,70
 603 329 603 329 594.5 326 c 128,-1,71
 586 323 586 323 578 330 c 0,16,17
EndSplineSet
EndChar

StartChar: glyph9753
Encoding: 1611 1611 442
Width: 0
Flags: W
LayerCount: 2
Fore
SplineSet
10 627 m 1,0,-1
 25 659 l 1,1,-1
 189 689 l 1,2,-1
 174 657 l 1,3,-1
 10 627 l 1,0,-1
0 565 m 1,4,-1
 15 597 l 1,5,-1
 179 627 l 1,6,-1
 164 595 l 1,7,-1
 0 565 l 1,4,-1
EndSplineSet
EndChar

StartChar: glyph9754
Encoding: 1612 1612 443
Width: 0
Flags: W
LayerCount: 2
Fore
SplineSet
131 596 m 1,0,1
 97 613 97 613 97 653 c 0,2,3
 97 676 97 676 111.5 692 c 128,-1,4
 126 708 126 708 148 708 c 0,5,6
 171 708 171 708 185.5 692.5 c 128,-1,7
 200 677 200 677 200 653 c 0,8,9
 200 616 200 616 176.5 591.5 c 128,-1,10
 153 567 153 567 117 567 c 0,11,12
 69 567 69 567 47 608 c 1,13,-1
 25 572 l 1,14,-1
 2 583 l 1,15,-1
 37 640 l 1,16,-1
 53 640 l 1,17,18
 74 594 74 594 117 594 c 0,19,20
 124 594 124 594 131 596 c 1,0,1
153 609 m 1,21,22
 173 626 173 626 173 651 c 0,23,24
 173 684 173 684 148 684 c 256,25,26
 123 684 123 684 123 651 c 0,27,28
 123 621 123 621 153 609 c 1,21,22
EndSplineSet
EndChar

StartChar: glyph9755
Encoding: 1613 1613 444
Width: 0
Flags: W
LayerCount: 2
Fore
SplineSet
10 627 m 1,0,-1
 25 659 l 1,1,-1
 189 689 l 1,2,-1
 174 657 l 1,3,-1
 10 627 l 1,0,-1
0 565 m 1,4,-1
 15 597 l 1,5,-1
 179 627 l 1,6,-1
 164 595 l 1,7,-1
 0 565 l 1,4,-1
EndSplineSet
EndChar

StartChar: glyph9756
Encoding: 1614 1614 445
Width: 0
Flags: W
LayerCount: 2
Fore
SplineSet
0 565 m 1,0,-1
 15 597 l 1,1,-1
 179 627 l 1,2,-1
 164 595 l 1,3,-1
 0 565 l 1,0,-1
EndSplineSet
EndChar

StartChar: glyph9757
Encoding: 1615 1615 446
Width: 0
Flags: W
LayerCount: 2
Fore
SplineSet
0 565 m 1,0,-1
 15 597 l 1,1,-1
 105 614 l 1,2,3
 85 634 85 634 85 664 c 0,4,5
 85 687 85 687 99.5 703 c 128,-1,6
 114 719 114 719 136 719 c 0,7,8
 159 719 159 719 173.5 703.5 c 128,-1,9
 188 688 188 688 188 664 c 0,10,11
 188 599 188 599 131 589 c 2,12,-1
 0 565 l 1,0,-1
138 621 m 1,13,14
 161 637 161 637 161 662 c 0,15,16
 161 695 161 695 136 695 c 256,17,18
 111 695 111 695 111 662 c 0,19,20
 111 635 111 635 138 621 c 1,13,14
EndSplineSet
EndChar

StartChar: glyph9758
Encoding: 65602 -1 447
Width: 0
Flags: W
LayerCount: 2
Fore
SplineSet
131 -182 m 1,0,-1
 146 -150 l 1,1,-1
 310 -120 l 1,2,-1
 295 -152 l 1,3,-1
 131 -182 l 1,0,-1
EndSplineSet
EndChar

StartChar: glyph9759
Encoding: 1617 1617 448
Width: 0
Flags: W
LayerCount: 2
Fore
SplineSet
152 659 m 1,0,-1
 179 674 l 1,1,-1
 179 616 l 2,2,3
 179 593 179 593 165 579 c 128,-1,4
 151 565 151 565 128 565 c 256,5,6
 105 565 105 565 90 580 c 1,7,8
 73 565 73 565 51 565 c 0,9,10
 28 565 28 565 14 579 c 128,-1,11
 0 593 0 593 0 616 c 2,12,-1
 0 635 l 1,13,-1
 27 650 l 1,14,-1
 27 616 l 2,15,16
 27 592 27 592 52 592 c 0,17,18
 76 592 76 592 76 612 c 2,19,-1
 76 649 l 1,20,-1
 103 664 l 1,21,-1
 103 612 l 2,22,23
 103 592 103 592 128 592 c 0,24,25
 152 592 152 592 152 616 c 2,26,-1
 152 659 l 1,0,-1
EndSplineSet
EndChar

StartChar: glyph9760
Encoding: 1618 1618 449
Width: 0
Flags: W
LayerCount: 2
Fore
SplineSet
55 686 m 1,0,1
 79 679 79 679 94.5 659.5 c 128,-1,2
 110 640 110 640 110 617 c 0,3,4
 110 561 110 561 55 561 c 256,5,6
 0 561 0 561 0 617 c 0,7,8
 0 640 0 640 15.5 659.5 c 128,-1,9
 31 679 31 679 55 686 c 1,0,1
55 656 m 1,10,11
 27 650 27 650 27 617 c 0,12,13
 27 586 27 586 55 586 c 256,14,15
 83 586 83 586 83 617 c 0,16,17
 83 650 83 650 55 656 c 1,10,11
EndSplineSet
EndChar

StartChar: glyph9761
Encoding: 1619 1619 450
Width: 0
Flags: W
LayerCount: 2
Fore
SplineSet
200 711 m 1,0,1
 175 665 175 665 142 665 c 0,2,3
 120 665 120 665 88 688 c 0,4,5
 70 700 70 700 59 700 c 0,6,7
 40 700 40 700 21 670 c 1,8,-1
 0 682 l 1,9,10
 25 728 25 728 58 728 c 0,11,12
 77 728 77 728 103 709 c 0,13,14
 125 693 125 693 141 693 c 0,15,16
 158 693 158 693 179 723 c 1,17,-1
 200 711 l 1,0,1
EndSplineSet
EndChar

StartChar: glyph9762
Encoding: 1620 1620 451
Width: 0
Flags: W
LayerCount: 2
Fore
SplineSet
0 660 m 1,0,-1
 15 688 l 1,1,-1
 39 688 l 1,2,3
 30 705 30 705 30 722 c 0,4,5
 30 749 30 749 50 769 c 128,-1,6
 70 789 70 789 98 789 c 0,7,8
 117 789 117 789 136 778 c 1,9,-1
 136 747 l 1,10,11
 118 760 118 760 100 760 c 0,12,13
 84 760 84 760 72 749 c 128,-1,14
 60 738 60 738 60 723 c 0,15,16
 60 705 60 705 75 688 c 1,17,-1
 159 688 l 1,18,-1
 144 660 l 1,19,-1
 0 660 l 1,0,-1
EndSplineSet
EndChar

StartChar: glyph9763
Encoding: 1621 1621 452
Width: 0
Flags: W
LayerCount: 2
Fore
SplineSet
131 -192 m 1,0,-1
 146 -164 l 1,1,-1
 170 -164 l 1,2,3
 161 -147 161 -147 161 -130 c 0,4,5
 161 -103 161 -103 181 -83 c 128,-1,6
 201 -63 201 -63 229 -63 c 0,7,8
 248 -63 248 -63 267 -74 c 1,9,-1
 267 -105 l 1,10,11
 249 -92 249 -92 231 -92 c 0,12,13
 215 -92 215 -92 203 -103 c 128,-1,14
 191 -114 191 -114 191 -129 c 0,15,16
 191 -147 191 -147 206 -164 c 1,17,-1
 290 -164 l 1,18,-1
 275 -192 l 1,19,-1
 131 -192 l 1,0,-1
EndSplineSet
EndChar

StartChar: glyph9764
Encoding: 1632 1632 453
Width: 189
Flags: W
LayerCount: 2
Fore
SplineSet
95 89 m 1,0,-1
 40 144 l 1,1,-1
 95 198 l 1,2,-1
 149 144 l 1,3,-1
 95 89 l 1,0,-1
EndSplineSet
EndChar

StartChar: glyph9765
Encoding: 1633 1633 454
Width: 187
Flags: W
LayerCount: 2
Fore
SplineSet
70 -15 m 1,0,-1
 70 565 l 1,1,-1
 117 565 l 1,2,-1
 117 10 l 1,3,-1
 70 -15 l 1,0,-1
EndSplineSet
EndChar

StartChar: glyph9766
Encoding: 1634 1634 455
Width: 378
Flags: W
LayerCount: 2
Fore
SplineSet
65 -15 m 1,0,-1
 65 446 l 2,1,2
 65 502 65 502 98.5 533.5 c 128,-1,3
 132 565 132 565 192 565 c 2,4,-1
 353 565 l 1,5,-1
 353 523 l 1,6,-1
 195 523 l 2,7,8
 112 523 112 523 112 446 c 2,9,-1
 112 10 l 1,10,-1
 65 -15 l 1,0,-1
EndSplineSet
EndChar

StartChar: glyph9767
Encoding: 1635 1635 456
Width: 535
Flags: W
LayerCount: 2
Fore
SplineSet
458 565 m 1,0,-1
 505 565 l 1,1,-1
 505 442 l 2,2,3
 505 393 505 393 472.5 363 c 128,-1,4
 440 333 440 333 386 333 c 0,5,6
 321 333 321 333 288 372 c 1,7,8
 254 333 254 333 192 333 c 0,9,10
 149 333 149 333 117 352 c 1,11,-1
 117 10 l 1,12,-1
 70 -15 l 1,13,-1
 70 565 l 1,14,-1
 117 565 l 1,15,-1
 117 442 l 2,16,17
 117 375 117 375 192 375 c 0,18,19
 264 375 264 375 264 442 c 2,20,-1
 264 535 l 1,21,-1
 311 535 l 1,22,-1
 311 442 l 2,23,24
 311 375 311 375 386 375 c 0,25,26
 458 375 458 375 458 442 c 2,27,-1
 458 565 l 1,0,-1
EndSplineSet
EndChar

